<svg id="Ebene_1" data-name="Ebene 1" xmlns="http://www.w3.org/2000/svg" viewBox="0 0 150 62"><defs><style>.cls-1{fill:#fff;}</style></defs><title>IB-Markenzeichen_Schwarz_150x62</title><path class="cls-1" d="M103.18,14.79A7.16,7.16,0,1,0,96,7.64,7.15,7.15,0,0,0,103.18,14.79Zm45.36,29.56a8.58,8.58,0,0,0-2.17-3,9.81,9.81,0,0,0-3.3-1.93,15.45,15.45,0,0,0-3.55-.8.1.1,0,0,1,0-.2,9.82,9.82,0,0,0,4.93-3.24,10.24,10.24,0,0,0,2.06-6.69,12.38,12.38,0,0,0-.68-4.31,6.64,6.64,0,0,0-2.4-3.1,12.21,12.21,0,0,0-4.62-1.87,34.82,34.82,0,0,0-7.34-.64c-1.86,0-3.56.06-5.08.17s-3.14.16-4.86.16H93.24a.63.63,0,0,0-.63.63V22.4a.64.64,0,0,0,.52.63l3.69.71a1.58,1.58,0,0,1,.93.52,1.62,1.62,0,0,1,.31,1V54.61a1.6,1.6,0,0,1-.31,1,1.46,1.46,0,0,1-.93.5l-3.69.69a.62.62,0,0,0-.52.62v2.89a.64.64,0,0,0,.63.64h28.4c.88,0,1.69,0,2.43,0l2.18.11,2.29.11c.81,0,1.72.05,2.73.05a32.73,32.73,0,0,0,8.66-1,15.07,15.07,0,0,0,5.57-2.68,9.64,9.64,0,0,0,2.95-4.06,14.44,14.44,0,0,0,.87-5.07A10.41,10.41,0,0,0,148.54,44.35ZM116.47,55a1.57,1.57,0,0,1-1.21,1.53,15.36,15.36,0,0,1-5.72-.43,1.43,1.43,0,0,1-.93-.49,1.56,1.56,0,0,1-.31-1V25.27a1.56,1.56,0,0,1,.31-1,1.52,1.52,0,0,1,.93-.52l1.56-.3a15.08,15.08,0,0,1,4.16-.15,1.58,1.58,0,0,1,1.21,1.54Zm10.24-31.66a.84.84,0,0,1,.76-.84l2-.16.7,0A6.08,6.08,0,0,1,134.86,24c1,1.1,1.53,2.88,1.53,5.36A10.47,10.47,0,0,1,135,35.12a4.79,4.79,0,0,1-4.31,2l-3.19,0a.84.84,0,0,1-.83-.84Zm9.64,31.75c-1.14,1.51-3,2.26-5.62,2.26a20.69,20.69,0,0,1-2.2-.12c-.41,0-.77-.09-1.1-.14a.84.84,0,0,1-.72-.83V42.43a.86.86,0,0,1,.82-.85c.52,0,3-.08,3.66-.08a7.34,7.34,0,0,1,5.12,1.6c1.16,1.07,1.75,3,1.75,5.67A10.27,10.27,0,0,1,136.35,55.08ZM18.51,35a3.26,3.26,0,0,0-2.64,1.18,4.81,4.81,0,0,0-1,3.17A4.29,4.29,0,0,0,16,42.43a3.77,3.77,0,0,0,2.88,1.11,7.27,7.27,0,0,0,1.43-.12A7.26,7.26,0,0,0,21.51,43V41.89a6.65,6.65,0,0,1-2.63.56,2.54,2.54,0,0,1-2-.75,3.27,3.27,0,0,1-.74-2.21h5.69V38.7A3.93,3.93,0,0,0,21,36,3.11,3.11,0,0,0,18.51,35Zm-2.3,3.49a3,3,0,0,1,.7-1.79A2,2,0,0,1,18.49,36a1.85,1.85,0,0,1,1.51.63,2.75,2.75,0,0,1,.53,1.81Zm13-1.93a2.13,2.13,0,0,1,.46,1.51v5.33h1.25V38a3.07,3.07,0,0,0-.75-2.3A3.15,3.15,0,0,0,27.89,35a3.55,3.55,0,0,0-1.54.34,2.61,2.61,0,0,0-1.08.94h-.06L25,35.14H24v8.25h1.24V39.06a3.55,3.55,0,0,1,.61-2.31,2.38,2.38,0,0,1,1.89-.7A1.89,1.89,0,0,1,29.18,36.55Zm49.57,2.51a3.55,3.55,0,0,1,.6-2.31,2.38,2.38,0,0,1,1.89-.7,1.88,1.88,0,0,1,1.44.5,2.13,2.13,0,0,1,.46,1.51v5.33h1.25V38a3.07,3.07,0,0,0-.75-2.3A3.15,3.15,0,0,0,81.39,35a3.55,3.55,0,0,0-1.54.34,2.52,2.52,0,0,0-1.07.94h-.06l-.21-1.13h-1v8.25h1.25Zm-40.88,20a.89.89,0,0,1-.28-.73v-4H40V52.54H37.59V50.75H36.13l-.67,1.78-1.26.77v1h1.1v4a3,3,0,0,0,.63,2.09,2.57,2.57,0,0,0,2,.7A5.1,5.1,0,0,0,40,60.72V59a5.18,5.18,0,0,1-1.45.26A1.09,1.09,0,0,1,37.87,59.05ZM68.44,43.54a7.23,7.23,0,0,0,1.42-.12A7.35,7.35,0,0,0,71.12,43V41.89a6.7,6.7,0,0,1-2.64.56,2.55,2.55,0,0,1-2-.75,3.27,3.27,0,0,1-.73-2.21h5.68V38.7a3.92,3.92,0,0,0-.9-2.69,3.13,3.13,0,0,0-2.46-1,3.23,3.23,0,0,0-2.63,1.18,4.76,4.76,0,0,0-1,3.17,4.34,4.34,0,0,0,1.06,3.09A3.81,3.81,0,0,0,68.44,43.54Zm-1.93-6.85A2.07,2.07,0,0,1,68.1,36a1.84,1.84,0,0,1,1.5.63,2.75,2.75,0,0,1,.53,1.81H65.82A3,3,0,0,1,66.51,36.69ZM33.89,38.86a8.06,8.06,0,0,0,1.63.75,6.46,6.46,0,0,1,1.63.81A1.08,1.08,0,0,1,37,42.2a2.94,2.94,0,0,1-1.5.31,5.54,5.54,0,0,1-1.31-.17A6.51,6.51,0,0,1,33,41.86V43a5.18,5.18,0,0,0,2.56.52,4.11,4.11,0,0,0,2.41-.62,2.07,2.07,0,0,0,.85-1.78,1.9,1.9,0,0,0-.51-1.36,5.58,5.58,0,0,0-2-1.08,10.93,10.93,0,0,1-1.45-.61,1.56,1.56,0,0,1-.54-.44.89.89,0,0,1-.17-.56.85.85,0,0,1,.45-.77A2.55,2.55,0,0,1,35.91,36a6,6,0,0,1,2.25.51l.44-1A6.43,6.43,0,0,0,36,35a3.78,3.78,0,0,0-2.25.59,1.84,1.84,0,0,0-.82,1.59,2,2,0,0,0,.23,1A2.19,2.19,0,0,0,33.89,38.86ZM45.71,50.38a.89.89,0,0,0,.31.76,1.17,1.17,0,0,0,.75.25,1.13,1.13,0,0,0,.78-.28,1,1,0,0,0,.29-.73,1,1,0,0,0-.29-.74,1.09,1.09,0,0,0-.78-.27,1.16,1.16,0,0,0-.75.24A.92.92,0,0,0,45.71,50.38ZM7.09,41.46H7L3.55,32.39H1.62v11H2.81v-7c0-1.06,0-2-.11-2.75h.06l3.73,9.75h1l3.77-9.74h.06c-.07,1-.11,1.84-.11,2.65v7.09h1.28v-11H10.61ZM32.36,56.58a6.63,6.63,0,0,0-1.44-.74,9.46,9.46,0,0,1-1.44-.67.66.66,0,0,1-.32-.53c0-.37.34-.55,1-.55a3.54,3.54,0,0,1,1.12.17,12,12,0,0,1,1.19.44l.69-1.65a7,7,0,0,0-3-.66,4.22,4.22,0,0,0-2.46.61,2,2,0,0,0-.87,1.73,2.79,2.79,0,0,0,.2,1.11,2.15,2.15,0,0,0,.67.79,6.83,6.83,0,0,0,1.42.75c.45.19.82.36,1.09.5a2.37,2.37,0,0,1,.57.39.6.6,0,0,1,.16.44c0,.48-.41.72-1.25.72a6.18,6.18,0,0,1-1.41-.2,8.65,8.65,0,0,1-1.44-.51v1.9A5.86,5.86,0,0,0,28.1,61a8,8,0,0,0,1.57.13,4.46,4.46,0,0,0,2.69-.68,2.31,2.31,0,0,0,.9-2A2.39,2.39,0,0,0,33,57.38,2.31,2.31,0,0,0,32.36,56.58Zm33.83-4H63.61L61.25,55.1l-1,1.28h0l.12-1.91V49.25H58V61h2.3V58.34l1-.79L63.75,61H66.4l-3.55-4.77Zm4.88-.15a3.75,3.75,0,0,0-2.92,1.15,4.65,4.65,0,0,0-1.06,3.27A4.27,4.27,0,0,0,68.23,60a4.39,4.39,0,0,0,3.18,1.12A7.94,7.94,0,0,0,73.08,61a5.63,5.63,0,0,0,1.29-.45V58.74a7.13,7.13,0,0,1-1.42.5,6.05,6.05,0,0,1-1.44.16A2,2,0,0,1,70,58.85a2.26,2.26,0,0,1-.58-1.53h5.43V56.21a3.85,3.85,0,0,0-1-2.81A3.71,3.71,0,0,0,71.07,52.39Zm-1.6,3.4a2.19,2.19,0,0,1,.47-1.31A1.46,1.46,0,0,1,71.08,54a1.49,1.49,0,0,1,1.16.46,1.9,1.9,0,0,1,.45,1.31Zm4.13-12.4h1.25V35.14H73.6Zm7.88,9A3.58,3.58,0,0,0,80,52.7a2.35,2.35,0,0,0-1,.92h-.13l-.31-1.08H76.71V61H79V57a3.92,3.92,0,0,1,.43-2.13,1.55,1.55,0,0,1,1.39-.65,1.16,1.16,0,0,1,1,.46A2.31,2.31,0,0,1,82.18,56V61h2.29V55.47a3.17,3.17,0,0,0-.76-2.29A3,3,0,0,0,81.48,52.39ZM74.23,32.08a.76.76,0,0,0-.53.2.83.83,0,0,0-.21.63.86.86,0,0,0,.21.63.72.72,0,0,0,.53.2.72.72,0,0,0,.52-.2,1,1,0,0,0,0-1.26A.77.77,0,0,0,74.23,32.08ZM54.29,52.82a3.2,3.2,0,0,0-1,1.14h-.12l-.34-1.42H51.05V61h2.29V56.67A2.06,2.06,0,0,1,54,55.09a2.43,2.43,0,0,1,1.71-.56,2.56,2.56,0,0,1,.67.08l.18-2.16a4.26,4.26,0,0,0-.78-.06A2.61,2.61,0,0,0,54.29,52.82Zm6.9-10.62a2.94,2.94,0,0,1-1.5.31,5.63,5.63,0,0,1-1.32-.17,6.41,6.41,0,0,1-1.27-.48V43a5.16,5.16,0,0,0,2.55.52,4.07,4.07,0,0,0,2.41-.62,2.08,2.08,0,0,0,.86-1.78,1.9,1.9,0,0,0-.51-1.36,5.56,5.56,0,0,0-2-1.08A11.24,11.24,0,0,1,59,38.09a1.71,1.71,0,0,1-.55-.44,1,1,0,0,1-.17-.56.85.85,0,0,1,.45-.77A2.57,2.57,0,0,1,60.05,36a5.93,5.93,0,0,1,2.25.51l.45-1A6.47,6.47,0,0,0,60.14,35a3.83,3.83,0,0,0-2.25.59,2,2,0,0,0-.58,2.56,2.24,2.24,0,0,0,.72.72,8.2,8.2,0,0,0,1.64.75,6.46,6.46,0,0,1,1.63.81,1.08,1.08,0,0,1-.11,1.78ZM43,49.63a1,1,0,0,0-.28.75.94.94,0,0,0,.28.74,1.06,1.06,0,0,0,.77.27,1.08,1.08,0,0,0,.77-.28,1,1,0,0,0,.29-.73,1,1,0,0,0-.29-.73,1,1,0,0,0-.77-.28A1.1,1.1,0,0,0,43,49.63Zm4.82,3.48a4,4,0,0,0-2.6-.74,6.83,6.83,0,0,0-3.22.76l.76,1.55a5.92,5.92,0,0,1,2.37-.61,1.14,1.14,0,0,1,1.31,1.28v.37l-1.46,0a5.37,5.37,0,0,0-2.82.71,2.2,2.2,0,0,0-.94,2,2.62,2.62,0,0,0,.7,2,2.55,2.55,0,0,0,1.91.7,3.76,3.76,0,0,0,1.59-.29,3.3,3.3,0,0,0,1.2-1h.06L47.08,61h1.6V55.35A2.73,2.73,0,0,0,47.78,53.11ZM46.4,57.75A1.64,1.64,0,0,1,45.93,59a1.76,1.76,0,0,1-1.28.46c-.74,0-1.11-.32-1.11-1a1.13,1.13,0,0,1,.49-1,2.83,2.83,0,0,1,1.49-.36l.88,0ZM44.1,43.54a4.5,4.5,0,0,0,2.09-.43V42a5.71,5.71,0,0,1-2.12.44,2.15,2.15,0,0,1-1.82-.81,3.87,3.87,0,0,1-.61-2.33c0-2.14.84-3.21,2.51-3.21a4.3,4.3,0,0,1,.87.11,5.3,5.3,0,0,1,.9.27l.39-1.06a4.54,4.54,0,0,0-.94-.3A5.94,5.94,0,0,0,44.18,35a3.62,3.62,0,0,0-2.84,1.13,4.7,4.7,0,0,0-1,3.2,4.53,4.53,0,0,0,1,3.12A3.53,3.53,0,0,0,44.1,43.54Zm9.23-7a2.18,2.18,0,0,1,.46,1.51v5.33H55V38a3,3,0,0,0-.75-2.28A3.19,3.19,0,0,0,52,35a3.37,3.37,0,0,0-1.55.34,2.47,2.47,0,0,0-1.05.94h-.08a7.79,7.79,0,0,0,.06-1.06V31.68H48.14V43.39h1.25V39.08a3.59,3.59,0,0,1,.6-2.32,2.36,2.36,0,0,1,1.9-.71A1.89,1.89,0,0,1,53.33,36.55Z"/></svg>