<svg id="RGB" xmlns="http://www.w3.org/2000/svg" viewBox="0 0 800.19 297.52"><defs><style>.cls-1{fill:#fff;}</style></defs><title>IB-EN-Markenzeichen-mit-Claim-RGB</title><path class="cls-1" d="M751.86,150a33.17,33.17,0,1,1-33.17-33.16A33.17,33.17,0,0,1,751.86,150M928.94,320.2a47.9,47.9,0,0,1,3.62,19.23,66.64,66.64,0,0,1-4,23.48,44.26,44.26,0,0,1-13.68,18.81q-9.63,7.92-25.8,12.43t-40.15,4.49q-7,0-12.62-.25c-3.75-.17-7.29-.33-10.62-.5l-10.12-.5q-5.12-.25-11.24-.25H672.66a2.93,2.93,0,0,1-2.93-2.94V380.8a2.94,2.94,0,0,1,2.4-2.89l17.08-3.17a6.72,6.72,0,0,0,4.31-2.32,7.26,7.26,0,0,0,1.44-4.68v-136a7.33,7.33,0,0,0-1.44-4.69,7.24,7.24,0,0,0-4.31-2.43l-17.1-3.29a2.94,2.94,0,0,1-2.38-2.88V205a2.93,2.93,0,0,1,2.93-2.94h131q12,0,22.54-.75t23.55-.75q20.49,0,34,2.94t21.42,8.68a30.72,30.72,0,0,1,11.12,14.36,57.63,57.63,0,0,1,3.18,20q0,19.25-9.56,31a45.68,45.68,0,0,1-22.84,15,.49.49,0,0,0,.09,1,70.35,70.35,0,0,1,16.45,3.69,46,46,0,0,1,15.3,8.93,39.91,39.91,0,0,1,10.05,14.12M780.3,229.7a7.32,7.32,0,0,0-5.61-7.12,69.47,69.47,0,0,0-19.29.67l-7.23,1.39a6.63,6.63,0,0,0-5.74,7.12V367.62a7.3,7.3,0,0,0,1.43,4.68c1,1.21,2.1,1.77,4.31,2.31,12.39,3,23.23,2.77,26.52,2a7.3,7.3,0,0,0,5.61-7.11V229.7Zm47.48,53.08a3.91,3.91,0,0,0,3.82,3.9c2.23,0,12.44.17,14.78.17q13.74,0,20-9.43t6.25-26.92q0-17.25-7.06-24.86T843.88,218c-.67,0-1.75,0-3.25.13s-7.59.54-9.33.71a3.91,3.91,0,0,0-3.52,3.89Zm44.64,87.13q7.94-10.5,7.93-29.23t-8.12-26.29Q864.12,307,848.5,307c-2.83,0-14.51.34-16.92.4a3.91,3.91,0,0,0-3.8,3.91v64.07a3.9,3.9,0,0,0,3.33,3.86c1.5.22,3.16.43,5.08.64a93.17,93.17,0,0,0,10.19.56q18.11,0,26-10.49" transform="translate(-132.37 -116.87)"/><path class="cls-1" d="M165.6,301.58a13.19,13.19,0,0,1-5,10.88q-5,4-13.82,4a32.45,32.45,0,0,1-14.44-3.07v-10a59,59,0,0,0,8.74,3.25,26.15,26.15,0,0,0,6.53.94,9.36,9.36,0,0,0,5.46-1.36,4.66,4.66,0,0,0,1.9-4,4.41,4.41,0,0,0-.84-2.66,9.39,9.39,0,0,0-2.46-2.25,63.29,63.29,0,0,0-6.6-3.45,31.79,31.79,0,0,1-7-4.22,15.83,15.83,0,0,1-3.73-4.71,13.43,13.43,0,0,1-1.4-6.28q0-6.75,4.59-10.63T150.22,264a30.35,30.35,0,0,1,7.59.94,52.17,52.17,0,0,1,7.54,2.65L161.87,276a50.22,50.22,0,0,0-6.75-2.34,21.83,21.83,0,0,0-5.25-.66,6.9,6.9,0,0,0-4.7,1.43,4.68,4.68,0,0,0-1.64,3.73,4.63,4.63,0,0,0,.66,2.49,7.41,7.41,0,0,0,2.11,2.06,65.7,65.7,0,0,0,6.85,3.57q7.14,3.42,9.8,6.85A13.42,13.42,0,0,1,165.6,301.58Z" transform="translate(-132.37 -116.87)"/><path class="cls-1" d="M190.42,308a23.12,23.12,0,0,0,6.69-1.22v7.91a23.78,23.78,0,0,1-9.76,1.78q-6.37,0-9.29-3.22t-2.91-9.68V284.74h-5.09v-4.5l5.86-3.55,3.06-8.23h6.8v8.3h10.91v8H185.78v18.79a4.16,4.16,0,0,0,1.28,3.35A5,5,0,0,0,190.42,308Z" transform="translate(-132.37 -116.87)"/><path class="cls-1" d="M226.75,276a17.17,17.17,0,0,1,3.59.31l-.8,10a12.31,12.31,0,0,0-3.14-.35q-5.1,0-7.93,2.62a9.42,9.42,0,0,0-2.84,7.32v19.83H205v-39h8.06l1.56,6.55h.53A14.7,14.7,0,0,1,220,278,12,12,0,0,1,226.75,276Z" transform="translate(-132.37 -116.87)"/><path class="cls-1" d="M255.06,316.43q-9.42,0-14.72-5.19T235,296.53q0-9.81,4.9-15.15T253.49,276q8.26,0,12.86,4.7t4.6,13v5.16H245.82A10.19,10.19,0,0,0,248.5,306a9.44,9.44,0,0,0,7,2.55,29.68,29.68,0,0,0,6.66-.73,33.55,33.55,0,0,0,6.56-2.34v8.23a24.88,24.88,0,0,1-6,2.07A37.88,37.88,0,0,1,255.06,316.43Zm-1.5-32.84a6.77,6.77,0,0,0-5.3,2.14,10,10,0,0,0-2.2,6.09H261a8.87,8.87,0,0,0-2.05-6.09A7,7,0,0,0,253.56,283.59Z" transform="translate(-132.37 -116.87)"/><path class="cls-1" d="M315.58,315.73H305V293q0-4.22-1.5-6.33a5.48,5.48,0,0,0-4.78-2.11c-3,0-5.12,1-6.45,3s-2,5.28-2,9.89v18.33H279.6v-39h8.12l1.43,5h.59a11.32,11.32,0,0,1,4.9-4.27,16.77,16.77,0,0,1,7.1-1.44q6.79,0,10.32,3.67c2.35,2.46,3.52,6,3.52,10.62Z" transform="translate(-132.37 -116.87)"/><path class="cls-1" d="M360.45,276.76v5.4l-6.1,1.57a10.69,10.69,0,0,1,1.67,5.86,11.83,11.83,0,0,1-4.38,9.78q-4.36,3.5-12.15,3.5l-1.91-.1-1.57-.18a3.55,3.55,0,0,0-1.64,2.79q0,2.3,5.86,2.3h6.62q6.42,0,9.78,2.76c2.24,1.83,3.36,4.53,3.36,8.08a12,12,0,0,1-5.7,10.6q-5.7,3.76-16.36,3.77-8.16,0-12.47-2.84a9,9,0,0,1-4.3-8,8.34,8.34,0,0,1,2.19-5.89,12.49,12.49,0,0,1,6.45-3.38,7.22,7.22,0,0,1-2.86-2.29,5.6,5.6,0,0,1,.07-7.07,15.17,15.17,0,0,1,3.73-2.92,10.48,10.48,0,0,1-4.86-4.25,12.9,12.9,0,0,1-1.79-6.9c0-4.26,1.38-7.54,4.14-9.87S335,276,340.09,276a29.59,29.59,0,0,1,3.88.29c1.5.2,2.46.34,2.88.44Zm-30.09,44.48a3.83,3.83,0,0,0,2.11,3.45,11.59,11.59,0,0,0,5.91,1.26,20.87,20.87,0,0,0,9-1.57c2.16-1.05,3.24-2.47,3.24-4.29a3,3,0,0,0-1.92-3,15.59,15.59,0,0,0-5.92-.84h-5.51a8.33,8.33,0,0,0-4.9,1.38A4.25,4.25,0,0,0,330.36,321.24Zm3.87-31.72a7.91,7.91,0,0,0,1.45,5,5.25,5.25,0,0,0,4.41,1.85,5.15,5.15,0,0,0,4.39-1.85,8.15,8.15,0,0,0,1.39-5q0-7-5.78-7T334.23,289.52Z" transform="translate(-132.37 -116.87)"/><path class="cls-1" d="M383.28,308a23.24,23.24,0,0,0,6.7-1.22v7.91a23.81,23.81,0,0,1-9.76,1.78q-6.39,0-9.3-3.22T368,303.53V284.74h-5.09v-4.5l5.86-3.55,3.07-8.23h6.8v8.3h10.91v8H378.65v18.79a4.15,4.15,0,0,0,1.27,3.35A5,5,0,0,0,383.28,308Z" transform="translate(-132.37 -116.87)"/><path class="cls-1" d="M433.84,315.73H423.2V293q0-8.45-6.27-8.44-4.47,0-6.45,3c-1.33,2-2,5.29-2,9.83v18.33H397.86V261.49h10.63v11.05q0,1.29-.24,6.07l-.25,3.13h.56q3.56-5.72,11.29-5.71,6.87,0,10.43,3.69t3.56,10.6Z" transform="translate(-132.37 -116.87)"/><path class="cls-1" d="M462.42,316.43q-9.41,0-14.71-5.19t-5.3-14.71q0-9.81,4.9-15.15T460.85,276q8.26,0,12.87,4.7t4.6,13v5.16H453.18a10.24,10.24,0,0,0,2.69,7.07,9.43,9.43,0,0,0,7,2.55,29.68,29.68,0,0,0,6.66-.73,33.25,33.25,0,0,0,6.55-2.34v8.23a24.73,24.73,0,0,1-6,2.07A37.75,37.75,0,0,1,462.42,316.43Zm-1.5-32.84a6.78,6.78,0,0,0-5.3,2.14,10,10,0,0,0-2.19,6.09h14.92a8.87,8.87,0,0,0-2.06-6.09A7,7,0,0,0,460.92,283.59Z" transform="translate(-132.37 -116.87)"/><path class="cls-1" d="M523,315.73H512.31V293q0-4.22-1.5-6.33a5.46,5.46,0,0,0-4.77-2.11c-3,0-5.13,1-6.45,3s-2,5.28-2,9.89v18.33H487v-39h8.12l1.43,5h.59a11.32,11.32,0,0,1,4.9-4.27A16.76,16.76,0,0,1,509.1,276q6.81,0,10.32,3.67c2.35,2.46,3.53,6,3.53,10.62Z" transform="translate(-132.37 -116.87)"/><path class="cls-1" d="M533.44,266.68q0-5.19,5.79-5.19t5.78,5.19a5.06,5.06,0,0,1-1.44,3.85,6.08,6.08,0,0,1-4.34,1.38Q533.44,271.91,533.44,266.68Zm11.09,49.05H533.89v-39h10.64Z" transform="translate(-132.37 -116.87)"/><path class="cls-1" d="M591.66,315.73H581V293q0-4.22-1.5-6.33a5.47,5.47,0,0,0-4.78-2.11c-3,0-5.12,1-6.45,3s-2,5.28-2,9.89v18.33H555.68v-39h8.13l1.42,5h.6a11.26,11.26,0,0,1,4.9-4.27,16.72,16.72,0,0,1,7.09-1.44q6.79,0,10.32,3.67c2.35,2.46,3.52,6,3.52,10.62Z" transform="translate(-132.37 -116.87)"/><path class="cls-1" d="M636.53,276.76v5.4l-6.1,1.57a10.69,10.69,0,0,1,1.67,5.86,11.85,11.85,0,0,1-4.37,9.78q-4.38,3.5-12.15,3.5l-1.92-.1-1.57-.18a3.55,3.55,0,0,0-1.64,2.79q0,2.3,5.86,2.3h6.62q6.42,0,9.78,2.76c2.24,1.83,3.37,4.53,3.37,8.08a12,12,0,0,1-5.7,10.6q-5.7,3.76-16.37,3.77-8.16,0-12.47-2.84a9,9,0,0,1-4.3-8,8.31,8.31,0,0,1,2.2-5.89,12.42,12.42,0,0,1,6.44-3.38,7.13,7.13,0,0,1-2.85-2.29,5.6,5.6,0,0,1,.07-7.07,14.79,14.79,0,0,1,3.73-2.92,10.46,10.46,0,0,1-4.87-4.25,13,13,0,0,1-1.79-6.9c0-4.26,1.38-7.54,4.15-9.87S611,276,616.17,276a29.85,29.85,0,0,1,3.89.29c1.5.2,2.45.34,2.87.44Zm-30.09,44.48a3.85,3.85,0,0,0,2.11,3.45,11.59,11.59,0,0,0,5.91,1.26,20.87,20.87,0,0,0,9-1.57c2.16-1.05,3.24-2.47,3.24-4.29a3,3,0,0,0-1.91-3,15.68,15.68,0,0,0-5.93-.84h-5.51a8.35,8.35,0,0,0-4.9,1.38A4.25,4.25,0,0,0,606.44,321.24Zm3.87-31.72a7.91,7.91,0,0,0,1.45,5,5.25,5.25,0,0,0,4.41,1.85,5.15,5.15,0,0,0,4.39-1.85,8.15,8.15,0,0,0,1.4-5q0-7-5.79-7T610.31,289.52Z" transform="translate(-132.37 -116.87)"/><path class="cls-1" d="M192.06,346.26h14.4q10.14,0,14.67,3t4.54,9.58a11.09,11.09,0,0,1-2.53,7.48,12.14,12.14,0,0,1-7.38,3.82v.35q11.61,2,11.61,12.2,0,6.84-4.61,10.67t-12.92,3.83H192.06ZM198,368.09h9.77q6.27,0,9-2c1.83-1.31,2.75-3.53,2.75-6.64q0-4.29-3.07-6.19c-2-1.27-5.3-1.9-9.76-1.9H198Zm0,5v19.07h10.64q6.16,0,9.29-2.39t3.12-7.48q0-4.74-3.19-7c-2.13-1.49-5.36-2.23-9.71-2.23Z" transform="translate(-132.37 -116.87)"/><path class="cls-1" d="M253.59,397.93q-8.47,0-13.37-5.16t-4.9-14.33q0-9.24,4.55-14.67a15.12,15.12,0,0,1,12.22-5.44q7.18,0,11.37,4.72t4.18,12.46v3.67H241.32q.18,6.72,3.4,10.21t9.08,3.49A30.78,30.78,0,0,0,266,390.3v5.16a31.28,31.28,0,0,1-5.8,1.9A33,33,0,0,1,253.59,397.93ZM252,363.17a9.46,9.46,0,0,0-7.34,3,13.83,13.83,0,0,0-3.22,8.3h20c0-3.65-.82-6.44-2.44-8.39A8.61,8.61,0,0,0,252,363.17Z" transform="translate(-132.37 -116.87)"/><path class="cls-1" d="M277,348.67a3.84,3.84,0,0,1,1-2.91,3.58,3.58,0,0,1,4.84,0,3.73,3.73,0,0,1,1,2.89,3.81,3.81,0,0,1-1,2.91,3.53,3.53,0,0,1-4.84,0A3.92,3.92,0,0,1,277,348.67Zm6.28,48.56h-5.79V359h5.79Z" transform="translate(-132.37 -116.87)"/><path class="cls-1" d="M321.71,397.23V372.52c0-3.12-.7-5.44-2.12-7s-3.64-2.3-6.66-2.3q-6,0-8.79,3.25t-2.79,10.7v20h-5.78V359h4.7l1,5.23h.27a11.82,11.82,0,0,1,5-4.37,16.13,16.13,0,0,1,7.15-1.55q6.9,0,10.39,3.33t3.48,10.65v24.92Z" transform="translate(-132.37 -116.87)"/><path class="cls-1" d="M370.66,359v3.67l-7.07.83a12.48,12.48,0,0,1,2.51,7.64,11.29,11.29,0,0,1-3.84,9q-3.84,3.35-10.53,3.34a17.2,17.2,0,0,1-3.21-.28c-2.46,1.31-3.69,2.94-3.69,4.92a2.5,2.5,0,0,0,1.29,2.32,9.41,9.41,0,0,0,4.43.75h6.76q6.21,0,9.54,2.61a9.12,9.12,0,0,1,3.33,7.6,10.85,10.85,0,0,1-5.1,9.68q-5.08,3.33-14.85,3.33c-5,0-8.85-.93-11.55-2.79a9,9,0,0,1-4.07-7.88,8.82,8.82,0,0,1,2.24-6,11.26,11.26,0,0,1,6.27-3.45,6.16,6.16,0,0,1-2.46-2.06,5.45,5.45,0,0,1-1-3.24,6.09,6.09,0,0,1,1.12-3.66,11.61,11.61,0,0,1,3.52-3,10.23,10.23,0,0,1-4.83-4.15,12.12,12.12,0,0,1-1.87-6.69q0-6.27,3.77-9.67t10.67-3.4a19.59,19.59,0,0,1,5.4.69Zm-30.47,44.63a5.18,5.18,0,0,0,2.62,4.71c1.74,1.06,4.24,1.6,7.49,1.6q7.29,0,10.79-2.18a6.66,6.66,0,0,0,3.51-5.91q0-3.11-1.92-4.3c-1.28-.81-3.68-1.21-7.22-1.21h-6.94a9.1,9.1,0,0,0-6.13,1.89A6.69,6.69,0,0,0,340.19,403.65Zm3.14-32.39a7.79,7.79,0,0,0,2.27,6.07,9,9,0,0,0,6.31,2.05q8.46,0,8.47-8.22,0-8.61-8.58-8.61a8.48,8.48,0,0,0-6.27,2.19Q343.33,366.94,343.33,371.26Z" transform="translate(-132.37 -116.87)"/><path class="cls-1" d="M436.62,397.23H430.7v-24H403.85v24h-5.92v-51h5.92V368H430.7V346.26h5.92Z" transform="translate(-132.37 -116.87)"/><path class="cls-1" d="M455.17,359v24.79q0,4.68,2.13,7t6.66,2.31q6,0,8.77-3.28t2.77-10.7V359h5.78v38.21h-4.77l-.84-5.12h-.31a11.56,11.56,0,0,1-4.94,4.32,16.55,16.55,0,0,1-7.2,1.5q-7,0-10.44-3.31T449.31,384V359Z" transform="translate(-132.37 -116.87)"/><path class="cls-1" d="M542.26,397.23V372.38q0-4.58-2-6.85c-1.3-1.53-3.33-2.29-6.07-2.29q-5.4,0-8,3.11t-2.58,9.55v21.33h-5.79V372.38q0-4.58-1.95-6.85c-1.3-1.53-3.34-2.29-6.1-2.29-3.63,0-6.28,1.09-8,3.26s-2.53,5.74-2.53,10.69v20h-5.78V359h4.7l.94,5.23h.28a11.41,11.41,0,0,1,4.62-4.35,14.07,14.07,0,0,1,6.68-1.57q9,0,11.71,6.48h.28a12.17,12.17,0,0,1,5-4.74,15.39,15.39,0,0,1,7.39-1.74q6.5,0,9.71,3.33t3.23,10.65v24.92Z" transform="translate(-132.37 -116.87)"/><path class="cls-1" d="M583.47,397.23l-1.15-5.43H582a16.19,16.19,0,0,1-5.7,4.86,17.38,17.38,0,0,1-7.1,1.27c-3.78,0-6.75-1-8.9-2.93s-3.23-4.73-3.23-8.33q0-11.58,18.51-12.13l6.49-.21V372q0-4.5-1.94-6.64T574,363.17a25.24,25.24,0,0,0-10.81,2.93l-1.78-4.43a27.28,27.28,0,0,1,6.19-2.4,26.81,26.81,0,0,1,6.74-.87q6.84,0,10.13,3t3.3,9.73v26.07Zm-13.08-4.07q5.42,0,8.49-3t3.09-8.3v-3.45l-5.79.25q-6.9.24-9.95,2.14a6.46,6.46,0,0,0-3.05,5.91,6,6,0,0,0,1.9,4.78A7.88,7.88,0,0,0,570.39,393.16Z" transform="translate(-132.37 -116.87)"/><path class="cls-1" d="M625.83,397.23V372.52c0-3.12-.71-5.44-2.13-7s-3.64-2.3-6.66-2.3q-6,0-8.78,3.25t-2.79,10.7v20h-5.79V359h4.71l.94,5.23h.28a11.74,11.74,0,0,1,5-4.37,16.13,16.13,0,0,1,7.15-1.55q6.9,0,10.39,3.33t3.49,10.65v24.92Z" transform="translate(-132.37 -116.87)"/></svg>