<?xml version="1.0" encoding="UTF-8"?><svg id="Weiss" xmlns="http://www.w3.org/2000/svg" viewBox="0 0 800.19 297.52"><defs><style>.cls-1{fill:#fff;}</style></defs><path class="cls-1" d="m616.73,34.14c0,18.32-14.85,33.16-33.16,33.16s-33.17-14.85-33.17-33.16S565.24.97,583.57.97s33.16,14.85,33.16,33.16m177.08,170.16c2.41,5.58,3.62,11.99,3.62,19.24,0,8.41-1.35,16.24-4.06,23.48-2.71,7.25-7.27,13.51-13.68,18.8-6.42,5.29-15.01,9.43-25.79,12.43-10.78,3-24.17,4.5-40.16,4.5-4.66,0-8.87-.09-12.62-.25-3.75-.17-7.29-.34-10.62-.5-3.33-.17-6.7-.33-10.12-.5-3.42-.17-7.16-.25-11.24-.25h-131.62c-1.62,0-2.94-1.32-2.94-2.94v-13.4c0-1.42,1.01-2.63,2.4-2.89l17.09-3.18c1.91-.33,3.35-1.1,4.31-2.31.96-1.21,1.44-2.77,1.44-4.68V115.86c0-1.91-.48-3.48-1.44-4.69-.96-1.21-2.39-2.02-4.31-2.43l-17.11-3.29c-1.38-.27-2.38-1.48-2.38-2.89v-13.5c0-1.62,1.31-2.94,2.94-2.94h130.99c7.99,0,15.51-.25,22.55-.75,7.03-.5,14.88-.75,23.55-.75,13.66,0,24.98.98,33.98,2.94,8.99,1.96,16.13,4.85,21.42,8.68,5.29,3.83,8.99,8.62,11.12,14.36,2.12,5.75,3.18,12.41,3.18,19.99,0,12.83-3.18,23.15-9.56,30.98-5.84,7.18-13.46,12.19-22.84,15.03-.51.15-.45.9.09.95,5.82.62,11.31,1.85,16.44,3.7,5.91,2.12,11.01,5.1,15.3,8.93,4.29,3.83,7.64,8.54,10.06,14.11m-148.64-90.5c0-3.39-2.32-6.33-5.62-7.12,0,0-8.33-1.18-19.28.67l-7.23,1.39c-1.92.42-3.35,1.23-4.31,2.43-.96,1.21-1.43,2.77-1.43,4.69v135.85c0,1.92.48,3.48,1.43,4.68.96,1.21,2.1,1.78,4.31,2.31,12.39,3.01,23.23,2.77,26.51,1.98,3.29-.78,5.61-3.73,5.62-7.11V113.8Zm47.48,53.08c0,2.13,1.7,3.86,3.83,3.9,2.22.04,12.44.17,14.77.17,9.16,0,15.82-3.14,19.99-9.43,4.16-6.29,6.25-15.26,6.25-26.92s-2.35-19.78-7.06-24.86c-4.7-5.08-11.93-7.62-21.67-7.62-.67,0-1.75.04-3.25.13-1.5.08-7.59.54-9.33.71-2,.2-3.52,1.88-3.52,3.89v60.03Zm44.64,87.14c5.29-7,7.93-16.74,7.93-29.23s-2.7-21.34-8.12-26.29c-5.42-4.95-13.32-7.43-23.73-7.43-2.83,0-14.51.34-16.92.41-2.12.06-3.8,1.78-3.8,3.9v64.07c0,1.94,1.42,3.58,3.33,3.86,1.5.22,3.17.44,5.09.64,3.46.38,6.85.56,10.18.56,12.07,0,20.75-3.5,26.04-10.49"/><g><path class="cls-1" d="m37.65,123.22c0,4.51-1.62,8.07-4.87,10.66s-7.76,3.9-13.55,3.9c-5.33,0-10.05-1-14.15-3.01v-9.84c3.37,1.5,6.23,2.56,8.56,3.18,2.34.62,4.47.92,6.41.92,2.32,0,4.11-.44,5.35-1.33,1.24-.89,1.86-2.21,1.86-3.96,0-.98-.27-1.85-.82-2.61-.55-.76-1.35-1.5-2.41-2.2-1.06-.71-3.22-1.83-6.48-3.38-3.05-1.44-5.34-2.81-6.87-4.14-1.53-1.32-2.75-2.86-3.66-4.61-.91-1.75-1.37-3.81-1.37-6.15,0-4.42,1.5-7.9,4.49-10.42,3-2.53,7.14-3.79,12.42-3.79,2.6,0,5.08.31,7.43.92s4.82,1.48,7.4,2.6l-3.42,8.24c-2.67-1.09-4.87-1.86-6.61-2.29-1.74-.43-3.46-.65-5.14-.65-2.01,0-3.54.47-4.61,1.4-1.07.93-1.61,2.15-1.61,3.66,0,.93.22,1.75.65,2.44.43.7,1.12,1.37,2.07,2.02.95.65,3.18,1.82,6.72,3.5,4.67,2.23,7.87,4.47,9.6,6.72,1.73,2.24,2.6,5,2.6,8.25Z"/><path class="cls-1" d="m61.98,129.48c1.82,0,4.01-.4,6.56-1.2v7.76c-2.6,1.16-5.79,1.74-9.57,1.74-4.17,0-7.21-1.05-9.11-3.16-1.9-2.11-2.85-5.27-2.85-9.48v-18.42h-4.99v-4.41l5.74-3.49,3.01-8.07h6.67v8.13h10.7v7.83h-10.7v18.42c0,1.48.42,2.58,1.25,3.28.83.71,1.93,1.06,3.3,1.06Z"/><path class="cls-1" d="m97.6,98.17c1.41,0,2.59.1,3.52.31l-.79,9.78c-.84-.23-1.87-.34-3.08-.34-3.33,0-5.92.85-7.78,2.56-1.86,1.71-2.79,4.1-2.79,7.18v19.45h-10.42v-38.21h7.9l1.54,6.43h.51c1.18-2.14,2.79-3.87,4.8-5.18,2.02-1.31,4.21-1.97,6.58-1.97Z"/><path class="cls-1" d="m125.35,137.78c-6.15,0-10.96-1.7-14.42-5.09-3.46-3.4-5.2-8.2-5.2-14.42s1.6-11.35,4.8-14.85c3.2-3.5,7.63-5.25,13.28-5.25s9.6,1.54,12.61,4.61,4.51,7.33,4.51,12.75v5.06h-24.64c.11,2.96.99,5.28,2.63,6.94,1.64,1.66,3.94,2.5,6.9,2.5,2.3,0,4.48-.24,6.53-.72s4.19-1.24,6.43-2.29v8.07c-1.82.91-3.77,1.59-5.84,2.03-2.07.44-4.6.67-7.59.67Zm-1.47-32.2c-2.21,0-3.94.7-5.2,2.1-1.25,1.4-1.97,3.39-2.15,5.96h14.63c-.05-2.57-.72-4.56-2.02-5.96s-3.05-2.1-5.26-2.1Z"/><path class="cls-1" d="m184.69,137.1h-10.42v-22.32c0-2.76-.49-4.82-1.47-6.2-.98-1.38-2.54-2.07-4.68-2.07-2.92,0-5.02.97-6.32,2.92s-1.95,5.18-1.95,9.69v17.98h-10.42v-38.21h7.96l1.4,4.89h.58c1.16-1.85,2.76-3.24,4.8-4.19,2.04-.95,4.36-1.42,6.96-1.42,4.44,0,7.82,1.2,10.12,3.61,2.3,2.4,3.45,5.87,3.45,10.41v24.92Z"/><path class="cls-1" d="m228.68,98.89v5.3l-5.98,1.54c1.09,1.71,1.64,3.62,1.64,5.74,0,4.1-1.43,7.3-4.29,9.59-2.86,2.29-6.83,3.44-11.91,3.44l-1.88-.1-1.54-.17c-1.07.82-1.61,1.73-1.61,2.73,0,1.5,1.91,2.26,5.74,2.26h6.49c4.19,0,7.39.9,9.59,2.7,2.2,1.8,3.3,4.44,3.3,7.93,0,4.47-1.86,7.93-5.59,10.39s-9.07,3.69-16.05,3.69c-5.33,0-9.41-.93-12.22-2.79-2.81-1.86-4.22-4.46-4.22-7.81,0-2.3.72-4.23,2.15-5.78s3.54-2.65,6.32-3.32c-1.07-.46-2.01-1.2-2.8-2.24-.8-1.04-1.2-2.14-1.2-3.3,0-1.46.42-2.67,1.26-3.64.84-.97,2.06-1.92,3.66-2.85-2.01-.87-3.59-2.26-4.77-4.17-1.17-1.91-1.76-4.17-1.76-6.77,0-4.17,1.36-7.39,4.07-9.67,2.71-2.28,6.58-3.42,11.62-3.42,1.07,0,2.34.1,3.81.29,1.47.19,2.41.34,2.82.43h13.33Zm-29.5,43.61c0,1.44.69,2.56,2.07,3.38,1.38.82,3.31,1.23,5.79,1.23,3.74,0,6.67-.51,8.78-1.54s3.18-2.43,3.18-4.2c0-1.44-.63-2.43-1.88-2.97-1.25-.55-3.19-.82-5.81-.82h-5.4c-1.91,0-3.52.45-4.8,1.35-1.29.9-1.93,2.09-1.93,3.57Zm3.79-31.1c0,2.07.47,3.71,1.42,4.92.95,1.21,2.39,1.81,4.32,1.81s3.4-.6,4.31-1.81c.91-1.21,1.37-2.85,1.37-4.92,0-4.6-1.89-6.9-5.67-6.9s-5.74,2.3-5.74,6.9Z"/><path class="cls-1" d="m251.07,129.48c1.82,0,4.01-.4,6.56-1.2v7.76c-2.6,1.16-5.79,1.74-9.57,1.74-4.17,0-7.21-1.05-9.11-3.16-1.9-2.11-2.85-5.27-2.85-9.48v-18.42h-4.99v-4.41l5.74-3.49,3.01-8.07h6.67v8.13h10.7v7.83h-10.7v18.42c0,1.48.42,2.58,1.25,3.28.83.71,1.93,1.06,3.3,1.06Z"/><path class="cls-1" d="m300.63,137.1h-10.42v-22.32c0-5.51-2.05-8.27-6.15-8.27-2.92,0-5.02.99-6.32,2.97s-1.95,5.2-1.95,9.64v17.98h-10.42v-53.18h10.42v10.83c0,.84-.08,2.83-.24,5.95l-.24,3.08h.55c2.32-3.74,6.02-5.61,11.07-5.61,4.49,0,7.9,1.21,10.22,3.62,2.32,2.42,3.49,5.88,3.49,10.39v24.92Z"/><path class="cls-1" d="m328.65,137.78c-6.15,0-10.96-1.7-14.42-5.09-3.46-3.4-5.2-8.2-5.2-14.42s1.6-11.35,4.8-14.85c3.2-3.5,7.63-5.25,13.28-5.25s9.6,1.54,12.61,4.61,4.51,7.33,4.51,12.75v5.06h-24.64c.11,2.96.99,5.28,2.63,6.94,1.64,1.66,3.94,2.5,6.9,2.5,2.3,0,4.48-.24,6.53-.72s4.19-1.24,6.43-2.29v8.07c-1.82.91-3.77,1.59-5.84,2.03-2.07.44-4.6.67-7.59.67Zm-1.47-32.2c-2.21,0-3.94.7-5.2,2.1-1.25,1.4-1.97,3.39-2.15,5.96h14.63c-.05-2.57-.72-4.56-2.02-5.96s-3.05-2.1-5.26-2.1Z"/><path class="cls-1" d="m387.99,137.1h-10.42v-22.32c0-2.76-.49-4.82-1.47-6.2-.98-1.38-2.54-2.07-4.68-2.07-2.92,0-5.02.97-6.32,2.92s-1.95,5.18-1.95,9.69v17.98h-10.42v-38.21h7.96l1.4,4.89h.58c1.16-1.85,2.76-3.24,4.8-4.19,2.04-.95,4.36-1.42,6.96-1.42,4.44,0,7.82,1.2,10.12,3.61,2.3,2.4,3.45,5.87,3.45,10.41v24.92Z"/><path class="cls-1" d="m398.28,89.01c0-3.4,1.89-5.09,5.67-5.09s5.67,1.7,5.67,5.09c0,1.62-.47,2.88-1.42,3.78-.95.9-2.36,1.35-4.26,1.35-3.78,0-5.67-1.71-5.67-5.13Zm10.87,48.09h-10.42v-38.21h10.42v38.21Z"/><path class="cls-1" d="m455.36,137.1h-10.42v-22.32c0-2.76-.49-4.82-1.47-6.2-.98-1.38-2.54-2.07-4.68-2.07-2.92,0-5.02.97-6.32,2.92s-1.95,5.18-1.95,9.69v17.98h-10.42v-38.21h7.96l1.4,4.89h.58c1.16-1.85,2.76-3.24,4.8-4.19,2.04-.95,4.36-1.42,6.96-1.42,4.44,0,7.82,1.2,10.12,3.61,2.3,2.4,3.45,5.87,3.45,10.41v24.92Z"/><path class="cls-1" d="m499.35,98.89v5.3l-5.98,1.54c1.09,1.71,1.64,3.62,1.64,5.74,0,4.1-1.43,7.3-4.29,9.59-2.86,2.29-6.83,3.44-11.91,3.44l-1.88-.1-1.54-.17c-1.07.82-1.61,1.73-1.61,2.73,0,1.5,1.91,2.26,5.74,2.26h6.49c4.19,0,7.39.9,9.59,2.7,2.2,1.8,3.3,4.44,3.3,7.93,0,4.47-1.86,7.93-5.59,10.39-3.73,2.46-9.08,3.69-16.05,3.69-5.33,0-9.41-.93-12.22-2.79-2.81-1.86-4.22-4.46-4.22-7.81,0-2.3.72-4.23,2.15-5.78s3.54-2.65,6.32-3.32c-1.07-.46-2.01-1.2-2.8-2.24-.8-1.04-1.2-2.14-1.2-3.3,0-1.46.42-2.67,1.26-3.64.84-.97,2.06-1.92,3.66-2.85-2.01-.87-3.59-2.26-4.77-4.17s-1.76-4.17-1.76-6.77c0-4.17,1.36-7.39,4.07-9.67,2.71-2.28,6.58-3.42,11.62-3.42,1.07,0,2.34.1,3.81.29,1.47.19,2.41.34,2.82.43h13.33Zm-29.5,43.61c0,1.44.69,2.56,2.07,3.38,1.38.82,3.31,1.23,5.79,1.23,3.74,0,6.67-.51,8.78-1.54s3.18-2.43,3.18-4.2c0-1.44-.63-2.43-1.88-2.97-1.25-.55-3.19-.82-5.81-.82h-5.4c-1.91,0-3.52.45-4.8,1.35-1.29.9-1.93,2.09-1.93,3.57Zm3.79-31.1c0,2.07.47,3.71,1.42,4.92.94,1.21,2.39,1.81,4.32,1.81s3.39-.6,4.31-1.81c.91-1.21,1.37-2.85,1.37-4.92,0-4.6-1.89-6.9-5.67-6.9s-5.74,2.3-5.74,6.9Z"/><path class="cls-1" d="m63.59,159.13h14.12c6.63,0,11.43.99,14.39,2.97,2.96,1.98,4.44,5.12,4.44,9.4,0,2.96-.83,5.41-2.48,7.33-1.65,1.93-4.06,3.17-7.23,3.74v.34c7.59,1.3,11.38,5.29,11.38,11.96,0,4.47-1.51,7.95-4.53,10.46-3.02,2.51-7.24,3.76-12.66,3.76h-17.43v-49.97Zm5.81,21.4h9.57c4.1,0,7.05-.64,8.85-1.93,1.8-1.29,2.7-3.46,2.7-6.51,0-2.8-1-4.82-3.01-6.07-2.01-1.24-5.2-1.86-9.57-1.86h-8.54v16.37Zm0,4.92v18.7h10.42c4.03,0,7.07-.78,9.11-2.34,2.04-1.56,3.06-4,3.06-7.33,0-3.1-1.04-5.38-3.13-6.84-2.08-1.46-5.26-2.19-9.52-2.19h-9.95Z"/><path class="cls-1" d="m123.92,209.78c-5.54,0-9.91-1.69-13.11-5.06-3.2-3.37-4.8-8.05-4.8-14.05s1.49-10.83,4.46-14.39,6.97-5.33,11.98-5.33c4.69,0,8.41,1.54,11.14,4.63,2.73,3.09,4.1,7.16,4.1,12.22v3.59h-25.81c.11,4.4,1.22,7.74,3.33,10.01,2.11,2.28,5.08,3.42,8.9,3.42,4.03,0,8.02-.84,11.96-2.53v5.06c-2.01.87-3.9,1.49-5.69,1.86-1.79.38-3.95.56-6.48.56Zm-1.54-34.08c-3.01,0-5.41.98-7.19,2.94-1.79,1.96-2.84,4.67-3.16,8.13h19.58c0-3.58-.8-6.32-2.39-8.22-1.6-1.9-3.87-2.85-6.84-2.85Z"/><path class="cls-1" d="m146.89,161.49c0-1.3.32-2.25.96-2.85.64-.6,1.44-.91,2.39-.91s1.7.31,2.36.92c.66.62.99,1.56.99,2.84s-.33,2.23-.99,2.85c-.66.63-1.45.94-2.36.94-.96,0-1.75-.31-2.39-.94-.64-.63-.96-1.58-.96-2.85Zm6.15,47.61h-5.67v-37.46h5.67v37.46Z"/><path class="cls-1" d="m190.7,209.1v-24.23c0-3.05-.7-5.33-2.08-6.84-1.39-1.5-3.57-2.26-6.53-2.26-3.92,0-6.79,1.06-8.61,3.18-1.82,2.12-2.73,5.62-2.73,10.49v19.65h-5.67v-37.46h4.61l.92,5.13h.27c1.16-1.85,2.79-3.28,4.89-4.29,2.1-1.01,4.43-1.52,7.01-1.52,4.51,0,7.91,1.09,10.19,3.26,2.28,2.18,3.42,5.66,3.42,10.44v24.44h-5.67Z"/><path class="cls-1" d="m238.69,171.64v3.59l-6.94.82c.64.8,1.21,1.84,1.71,3.13.5,1.29.75,2.74.75,4.36,0,3.67-1.25,6.6-3.76,8.78-2.51,2.19-5.95,3.28-10.32,3.28-1.12,0-2.17-.09-3.14-.27-2.42,1.28-3.62,2.88-3.62,4.82,0,1.03.42,1.78,1.26,2.27.84.49,2.29.73,4.34.73h6.63c4.06,0,7.17.85,9.35,2.56,2.18,1.71,3.26,4.19,3.26,7.45,0,4.15-1.66,7.31-4.99,9.49-3.33,2.17-8.18,3.26-14.56,3.26-4.9,0-8.68-.91-11.33-2.73-2.65-1.82-3.98-4.4-3.98-7.72,0-2.28.73-4.25,2.19-5.91,1.46-1.66,3.51-2.79,6.15-3.38-.96-.43-1.76-1.1-2.41-2.02-.65-.91-.97-1.97-.97-3.18,0-1.37.36-2.56,1.09-3.59.73-1.03,1.88-2.02,3.45-2.97-1.94-.8-3.52-2.15-4.73-4.07-1.22-1.91-1.83-4.1-1.83-6.56,0-4.1,1.23-7.26,3.69-9.49,2.46-2.22,5.95-3.33,10.46-3.33,1.96,0,3.73.23,5.3.68h12.95Zm-29.87,43.75c0,2.03.85,3.57,2.56,4.61,1.71,1.05,4.16,1.57,7.35,1.57,4.76,0,8.29-.71,10.58-2.14,2.29-1.42,3.44-3.36,3.44-5.79,0-2.03-.63-3.43-1.88-4.22-1.25-.79-3.61-1.18-7.08-1.18h-6.8c-2.58,0-4.58.62-6.02,1.85s-2.15,3-2.15,5.3Zm3.08-31.75c0,2.62.74,4.6,2.22,5.95,1.48,1.34,3.54,2.02,6.19,2.02,5.54,0,8.31-2.69,8.31-8.07s-2.8-8.44-8.41-8.44c-2.67,0-4.72.72-6.15,2.15s-2.15,3.57-2.15,6.39Z"/><path class="cls-1" d="m303.36,209.1h-5.81v-23.52h-26.32v23.52h-5.81v-49.97h5.81v21.26h26.32v-21.26h5.81v49.97Z"/><path class="cls-1" d="m321.54,171.64v24.3c0,3.05.69,5.33,2.08,6.84,1.39,1.5,3.57,2.26,6.53,2.26,3.92,0,6.78-1.07,8.6-3.21,1.81-2.14,2.72-5.64,2.72-10.49v-19.69h5.67v37.46h-4.68l-.82-5.02h-.31c-1.16,1.85-2.77,3.26-4.84,4.24-2.06.98-4.42,1.47-7.06,1.47-4.56,0-7.97-1.08-10.24-3.25-2.27-2.16-3.4-5.63-3.4-10.39v-24.51h5.74Z"/><path class="cls-1" d="m406.93,209.1v-24.37c0-2.98-.64-5.22-1.91-6.72-1.28-1.49-3.26-2.24-5.95-2.24-3.53,0-6.14,1.01-7.83,3.04-1.69,2.03-2.53,5.15-2.53,9.37v20.92h-5.67v-24.37c0-2.98-.64-5.22-1.91-6.72-1.28-1.49-3.27-2.24-5.98-2.24-3.55,0-6.16,1.07-7.81,3.2-1.65,2.13-2.48,5.62-2.48,10.48v19.65h-5.67v-37.46h4.61l.92,5.13h.27c1.07-1.82,2.58-3.25,4.53-4.27s4.13-1.54,6.55-1.54c5.86,0,9.68,2.12,11.48,6.36h.27c1.12-1.96,2.73-3.51,4.85-4.65,2.12-1.14,4.53-1.71,7.25-1.71,4.24,0,7.41,1.09,9.52,3.26,2.11,2.18,3.16,5.66,3.16,10.44v24.44h-5.67Z"/><path class="cls-1" d="m447.33,209.1l-1.13-5.33h-.27c-1.87,2.35-3.73,3.94-5.59,4.77-1.86.83-4.18,1.25-6.96,1.25-3.71,0-6.63-.96-8.73-2.87-2.11-1.91-3.16-4.64-3.16-8.17,0-7.56,6.05-11.53,18.15-11.89l6.36-.21v-2.32c0-2.94-.63-5.11-1.9-6.51-1.26-1.4-3.29-2.1-6.07-2.1-3.12,0-6.65.96-10.6,2.87l-1.74-4.34c1.85-1,3.87-1.79,6.07-2.36,2.2-.57,4.4-.85,6.61-.85,4.47,0,7.78.99,9.93,2.97s3.23,5.16,3.23,9.54v25.57h-4.2Zm-12.82-4c3.53,0,6.31-.97,8.32-2.91,2.02-1.94,3.02-4.65,3.02-8.13v-3.38l-5.67.24c-4.51.16-7.76.86-9.76,2.1-1.99,1.24-2.99,3.17-2.99,5.79,0,2.05.62,3.61,1.86,4.68,1.24,1.07,2.98,1.61,5.21,1.61Z"/><path class="cls-1" d="m488.85,209.1v-24.23c0-3.05-.7-5.33-2.08-6.84-1.39-1.5-3.57-2.26-6.53-2.26-3.92,0-6.79,1.06-8.61,3.18-1.82,2.12-2.73,5.62-2.73,10.49v19.65h-5.67v-37.46h4.61l.92,5.13h.27c1.16-1.85,2.79-3.28,4.89-4.29,2.1-1.01,4.43-1.52,7.01-1.52,4.51,0,7.91,1.09,10.19,3.26,2.28,2.18,3.42,5.66,3.42,10.44v24.44h-5.67Z"/></g><g><path class="cls-1" d="m146.06,273.77v-42.5h4.94v42.5h-4.94Z"/><path class="cls-1" d="m162.65,231.28h12c5.64,0,9.72.84,12.24,2.53,2.52,1.69,3.78,4.35,3.78,7.99,0,2.52-.7,4.6-2.11,6.23-1.41,1.64-3.45,2.7-6.15,3.18v.29c6.45,1.1,9.68,4.5,9.68,10.17,0,3.8-1.28,6.76-3.85,8.89-2.57,2.13-6.16,3.2-10.77,3.2h-14.82v-42.5Zm4.94,18.2h8.14c3.49,0,6-.55,7.53-1.64s2.3-2.94,2.3-5.54c0-2.38-.85-4.1-2.56-5.16-1.71-1.06-4.42-1.58-8.14-1.58h-7.27v13.92Zm0,4.19v15.9h8.87c3.43,0,6.01-.66,7.75-1.99,1.73-1.33,2.6-3.41,2.6-6.23,0-2.63-.89-4.57-2.66-5.81-1.77-1.24-4.47-1.86-8.1-1.86h-8.46Z"/><path class="cls-1" d="m224.91,273.77h-23.69v-42.5h23.69v4.39h-18.75v13.69h17.61v4.36h-17.61v15.64h18.75v4.42Z"/><path class="cls-1" d="m247.41,273.77h-4.94v-38.11h-13.46v-4.39h31.86v4.39h-13.46v38.11Z"/><path class="cls-1" d="m298.04,273.77h-4.94v-20h-22.38v20h-4.94v-42.5h4.94v18.08h22.38v-18.08h4.94v42.5Z"/><path class="cls-1" d="m343.85,251.51h14.45v20.67c-2.25.72-4.53,1.26-6.86,1.63-2.33.37-5.02.55-8.08.55-6.43,0-11.44-1.91-15.03-5.74-3.59-3.83-5.38-9.19-5.38-16.09,0-4.42.89-8.29,2.66-11.61s4.33-5.86,7.66-7.62c3.33-1.75,7.24-2.63,11.71-2.63s8.76.83,12.67,2.5l-1.92,4.36c-3.84-1.63-7.53-2.44-11.07-2.44-5.17,0-9.21,1.54-12.12,4.62s-4.36,7.35-4.36,12.82c0,5.74,1.4,10.09,4.2,13.05,2.8,2.96,6.91,4.45,12.34,4.45,2.95,0,5.82-.34,8.63-1.02v-13.08h-9.5v-4.42Z"/><path class="cls-1" d="m408.37,273.77v-20.72c0-2.54-.54-4.44-1.63-5.71-1.09-1.27-2.77-1.9-5.06-1.9-3,0-5.22.86-6.66,2.59-1.43,1.73-2.15,4.38-2.15,7.96v17.79h-4.83v-20.72c0-2.54-.54-4.44-1.63-5.71-1.09-1.27-2.78-1.9-5.09-1.9-3.02,0-5.24.91-6.64,2.72-1.41,1.81-2.11,4.78-2.11,8.91v16.71h-4.82v-31.86h3.92l.78,4.36h.23c.91-1.55,2.19-2.76,3.85-3.63s3.51-1.31,5.57-1.31c4.98,0,8.24,1.8,9.77,5.41h.23c.95-1.67,2.33-2.98,4.13-3.95s3.86-1.45,6.16-1.45c3.6,0,6.3.92,8.09,2.78,1.79,1.85,2.69,4.81,2.69,8.88v20.78h-4.82Z"/><path class="cls-1" d="m437.96,241.39c4.19,0,7.44,1.43,9.75,4.29,2.32,2.86,3.47,6.9,3.47,12.14s-1.17,9.3-3.5,12.19c-2.34,2.9-5.58,4.34-9.72,4.34-2.07,0-3.97-.38-5.68-1.15-1.71-.77-3.15-1.94-4.32-3.53h-.35l-1.02,4.1h-3.46v-45.23h4.82v10.99c0,2.46-.08,4.67-.23,6.63h.23c2.25-3.18,5.58-4.77,10-4.77Zm-.7,4.04c-3.29,0-5.67.95-7.12,2.83-1.45,1.89-2.18,5.07-2.18,9.55s.75,7.68,2.24,9.61c1.49,1.93,3.88,2.89,7.18,2.89,2.96,0,5.17-1.08,6.63-3.24,1.45-2.16,2.18-5.26,2.18-9.32s-.73-7.24-2.18-9.27c-1.45-2.04-3.7-3.05-6.74-3.05Z"/><path class="cls-1" d="m492.61,273.77h-4.94v-20h-22.38v20h-4.94v-42.5h4.94v18.08h22.38v-18.08h4.94v42.5Z"/></g></svg>