<?xml version="1.0" encoding="utf-8"?>
<!-- Generator: Adobe Illustrator 27.1.0, SVG Export Plug-In . SVG Version: 6.00 Build 0)  -->
<svg version="1.1" id="Ebene_1" xmlns="http://www.w3.org/2000/svg" xmlns:xlink="http://www.w3.org/1999/xlink" x="0px" y="0px"
	 viewBox="0 0 677.51 178.56" style="enable-background:new 0 0 677.51 178.56;" xml:space="preserve">
<style type="text/css">
	.st0{fill:#009DDF;}
	.st1{fill:#005590;}
</style>
<path class="st0" d="M43.78,18.63c0,9.36-7.59,16.95-16.95,16.95c-9.36,0-16.96-7.59-16.96-16.95c0-9.36,7.59-16.95,16.96-16.95
	C36.19,1.68,43.78,9.27,43.78,18.63 M134.3,105.61c1.23,2.85,1.85,6.13,1.85,9.83c0,4.3-0.69,8.3-2.07,12
	c-1.38,3.7-3.72,6.91-6.99,9.61c-3.28,2.7-7.67,4.82-13.18,6.35c-5.51,1.53-12.35,2.3-20.53,2.3c-2.38,0-4.53-0.04-6.45-0.13
	c-1.92-0.09-3.73-0.17-5.43-0.26c-1.7-0.08-3.43-0.17-5.17-0.25c-1.75-0.09-3.66-0.13-5.75-0.13H3.3c-0.83,0-1.5-0.67-1.5-1.5v-6.85
	c0-0.72,0.52-1.34,1.23-1.48l8.73-1.62c0.98-0.17,1.71-0.56,2.2-1.18c0.49-0.62,0.73-1.42,0.73-2.39V60.41
	c0-0.98-0.25-1.78-0.73-2.4c-0.49-0.62-1.22-1.03-2.2-1.24l-8.74-1.68c-0.71-0.14-1.22-0.75-1.22-1.48v-6.9c0-0.83,0.67-1.5,1.5-1.5
	h66.96c4.09,0,7.93-0.13,11.53-0.38c3.6-0.26,7.61-0.38,12.04-0.38c6.98,0,12.77,0.5,17.37,1.5c4.6,1,8.25,2.48,10.95,4.44
	c2.7,1.96,4.6,4.41,5.68,7.34c1.09,2.94,1.63,6.34,1.63,10.22c0,6.56-1.63,11.84-4.89,15.84c-2.99,3.67-6.88,6.23-11.68,7.68
	c-0.26,0.08-0.23,0.46,0.05,0.49c2.98,0.32,5.78,0.95,8.41,1.89c3.02,1.09,5.63,2.61,7.82,4.56
	C131.35,100.36,133.06,102.76,134.3,105.61 M58.32,59.35c0-1.73-1.19-3.24-2.87-3.64c0,0-4.26-0.6-9.86,0.34l-3.7,0.71
	c-0.98,0.21-1.71,0.63-2.2,1.24c-0.49,0.62-0.73,1.42-0.73,2.4v69.44c0,0.98,0.24,1.78,0.73,2.39c0.49,0.62,1.07,0.91,2.2,1.18
	c6.33,1.54,11.87,1.41,13.55,1.01c1.68-0.4,2.87-1.91,2.87-3.64v-0.1V68.59v-8.57V59.35z M82.59,86.48c0,1.09,0.87,1.97,1.96,1.99
	c1.14,0.02,6.36,0.09,7.55,0.09c4.68,0,8.09-1.61,10.22-4.82c2.13-3.21,3.19-7.8,3.19-13.76c0-5.87-1.2-10.11-3.61-12.71
	c-2.4-2.6-6.1-3.9-11.08-3.9c-0.34,0-0.89,0.02-1.66,0.06c-0.77,0.04-3.88,0.28-4.77,0.36c-1.02,0.1-1.8,0.96-1.8,1.99V86.48z
	 M105.41,131.02c2.7-3.58,4.05-8.56,4.05-14.94c0-6.43-1.38-10.91-4.15-13.44c-2.77-2.53-6.81-3.8-12.13-3.8
	c-1.45,0-7.42,0.17-8.65,0.21c-1.08,0.03-1.94,0.91-1.94,1.99v32.75c0,0.99,0.72,1.83,1.7,1.97c0.77,0.11,1.62,0.22,2.6,0.33
	c1.77,0.19,3.5,0.29,5.2,0.29C98.26,136.39,102.7,134.6,105.41,131.02"/>
<g>
	<path class="st1" d="M243.36,118.3c0,8.81-3.19,15.67-9.58,20.6c-6.39,4.93-15.06,7.39-26.01,7.39c-11.86,0-20.99-1.53-27.38-4.58
		v-11.22c4.11,1.73,8.58,3.1,13.41,4.11c4.84,1,9.63,1.51,14.37,1.51c7.76,0,13.6-1.47,17.52-4.41c3.92-2.94,5.89-7.04,5.89-12.29
		c0-3.47-0.7-6.31-2.09-8.52c-1.39-2.21-3.72-4.25-6.98-6.12c-3.26-1.87-8.22-3.99-14.89-6.37c-9.31-3.33-15.96-7.28-19.95-11.84
		c-3.99-4.56-5.99-10.52-5.99-17.86c0-7.71,2.9-13.85,8.69-18.41c5.79-4.56,13.46-6.84,23-6.84c9.95,0,19.1,1.83,27.44,5.48
		l-3.63,10.13c-8.26-3.47-16.29-5.2-24.09-5.2c-6.16,0-10.97,1.32-14.44,3.97c-3.47,2.65-5.2,6.32-5.2,11.02
		c0,3.47,0.64,6.31,1.92,8.52c1.28,2.21,3.43,4.24,6.47,6.09c3.03,1.85,7.68,3.89,13.93,6.13c10.49,3.74,17.71,7.76,21.66,12.05
		C241.39,105.89,243.36,111.46,243.36,118.3z"/>
	<path class="st1" d="M286.34,136.92c2.01,0,3.95-0.15,5.82-0.44c1.87-0.3,3.35-0.6,4.45-0.92v8.69c-1.23,0.59-3.05,1.08-5.44,1.47
		s-4.55,0.58-6.47,0.58c-14.51,0-21.76-7.64-21.76-22.93V78.74h-10.75v-5.48l10.75-4.72l4.79-16.01h6.57v17.38h21.76v8.83H274.3
		v44.14c0,4.52,1.07,7.99,3.22,10.4C279.66,135.71,282.6,136.92,286.34,136.92z"/>
	<path class="st1" d="M310.64,49.59c0-2.6,0.64-4.51,1.92-5.71c1.28-1.21,2.87-1.81,4.79-1.81c1.82,0,3.4,0.62,4.72,1.85
		c1.32,1.23,1.98,3.13,1.98,5.68c0,2.56-0.66,4.46-1.98,5.71c-1.32,1.26-2.9,1.88-4.72,1.88c-1.92,0-3.51-0.63-4.79-1.88
		C311.28,54.05,310.64,52.14,310.64,49.59z M322.96,144.92H311.6V69.91h11.36V144.92z"/>
	<path class="st1" d="M380.86,78.74h-19.09v66.18h-11.36V78.74h-13.42v-5.13l13.42-4.11v-4.17c0-18.43,8.05-27.65,24.16-27.65
		c3.97,0,8.62,0.8,13.96,2.4l-2.94,9.1c-4.38-1.41-8.12-2.12-11.22-2.12c-4.29,0-7.46,1.43-9.51,4.28
		c-2.05,2.85-3.08,7.43-3.08,13.72v4.86h19.09V78.74z"/>
	<path class="st1" d="M418.78,136.92c2.01,0,3.95-0.15,5.82-0.44c1.87-0.3,3.35-0.6,4.45-0.92v8.69c-1.23,0.59-3.05,1.08-5.44,1.47
		c-2.39,0.39-4.55,0.58-6.47,0.58c-14.51,0-21.76-7.64-21.76-22.93V78.74h-10.75v-5.48l10.75-4.72l4.79-16.01h6.57v17.38h21.76v8.83
		h-21.76v44.14c0,4.52,1.07,7.99,3.22,10.4C412.09,135.71,415.04,136.92,418.78,136.92z"/>
	<path class="st1" d="M454.71,69.91v48.66c0,6.12,1.39,10.68,4.17,13.69c2.78,3.01,7.14,4.52,13.07,4.52
		c7.85,0,13.59-2.14,17.21-6.43c3.63-4.29,5.44-11.29,5.44-21.01V69.91h11.36v75.01h-9.38l-1.64-10.06h-0.62
		c-2.33,3.7-5.56,6.53-9.68,8.49c-4.13,1.96-8.84,2.94-14.13,2.94c-9.13,0-15.96-2.17-20.5-6.5c-4.54-4.33-6.81-11.27-6.81-20.81
		V69.91H454.71z"/>
	<path class="st1" d="M581.4,144.92V96.4c0-6.11-1.39-10.68-4.17-13.69c-2.78-3.01-7.14-4.52-13.07-4.52
		c-7.85,0-13.6,2.12-17.25,6.37s-5.47,11.25-5.47,21.01v39.35h-11.36V69.91h9.24l1.85,10.27h0.55c2.33-3.7,5.59-6.56,9.79-8.59
		c4.2-2.03,8.87-3.05,14.03-3.05c9.03,0,15.83,2.18,20.4,6.54c4.56,4.36,6.84,11.33,6.84,20.91v48.94H581.4z"/>
	<path class="st1" d="M677.49,69.91v7.19l-13.89,1.64c1.28,1.6,2.42,3.69,3.42,6.26c1,2.58,1.51,5.49,1.51,8.73
		c0,7.35-2.51,13.21-7.53,17.59c-5.02,4.38-11.91,6.57-20.67,6.57c-2.24,0-4.34-0.18-6.3-0.55c-4.84,2.56-7.25,5.77-7.25,9.65
		c0,2.05,0.84,3.57,2.53,4.55c1.69,0.98,4.59,1.47,8.69,1.47h13.28c8.12,0,14.36,1.71,18.72,5.13c4.36,3.42,6.54,8.4,6.54,14.92
		c0,8.3-3.33,14.63-9.99,18.99c-6.66,4.36-16.38,6.54-29.16,6.54c-9.81,0-17.37-1.83-22.69-5.47c-5.32-3.65-7.97-8.81-7.97-15.47
		c0-4.56,1.46-8.51,4.38-11.84c2.92-3.33,7.03-5.59,12.32-6.78c-1.92-0.87-3.53-2.21-4.83-4.04c-1.3-1.83-1.95-3.95-1.95-6.37
		c0-2.74,0.73-5.13,2.19-7.19c1.46-2.05,3.76-4.04,6.91-5.95c-3.88-1.6-7.04-4.31-9.48-8.14c-2.44-3.83-3.66-8.21-3.66-13.14
		c0-8.21,2.46-14.54,7.39-18.99c4.93-4.45,11.91-6.67,20.94-6.67c3.92,0,7.46,0.46,10.61,1.37H677.49z M617.67,157.52
		c0,4.06,1.71,7.14,5.13,9.24c3.42,2.1,8.33,3.15,14.71,3.15c9.54,0,16.6-1.43,21.18-4.28c4.59-2.85,6.88-6.72,6.88-11.6
		c0-4.06-1.26-6.88-3.76-8.45c-2.51-1.57-7.23-2.36-14.17-2.36h-13.62c-5.16,0-9.17,1.23-12.05,3.7
		C619.11,149.37,617.67,152.91,617.67,157.52z M623.83,93.94c0,5.25,1.48,9.22,4.45,11.91c2.96,2.69,7.09,4.04,12.39,4.04
		c11.09,0,16.63-5.38,16.63-16.15c0-11.27-5.61-16.9-16.84-16.9c-5.34,0-9.45,1.44-12.32,4.31
		C625.27,84.01,623.83,88.28,623.83,93.94z"/>
</g>
</svg>
