<?xml version="1.0" encoding="UTF-8"?><svg id="Ebene_1" xmlns="http://www.w3.org/2000/svg" viewBox="0 0 32 32"><defs><style>.cls-1{fill:#2b7bbc;}</style></defs><path class="cls-1" d="m6.36,26.51V5.49h10.27c2.64,0,4.63.5,5.96,1.5,1.33,1,2,2.32,2,3.97,0,1.1-.27,2.06-.81,2.87-.54.81-1.29,1.44-2.24,1.88-.95.44-2.03.66-3.23.66l.57-1.26c1.32,0,2.49.22,3.5.66s1.81,1.08,2.39,1.92c.58.84.87,1.87.87,3.09,0,1.8-.71,3.21-2.13,4.22-1.42,1.01-3.51,1.52-6.28,1.52H6.36Zm4.84-3.66h5.71c1.24,0,2.19-.21,2.85-.63.66-.42.99-1.07.99-1.95s-.33-1.56-.99-1.98c-.66-.42-1.61-.63-2.85-.63h-6.07v-3.55h5.2c1.18,0,2.09-.2,2.72-.61s.95-1.04.95-1.88-.31-1.46-.95-1.86c-.63-.4-1.54-.6-2.72-.6h-4.83v13.69Z"/></svg>