<?xml version="1.0" encoding="utf-8"?>
<!-- Generator: Adobe Illustrator 27.1.0, SVG Export Plug-In . SVG Version: 6.00 Build 0)  -->
<svg version="1.1" id="Ebene_1" xmlns="http://www.w3.org/2000/svg" xmlns:xlink="http://www.w3.org/1999/xlink" x="0px" y="0px"
	 viewBox="0 0 453.5 113.4" style="enable-background:new 0 0 453.5 113.4;" xml:space="preserve">
<style type="text/css">
	.st0{fill:#565555;}
	.st1{font-family:'MyriadPro-BoldCond';}
	.st2{font-size:19px;}
	.st3{fill:#2B7BBC;}
</style>
<text transform="matrix(1 0 0 1 382.778 64.9618)" class="st0 st1 st2"> </text>
<g>
	<g>
		<g>
			<path class="st3" d="M17.1,91.6V32.8h28.7c7.4,0,13,1.4,16.7,4.2s5.6,6.5,5.6,11.1c0,3.1-0.8,5.8-2.3,8c-1.5,2.3-3.6,4-6.3,5.2
				c-2.7,1.2-5.7,1.8-9,1.8l1.6-3.5c3.7,0,7,0.6,9.8,1.8s5.1,3,6.7,5.4c1.6,2.3,2.4,5.2,2.4,8.7c0,5-2,9-6,11.8
				c-4,2.8-9.8,4.2-17.6,4.2H17.1z M30.6,81.3h16c3.5,0,6.1-0.6,8-1.8c1.8-1.2,2.8-3,2.8-5.5c0-2.5-0.9-4.4-2.8-5.5
				c-1.8-1.2-4.5-1.8-8-1.8h-17v-9.9h14.5c3.3,0,5.8-0.6,7.6-1.7s2.7-2.9,2.7-5.2s-0.9-4.1-2.7-5.2C50,43.6,47.4,43,44.1,43H30.6
				V81.3z"/>
			<path class="st3" d="M89.4,91.6l-19-45.2h13.4l15.8,38.9h-6.7l16.5-38.9h12.5l-19.1,45.2H89.4z"/>
			<path class="st3" d="M124.9,91.6V32.8h28.7c7.4,0,12.9,1.4,16.7,4.2s5.6,6.5,5.6,11.1c0,3.1-0.8,5.8-2.3,8
				c-1.5,2.3-3.6,4-6.3,5.2c-2.7,1.2-5.7,1.8-9,1.8l1.6-3.5c3.7,0,7,0.6,9.8,1.8c2.8,1.2,5.1,3,6.7,5.4c1.6,2.3,2.4,5.2,2.4,8.7
				c0,5-2,9-6,11.8c-4,2.8-9.8,4.2-17.6,4.2H124.9z M138.4,81.3h16c3.5,0,6.1-0.6,8-1.8c1.9-1.2,2.8-3,2.8-5.5
				c0-2.5-0.9-4.4-2.8-5.5c-1.9-1.2-4.5-1.8-8-1.8h-17v-9.9H152c3.3,0,5.8-0.6,7.6-1.7c1.8-1.2,2.6-2.9,2.6-5.2s-0.9-4.1-2.6-5.2
				c-1.8-1.1-4.3-1.7-7.6-1.7h-13.5V81.3z"/>
			<path class="st3" d="M185.8,91.6V32.8h28.7c7.4,0,12.9,1.4,16.7,4.2s5.6,6.5,5.6,11.1c0,3.1-0.8,5.8-2.3,8
				c-1.5,2.3-3.6,4-6.3,5.2c-2.7,1.2-5.7,1.8-9,1.8l1.6-3.5c3.7,0,7,0.6,9.8,1.8c2.8,1.2,5.1,3,6.7,5.4c1.6,2.3,2.4,5.2,2.4,8.7
				c0,5-2,9-6,11.8c-4,2.8-9.8,4.2-17.6,4.2H185.8z M199.4,81.3h16c3.5,0,6.1-0.6,8-1.8c1.9-1.2,2.8-3,2.8-5.5
				c0-2.5-0.9-4.4-2.8-5.5c-1.9-1.2-4.5-1.8-8-1.8h-17v-9.9h14.5c3.3,0,5.8-0.6,7.6-1.7c1.8-1.2,2.6-2.9,2.6-5.2s-0.9-4.1-2.6-5.2
				c-1.8-1.1-4.3-1.7-7.6-1.7h-13.5V81.3z"/>
			<path class="st3" d="M246.8,91.6V32.8h13.7v58.8H246.8z"/>
		</g>
	</g>
</g>
<g>
	<g>
		<path class="st3" d="M272.8,46.9V33.6h6.5c1.7,0,2.9,0.3,3.8,1s1.3,1.5,1.3,2.5c0,0.7-0.2,1.3-0.5,1.8s-0.8,0.9-1.4,1.2
			c-0.6,0.3-1.3,0.4-2,0.4l0.4-0.8c0.8,0,1.6,0.1,2.2,0.4s1.1,0.7,1.5,1.2s0.5,1.2,0.5,2c0,1.1-0.5,2-1.4,2.7c-0.9,0.6-2.2,1-4,1
			L272.8,46.9L272.8,46.9z M275.8,44.6h3.6c0.8,0,1.4-0.1,1.8-0.4c0.4-0.3,0.6-0.7,0.6-1.2c0-0.6-0.2-1-0.6-1.2s-1-0.4-1.8-0.4h-3.8
			V39h3.3c0.8,0,1.3-0.1,1.7-0.4s0.6-0.7,0.6-1.2s-0.2-0.9-0.6-1.2c-0.4-0.2-1-0.4-1.7-0.4h-3.1V44.6z"/>
		<path class="st3" d="M291.4,47c-0.9,0-1.6-0.2-2.3-0.5c-0.7-0.3-1.2-0.8-1.5-1.5s-0.5-1.5-0.5-2.6v-5.8h3V42
			c0,0.9,0.2,1.5,0.5,1.9c0.4,0.4,0.9,0.6,1.5,0.6c0.5,0,0.9-0.1,1.2-0.3c0.4-0.2,0.6-0.5,0.9-0.9s0.3-0.9,0.3-1.5v-5.1h3v10.2h-2.8
			v-2.8l0.5,0.8c-0.4,0.7-0.9,1.2-1.5,1.6S292.2,47,291.4,47z"/>
		<path class="st3" d="M306.4,36.5c0.8,0,1.5,0.2,2.2,0.5s1.1,0.8,1.5,1.5s0.5,1.5,0.5,2.6v5.8h-3v-5.4c0-0.8-0.2-1.4-0.5-1.8
			c-0.4-0.4-0.9-0.6-1.5-0.6c-0.5,0-0.9,0.1-1.3,0.3s-0.7,0.5-0.9,0.9c-0.2,0.4-0.3,0.9-0.3,1.6v5h-3V36.7h2.8v2.8l-0.5-0.9
			c0.4-0.7,0.9-1.2,1.6-1.6C304.7,36.7,305.5,36.5,306.4,36.5z"/>
		<path class="st3" d="M317.7,47c-1,0-1.8-0.2-2.6-0.7c-0.8-0.4-1.4-1-1.8-1.8c-0.4-0.8-0.7-1.7-0.7-2.8s0.2-2,0.7-2.8
			c0.4-0.8,1-1.4,1.8-1.8c0.8-0.4,1.6-0.7,2.6-0.7c0.9,0,1.6,0.2,2.3,0.6c0.6,0.4,1.1,1,1.5,1.7s0.5,1.8,0.5,3c0,1.2-0.2,2.2-0.5,3
			c-0.3,0.8-0.8,1.4-1.5,1.7C319.3,46.9,318.6,47,317.7,47z M318.1,44.6c0.5,0,0.9-0.1,1.3-0.3s0.7-0.5,0.9-1s0.4-0.9,0.4-1.5
			c0-0.6-0.1-1.1-0.4-1.5s-0.5-0.7-0.9-1c-0.4-0.2-0.8-0.3-1.3-0.3c-0.5,0-0.9,0.1-1.3,0.3c-0.4,0.2-0.7,0.5-0.9,1s-0.4,0.9-0.4,1.5
			c0,0.6,0.1,1.1,0.4,1.5s0.5,0.8,0.9,1S317.7,44.6,318.1,44.6z M320.9,46.9v-2.1l0.1-3l-0.2-3v-6h3v14.1
			C323.7,46.9,320.9,46.9,320.9,46.9z"/>
		<path class="st3" d="M331.5,47c-1.2,0-2.2-0.2-3.1-0.7s-1.5-1.1-2-1.9c-0.5-0.8-0.7-1.7-0.7-2.7c0-1,0.2-1.9,0.7-2.7
			c0.5-0.8,1.1-1.4,1.9-1.9c0.8-0.5,1.8-0.7,2.8-0.7c1,0,1.9,0.2,2.7,0.7s1.4,1,1.9,1.8c0.5,0.8,0.7,1.7,0.7,2.8c0,0.1,0,0.2,0,0.4
			s0,0.3,0,0.4h-8.3v-1.7h6.8l-1.2,0.5c0-0.5-0.1-1-0.3-1.4c-0.2-0.4-0.5-0.7-0.9-0.9c-0.4-0.2-0.8-0.3-1.3-0.3s-1,0.1-1.3,0.3
			c-0.4,0.2-0.7,0.5-0.9,0.9s-0.3,0.9-0.3,1.4v0.5c0,0.6,0.1,1.1,0.4,1.5s0.6,0.7,1,1s1,0.3,1.6,0.3c0.5,0,1-0.1,1.4-0.2
			c0.4-0.2,0.8-0.4,1.1-0.7l1.6,1.7c-0.5,0.5-1.1,0.9-1.8,1.2C333.2,46.9,332.4,47,331.5,47z"/>
		<path class="st3" d="M341.8,47c-0.9,0-1.7-0.1-2.5-0.3s-1.4-0.5-1.9-0.8l1-2.1c0.5,0.3,1,0.5,1.7,0.7s1.3,0.3,1.9,0.3
			c0.7,0,1.2-0.1,1.5-0.2s0.4-0.4,0.4-0.7c0-0.2-0.1-0.4-0.3-0.5c-0.2-0.1-0.5-0.2-0.9-0.3c-0.4-0.1-0.8-0.1-1.2-0.2
			c-0.4-0.1-0.9-0.2-1.3-0.3c-0.4-0.1-0.8-0.3-1.2-0.5c-0.4-0.2-0.7-0.5-0.9-0.9s-0.3-0.8-0.3-1.4c0-0.7,0.2-1.2,0.6-1.7
			s0.9-0.9,1.6-1.2c0.7-0.3,1.5-0.4,2.5-0.4c0.7,0,1.4,0.1,2.1,0.2c0.7,0.2,1.3,0.4,1.8,0.7l-1,2.1c-0.5-0.3-1-0.5-1.5-0.6
			c-0.5-0.1-1-0.2-1.4-0.2c-0.7,0-1.2,0.1-1.5,0.3c-0.3,0.2-0.5,0.4-0.5,0.7c0,0.2,0.1,0.5,0.3,0.6s0.5,0.2,0.9,0.3s0.8,0.1,1.2,0.2
			s0.9,0.2,1.3,0.3c0.4,0.1,0.8,0.3,1.2,0.5c0.4,0.2,0.7,0.5,0.9,0.9s0.3,0.8,0.3,1.4c0,0.6-0.2,1.2-0.6,1.7s-0.9,0.9-1.6,1.2
			C343.7,46.9,342.9,47,341.8,47z"/>
		<path class="st3" d="M351.3,46.9L347,36.7h3l3.6,8.8h-1.5l3.7-8.8h2.8l-4.3,10.2H351.3z"/>
		<path class="st3" d="M364.8,47c-1.2,0-2.2-0.2-3.1-0.7s-1.5-1.1-2-1.9c-0.5-0.8-0.7-1.7-0.7-2.7c0-1,0.2-1.9,0.7-2.7
			c0.5-0.8,1.1-1.4,1.9-1.9c0.8-0.5,1.8-0.7,2.8-0.7c1,0,1.9,0.2,2.7,0.7s1.4,1,1.9,1.8c0.5,0.8,0.7,1.7,0.7,2.8c0,0.1,0,0.2,0,0.4
			s0,0.3,0,0.4h-8.3v-1.7h6.8l-1.2,0.5c0-0.5-0.1-1-0.3-1.4c-0.2-0.4-0.5-0.7-0.9-0.9c-0.4-0.2-0.8-0.3-1.3-0.3s-1,0.1-1.3,0.3
			c-0.4,0.2-0.7,0.5-0.9,0.9s-0.3,0.9-0.3,1.4v0.5c0,0.6,0.1,1.1,0.4,1.5s0.6,0.7,1,1s1,0.3,1.6,0.3c0.5,0,1-0.1,1.4-0.2
			c0.4-0.2,0.8-0.4,1.1-0.7l1.6,1.7c-0.5,0.5-1.1,0.9-1.8,1.2C366.5,46.9,365.7,47,364.8,47z"/>
		<path class="st3" d="M371.7,46.9V36.7h2.8v2.9l-0.4-0.8c0.3-0.7,0.8-1.3,1.5-1.6c0.7-0.4,1.5-0.6,2.5-0.6v2.8
			c-0.1,0-0.2,0-0.3-0.1s-0.2,0-0.3,0c-0.8,0-1.5,0.2-2,0.7s-0.7,1.2-0.7,2.2v4.8L371.7,46.9L371.7,46.9z"/>
		<path class="st3" d="M379.9,46.9V32.8h3v5.9l-0.2,3l0.1,3v2.1H379.9z M385.9,47c-0.9,0-1.6-0.2-2.3-0.6c-0.6-0.4-1.1-1-1.5-1.7
			s-0.5-1.8-0.5-3c0-1.2,0.2-2.2,0.5-3c0.4-0.8,0.9-1.3,1.5-1.7c0.6-0.4,1.4-0.6,2.2-0.6c1,0,1.9,0.2,2.6,0.7c0.8,0.4,1.4,1,1.8,1.8
			s0.7,1.7,0.7,2.8s-0.2,2-0.7,2.8s-1.1,1.4-1.8,1.8C387.8,46.8,386.9,47,385.9,47z M385.5,44.6c0.5,0,0.9-0.1,1.3-0.3
			s0.7-0.5,0.9-1s0.4-0.9,0.4-1.5c0-0.6-0.1-1.1-0.4-1.5s-0.5-0.7-0.9-1c-0.4-0.2-0.8-0.3-1.3-0.3s-0.9,0.1-1.3,0.3
			c-0.4,0.2-0.7,0.5-0.9,1s-0.4,0.9-0.4,1.5c0,0.6,0.1,1.1,0.4,1.5s0.5,0.8,0.9,1S385,44.6,385.5,44.6z"/>
		<path class="st3" d="M396.2,47c-0.8,0-1.5-0.1-2-0.4s-1-0.6-1.3-1.1s-0.5-1-0.5-1.6s0.1-1.1,0.5-1.6c0.3-0.5,0.8-0.8,1.4-1.1
			c0.6-0.2,1.5-0.4,2.5-0.4h2.7v1.7h-2.4c-0.7,0-1.2,0.1-1.4,0.3c-0.3,0.2-0.4,0.5-0.4,0.8c0,0.4,0.1,0.7,0.5,0.9
			c0.3,0.2,0.7,0.3,1.2,0.3s1-0.1,1.4-0.3s0.7-0.6,0.9-1l0.5,1.4c-0.2,0.6-0.6,1.1-1.2,1.5C397.8,46.9,397.1,47,396.2,47z
			 M399.3,46.9v-2l-0.2-0.4v-3.6c0-0.6-0.2-1.1-0.6-1.5c-0.4-0.3-1-0.5-1.8-0.5c-0.5,0-1.1,0.1-1.6,0.3c-0.5,0.2-1,0.4-1.4,0.7
			l-1-2.1c0.6-0.4,1.2-0.7,2-0.9c0.8-0.2,1.6-0.3,2.4-0.3c1.6,0,2.8,0.4,3.6,1.1c0.9,0.7,1.3,1.9,1.3,3.4v5.8
			C402.1,46.9,399.3,46.9,399.3,46.9z"/>
		<path class="st3" d="M411,36.5c0.8,0,1.5,0.2,2.2,0.5s1.1,0.8,1.5,1.5c0.4,0.7,0.5,1.5,0.5,2.6v5.8h-3v-5.4c0-0.8-0.2-1.4-0.5-1.8
			c-0.4-0.4-0.9-0.6-1.5-0.6c-0.5,0-0.9,0.1-1.3,0.3s-0.7,0.5-0.9,0.9c-0.2,0.4-0.3,0.9-0.3,1.6v5h-3V36.7h2.8v2.8l-0.5-0.9
			c0.4-0.7,0.9-1.2,1.6-1.6C409.3,36.7,410.1,36.5,411,36.5z"/>
		<path class="st3" d="M422.3,47c-1,0-1.8-0.2-2.6-0.7c-0.8-0.4-1.4-1-1.8-1.8s-0.7-1.7-0.7-2.8s0.2-2,0.7-2.8s1-1.4,1.8-1.8
			c0.8-0.4,1.6-0.7,2.6-0.7c0.9,0,1.6,0.2,2.3,0.6c0.6,0.4,1.1,1,1.5,1.7s0.5,1.8,0.5,3c0,1.2-0.2,2.2-0.5,3
			c-0.3,0.8-0.8,1.4-1.5,1.7C423.9,46.9,423.2,47,422.3,47z M422.8,44.6c0.5,0,0.9-0.1,1.3-0.3s0.7-0.5,0.9-1s0.4-0.9,0.4-1.5
			c0-0.6-0.1-1.1-0.4-1.5s-0.5-0.7-0.9-1c-0.4-0.2-0.8-0.3-1.3-0.3c-0.5,0-0.9,0.1-1.3,0.3c-0.4,0.2-0.7,0.5-0.9,1s-0.4,0.9-0.4,1.5
			c0,0.6,0.1,1.1,0.4,1.5s0.5,0.8,0.9,1S422.3,44.6,422.8,44.6z M425.5,46.9v-2.1l0.1-3l-0.2-3v-6h3v14.1
			C428.3,46.9,425.5,46.9,425.5,46.9z"/>
	</g>
</g>
<g>
	<g>
		<path class="st3" d="M272.8,69.7V56.4h6.5c1.7,0,2.9,0.3,3.8,1s1.3,1.5,1.3,2.5c0,0.7-0.2,1.3-0.5,1.8s-0.8,0.9-1.4,1.2
			c-0.6,0.3-1.3,0.4-2,0.4l0.4-0.8c0.8,0,1.6,0.1,2.2,0.4s1.1,0.7,1.5,1.2c0.4,0.5,0.5,1.2,0.5,2c0,1.1-0.5,2-1.4,2.7s-2.2,1-4,1
			L272.8,69.7L272.8,69.7z M275.8,67.4h3.6c0.8,0,1.4-0.1,1.8-0.4c0.4-0.3,0.6-0.7,0.6-1.2c0-0.6-0.2-1-0.6-1.2
			c-0.4-0.3-1-0.4-1.8-0.4h-3.8v-2.2h3.3c0.8,0,1.3-0.1,1.7-0.4s0.6-0.7,0.6-1.2s-0.2-0.9-0.6-1.2c-0.4-0.2-1-0.4-1.7-0.4h-3.1V67.4
			z"/>
		<path class="st3" d="M292.2,69.9c-1.2,0-2.2-0.2-3.1-0.7s-1.5-1.1-2-1.9s-0.7-1.7-0.7-2.7c0-1,0.2-1.9,0.7-2.7
			c0.5-0.8,1.1-1.4,1.9-1.9c0.8-0.5,1.8-0.7,2.8-0.7c1,0,1.9,0.2,2.7,0.7s1.4,1,1.9,1.8c0.5,0.8,0.7,1.7,0.7,2.8c0,0.1,0,0.2,0,0.4
			c0,0.1,0,0.3,0,0.4h-8.3v-1.7h6.8l-1.2,0.5c0-0.5-0.1-1-0.3-1.4c-0.2-0.4-0.5-0.7-0.9-0.9c-0.4-0.2-0.8-0.3-1.3-0.3
			s-1,0.1-1.3,0.3c-0.4,0.2-0.7,0.5-0.9,0.9s-0.3,0.9-0.3,1.4v0.5c0,0.6,0.1,1.1,0.4,1.5s0.6,0.7,1,1c0.4,0.2,1,0.3,1.6,0.3
			c0.5,0,1-0.1,1.4-0.2c0.4-0.2,0.8-0.4,1.1-0.7l1.6,1.7c-0.5,0.5-1.1,0.9-1.8,1.2C294,69.8,293.2,69.9,292.2,69.9z"/>
		<path class="st3" d="M299.1,69.7V59.5h2.8v2.9l-0.4-0.8c0.3-0.7,0.8-1.3,1.5-1.6c0.7-0.4,1.5-0.6,2.5-0.6v2.8
			c-0.1,0-0.2,0-0.3-0.1s-0.2,0-0.3,0c-0.8,0-1.5,0.2-2,0.7s-0.7,1.2-0.7,2.2v4.8H299.1z"/>
		<path class="st3" d="M311.6,69.9c-0.9,0-1.6-0.2-2.3-0.5c-0.7-0.3-1.2-0.8-1.5-1.5s-0.5-1.5-0.5-2.6v-5.8h3v5.3
			c0,0.9,0.2,1.5,0.5,1.9c0.4,0.4,0.9,0.6,1.5,0.6c0.5,0,0.9-0.1,1.2-0.3c0.4-0.2,0.6-0.5,0.9-0.9s0.3-0.9,0.3-1.5v-5.1h3v10.2h-2.8
			v-2.8l0.5,0.8c-0.4,0.7-0.9,1.2-1.5,1.6S312.4,69.9,311.6,69.9z"/>
		<path class="st3" d="M319.2,62v-2.3h7.1V62H319.2z M320.8,69.7V59.3c0-1.2,0.3-2.1,1-2.8c0.7-0.7,1.7-1,2.9-1c0.4,0,0.8,0,1.2,0.1
			s0.8,0.2,1,0.4l-0.8,2.2c-0.2-0.1-0.4-0.2-0.5-0.3c-0.2-0.1-0.4-0.1-0.6-0.1c-0.4,0-0.8,0.1-1,0.4s-0.4,0.6-0.4,1.1v1l0.1,1.2v8.2
			H320.8z"/>
		<path class="st3" d="M331,69.9c-0.9,0-1.7-0.1-2.5-0.3s-1.4-0.5-1.9-0.8l1-2.1c0.5,0.3,1,0.5,1.7,0.7s1.3,0.3,1.9,0.3
			c0.7,0,1.2-0.1,1.5-0.2s0.4-0.4,0.4-0.7c0-0.2-0.1-0.4-0.3-0.5c-0.2-0.1-0.5-0.2-0.9-0.3c-0.4-0.1-0.8-0.1-1.2-0.2
			c-0.4-0.1-0.9-0.2-1.3-0.3c-0.4-0.1-0.8-0.3-1.2-0.5c-0.4-0.2-0.7-0.5-0.9-0.9c-0.2-0.4-0.3-0.8-0.3-1.4c0-0.7,0.2-1.2,0.6-1.7
			s0.9-0.9,1.6-1.2c0.7-0.3,1.5-0.4,2.5-0.4c0.7,0,1.4,0.1,2.1,0.2c0.7,0.2,1.3,0.4,1.8,0.7l-1,2.1c-0.5-0.3-1-0.5-1.5-0.6
			c-0.5-0.1-1-0.2-1.4-0.2c-0.7,0-1.2,0.1-1.5,0.3c-0.3,0.2-0.5,0.4-0.5,0.7c0,0.2,0.1,0.5,0.3,0.6s0.5,0.2,0.9,0.3s0.8,0.1,1.2,0.2
			s0.9,0.2,1.3,0.3c0.4,0.1,0.8,0.3,1.2,0.5c0.4,0.2,0.7,0.5,0.9,0.9s0.3,0.8,0.3,1.4c0,0.6-0.2,1.2-0.6,1.7
			c-0.4,0.5-0.9,0.9-1.6,1.2C332.9,69.8,332.1,69.9,331,69.9z"/>
		<path class="st3" d="M337.7,69.7V55.6h3v6l-0.2,3l0.1,3v2.1H337.7z M343.7,69.9c-0.9,0-1.6-0.2-2.3-0.6c-0.6-0.4-1.1-1-1.5-1.7
			s-0.5-1.8-0.5-3c0-1.2,0.2-2.2,0.5-3c0.4-0.8,0.9-1.3,1.5-1.7c0.6-0.4,1.4-0.6,2.2-0.6c1,0,1.9,0.2,2.6,0.7c0.8,0.4,1.4,1,1.8,1.8
			c0.5,0.8,0.7,1.7,0.7,2.8c0,1.1-0.2,2-0.7,2.8c-0.5,0.8-1.1,1.4-1.8,1.8C345.5,69.7,344.7,69.9,343.7,69.9z M343.2,67.5
			c0.5,0,0.9-0.1,1.3-0.3s0.7-0.6,0.9-1s0.4-0.9,0.4-1.5c0-0.6-0.1-1.1-0.4-1.5s-0.5-0.7-0.9-1c-0.4-0.2-0.8-0.3-1.3-0.3
			s-0.9,0.1-1.3,0.3c-0.4,0.2-0.7,0.5-0.9,1s-0.4,0.9-0.4,1.5c0,0.6,0.1,1.1,0.4,1.5s0.5,0.8,0.9,1S342.7,67.5,343.2,67.5z"/>
		<path class="st3" d="M352.3,58.1c-0.6,0-1-0.2-1.4-0.5s-0.5-0.7-0.5-1.2s0.2-0.9,0.5-1.2s0.8-0.5,1.4-0.5c0.5,0,1,0.2,1.3,0.5
			s0.5,0.7,0.5,1.2c0,0.5-0.2,0.9-0.5,1.2C353.3,57.9,352.8,58.1,352.3,58.1z M350.8,69.7V59.5h3v10.2H350.8z"/>
		<path class="st3" d="M356.5,69.7V55.6h3v14.1H356.5z"/>
		<path class="st3" d="M366.6,69.9c-1,0-1.8-0.2-2.6-0.7c-0.8-0.4-1.4-1.1-1.8-1.8c-0.4-0.8-0.7-1.7-0.7-2.8c0-1.1,0.2-2,0.7-2.8
			s1-1.4,1.8-1.8c0.8-0.4,1.6-0.7,2.6-0.7c0.9,0,1.6,0.2,2.3,0.6c0.6,0.4,1.1,1,1.5,1.7s0.5,1.8,0.5,3c0,1.2-0.2,2.2-0.5,3
			c-0.3,0.8-0.8,1.4-1.5,1.7C368.3,69.7,367.5,69.9,366.6,69.9z M367.1,67.5c0.5,0,0.9-0.1,1.3-0.3s0.7-0.6,0.9-1s0.4-0.9,0.4-1.5
			c0-0.6-0.1-1.1-0.4-1.5s-0.5-0.7-0.9-1c-0.4-0.2-0.8-0.3-1.3-0.3c-0.5,0-0.9,0.1-1.3,0.3c-0.4,0.2-0.7,0.5-0.9,1s-0.4,0.9-0.4,1.5
			c0,0.6,0.1,1.1,0.4,1.5s0.5,0.8,0.9,1S366.6,67.5,367.1,67.5z M369.8,69.7v-2.1l0.1-3l-0.2-3v-6h3v14.1H369.8z"/>
		<path class="st3" d="M379.7,69.9c-0.9,0-1.6-0.2-2.3-0.5c-0.7-0.3-1.2-0.8-1.5-1.5s-0.5-1.5-0.5-2.6v-5.8h3v5.3
			c0,0.9,0.2,1.5,0.5,1.9c0.4,0.4,0.9,0.6,1.5,0.6c0.5,0,0.9-0.1,1.2-0.3c0.4-0.2,0.6-0.5,0.9-0.9s0.3-0.9,0.3-1.5v-5.1h2.9v10.2
			h-2.8v-2.8l0.5,0.8c-0.4,0.7-0.9,1.2-1.5,1.6C381.2,69.7,380.5,69.9,379.7,69.9z"/>
		<path class="st3" d="M394.6,59.4c0.8,0,1.5,0.2,2.2,0.5s1.1,0.8,1.5,1.5s0.5,1.5,0.5,2.6v5.9h-3v-5.4c0-0.8-0.2-1.4-0.5-1.8
			c-0.4-0.4-0.9-0.6-1.5-0.6c-0.5,0-0.9,0.1-1.3,0.3s-0.7,0.5-0.9,0.9c-0.2,0.4-0.3,0.9-0.3,1.6v5.1h-3V59.5h2.8v2.8l-0.5-0.9
			c0.4-0.7,0.9-1.2,1.6-1.6C393,59.6,393.8,59.4,394.6,59.4z"/>
		<path class="st3" d="M405.9,69.3c-0.9,0-1.8-0.2-2.5-0.6c-0.8-0.4-1.4-1-1.8-1.7c-0.5-0.7-0.7-1.6-0.7-2.6c0-1,0.2-1.9,0.7-2.6
			c0.5-0.7,1.1-1.3,1.8-1.7s1.6-0.6,2.5-0.6c0.9,0,1.7,0.2,2.3,0.5s1.2,0.9,1.5,1.6s0.5,1.7,0.5,2.8c0,1.1-0.2,2.1-0.5,2.8
			c-0.4,0.7-0.9,1.3-1.5,1.6C407.5,69.1,406.8,69.3,405.9,69.3z M406.4,73.6c-1,0-1.9-0.1-2.8-0.3c-0.9-0.2-1.6-0.6-2.2-1.1l1.2-2.2
			c0.4,0.4,1,0.7,1.6,0.9s1.3,0.3,2,0.3c1,0,1.8-0.2,2.3-0.7c0.5-0.5,0.7-1.2,0.7-2.1v-1.5l0.2-2.6l-0.1-2.6v-2.2h2.8V68
			c0,1.9-0.5,3.3-1.5,4.2S408.2,73.6,406.4,73.6z M406.5,66.8c0.5,0,1-0.1,1.4-0.3s0.7-0.5,1-0.9c0.2-0.4,0.3-0.8,0.3-1.3
			c0-0.5-0.1-1-0.3-1.3s-0.5-0.7-1-0.9s-0.9-0.3-1.4-0.3c-0.5,0-1,0.1-1.4,0.3s-0.7,0.5-1,0.9s-0.4,0.8-0.4,1.3
			c0,0.5,0.1,0.9,0.4,1.3c0.2,0.4,0.6,0.7,1,0.9S406,66.8,406.5,66.8z"/>
	</g>
</g>
<g>
	<g>
		<path class="st3" d="M272.8,91.4V78.1h3.1v13.3H272.8z"/>
		<path class="st3" d="M285.2,81.1c0.8,0,1.5,0.2,2.2,0.5s1.1,0.8,1.5,1.5c0.4,0.7,0.5,1.5,0.5,2.6v5.9h-3V86c0-0.8-0.2-1.4-0.5-1.8
			c-0.4-0.4-0.9-0.6-1.5-0.6c-0.5,0-0.9,0.1-1.3,0.3c-0.4,0.2-0.7,0.5-0.9,0.9c-0.2,0.4-0.3,0.9-0.3,1.6v5.1h-3V81.2h2.8V84
			l-0.5-0.9c0.4-0.7,0.9-1.2,1.6-1.6C283.5,81.2,284.3,81.1,285.2,81.1z"/>
		<path class="st3" d="M290.8,83.7v-2.3h7.1v2.3H290.8z M296.2,91.6c-1.2,0-2.1-0.3-2.8-0.9c-0.7-0.6-1-1.5-1-2.8v-9h3v8.9
			c0,0.4,0.1,0.8,0.3,1c0.2,0.2,0.5,0.4,0.9,0.4c0.5,0,0.9-0.1,1.2-0.4l0.8,2.1c-0.3,0.2-0.6,0.4-1.1,0.5S296.7,91.6,296.2,91.6z"/>
		<path class="st3" d="M305.3,91.6c-1.2,0-2.2-0.2-3.1-0.7s-1.5-1.1-2-1.9s-0.7-1.7-0.7-2.7c0-1,0.2-1.9,0.7-2.7s1.1-1.4,1.9-1.9
			c0.8-0.4,1.8-0.7,2.8-0.7c1,0,1.9,0.2,2.7,0.7c0.8,0.4,1.4,1,1.9,1.8c0.5,0.8,0.7,1.7,0.7,2.8c0,0.1,0,0.2,0,0.4s0,0.3,0,0.4h-8.3
			v-1.7h6.8l-1.2,0.5c0-0.5-0.1-1-0.3-1.4c-0.2-0.4-0.5-0.7-0.9-0.9s-0.8-0.3-1.3-0.3c-0.5,0-1,0.1-1.3,0.3
			c-0.4,0.2-0.7,0.5-0.9,0.9c-0.2,0.4-0.3,0.9-0.3,1.4v0.4c0,0.6,0.1,1.1,0.4,1.5c0.2,0.4,0.6,0.7,1,1s1,0.3,1.6,0.3
			c0.5,0,1-0.1,1.4-0.2c0.4-0.2,0.8-0.4,1.1-0.7l1.6,1.7c-0.5,0.5-1.1,0.9-1.8,1.2S306.2,91.6,305.3,91.6z"/>
		<path class="st3" d="M312.2,91.4V81.2h2.8v2.9l-0.4-0.8c0.3-0.7,0.8-1.3,1.5-1.6c0.7-0.4,1.5-0.6,2.5-0.6v2.8
			c-0.1,0-0.2,0-0.3-0.1s-0.2,0-0.3,0c-0.8,0-1.5,0.2-2,0.7c-0.5,0.5-0.7,1.2-0.7,2.2v4.8H312.2z"/>
		<path class="st3" d="M326.7,81.1c0.8,0,1.5,0.2,2.2,0.5s1.1,0.8,1.5,1.5s0.5,1.5,0.5,2.6v5.9h-3V86c0-0.8-0.2-1.4-0.5-1.8
			c-0.4-0.4-0.9-0.6-1.5-0.6c-0.5,0-0.9,0.1-1.3,0.3c-0.4,0.2-0.7,0.5-0.9,0.9c-0.2,0.4-0.3,0.9-0.3,1.6v5.1h-3V81.2h2.8V84
			l-0.5-0.9c0.4-0.7,0.9-1.2,1.6-1.6C325,81.2,325.8,81.1,326.7,81.1z"/>
		<path class="st3" d="M336.7,91.6c-0.8,0-1.5-0.1-2-0.4c-0.6-0.3-1-0.6-1.3-1.1s-0.5-1-0.5-1.6c0-0.6,0.1-1.1,0.5-1.6
			c0.3-0.5,0.8-0.8,1.4-1.1c0.6-0.2,1.5-0.4,2.5-0.4h2.7v1.7h-2.4c-0.7,0-1.2,0.1-1.4,0.3c-0.3,0.2-0.4,0.5-0.4,0.8
			c0,0.4,0.1,0.7,0.5,0.9c0.3,0.2,0.7,0.3,1.2,0.3c0.5,0,1-0.1,1.4-0.3c0.4-0.2,0.7-0.6,0.9-1.1l0.5,1.4c-0.2,0.6-0.6,1.1-1.2,1.5
			S337.6,91.6,336.7,91.6z M339.9,91.4v-2l-0.2-0.4v-3.6c0-0.6-0.2-1.1-0.6-1.5c-0.4-0.3-1-0.5-1.8-0.5c-0.5,0-1.1,0.1-1.6,0.3
			s-1,0.4-1.4,0.7l-1-2.1c0.6-0.4,1.2-0.7,2-0.9s1.6-0.3,2.4-0.3c1.6,0,2.8,0.4,3.6,1.1c0.9,0.7,1.3,1.9,1.3,3.4v5.8H339.9z"/>
		<path class="st3" d="M344,83.7v-2.3h7.1v2.3H344z M349.4,91.6c-1.2,0-2.1-0.3-2.8-0.9c-0.7-0.6-1-1.5-1-2.8v-9h3v8.9
			c0,0.4,0.1,0.8,0.3,1c0.2,0.2,0.5,0.4,0.9,0.4c0.5,0,0.9-0.1,1.2-0.4l0.8,2.1c-0.3,0.2-0.6,0.4-1.1,0.5S349.9,91.6,349.4,91.6z"/>
		<path class="st3" d="M355,79.8c-0.6,0-1-0.2-1.4-0.5s-0.5-0.7-0.5-1.2s0.2-0.9,0.5-1.2s0.8-0.5,1.4-0.5c0.5,0,1,0.2,1.3,0.4
			c0.4,0.3,0.5,0.7,0.5,1.2c0,0.5-0.2,0.9-0.5,1.2C356,79.6,355.5,79.8,355,79.8z M353.5,91.4V81.2h3v10.2H353.5z"/>
		<path class="st3" d="M364.1,91.6c-1.1,0-2-0.2-2.9-0.7c-0.8-0.5-1.5-1.1-2-1.9c-0.5-0.8-0.7-1.7-0.7-2.7c0-1,0.2-1.9,0.7-2.7
			c0.5-0.8,1.1-1.4,2-1.9c0.8-0.4,1.8-0.7,2.9-0.7c1.1,0,2.1,0.2,2.9,0.7s1.5,1.1,2,1.9c0.5,0.8,0.7,1.7,0.7,2.7
			c0,1-0.2,1.9-0.7,2.7s-1.1,1.4-2,1.9S365.2,91.6,364.1,91.6z M364.1,89.2c0.5,0,1-0.1,1.3-0.3s0.7-0.6,0.9-1s0.4-0.9,0.4-1.5
			c0-0.6-0.1-1.1-0.4-1.5s-0.5-0.7-0.9-1c-0.4-0.2-0.8-0.3-1.3-0.3s-0.9,0.1-1.3,0.3c-0.4,0.2-0.7,0.5-0.9,1s-0.4,0.9-0.4,1.5
			c0,0.6,0.1,1.1,0.4,1.5s0.5,0.8,0.9,1S363.6,89.2,364.1,89.2z"/>
		<path class="st3" d="M377.9,81.1c0.8,0,1.5,0.2,2.2,0.5s1.1,0.8,1.5,1.5s0.5,1.5,0.5,2.6v5.9h-3V86c0-0.8-0.2-1.4-0.5-1.8
			c-0.4-0.4-0.9-0.6-1.5-0.6c-0.5,0-0.9,0.1-1.3,0.3c-0.4,0.2-0.7,0.5-0.9,0.9c-0.2,0.4-0.3,0.9-0.3,1.6v5.1h-3V81.2h2.8V84
			l-0.5-0.9c0.4-0.7,0.9-1.2,1.6-1.6C376.2,81.2,377,81.1,377.9,81.1z"/>
		<path class="st3" d="M388,91.6c-0.8,0-1.5-0.1-2-0.4c-0.6-0.3-1-0.6-1.3-1.1s-0.5-1-0.5-1.6c0-0.6,0.1-1.1,0.5-1.6
			c0.3-0.5,0.8-0.8,1.4-1.1c0.6-0.2,1.5-0.4,2.5-0.4h2.7v1.7h-2.4c-0.7,0-1.2,0.1-1.4,0.3c-0.3,0.2-0.4,0.5-0.4,0.8
			c0,0.4,0.1,0.7,0.5,0.9c0.3,0.2,0.7,0.3,1.2,0.3c0.5,0,1-0.1,1.4-0.3c0.4-0.2,0.7-0.6,0.9-1.1l0.5,1.4c-0.2,0.6-0.6,1.1-1.2,1.5
			S388.9,91.6,388,91.6z M391.1,91.4v-2l-0.2-0.4v-3.6c0-0.6-0.2-1.1-0.6-1.5c-0.4-0.3-1-0.5-1.8-0.5c-0.5,0-1.1,0.1-1.6,0.3
			s-1,0.4-1.4,0.7l-1-2.1c0.6-0.4,1.2-0.7,2-0.9s1.6-0.3,2.4-0.3c1.6,0,2.8,0.4,3.6,1.1c0.9,0.7,1.3,1.9,1.3,3.4v5.8H391.1z"/>
		<path class="st3" d="M396.5,91.4V77.3h3v14.1H396.5z"/>
		<path class="st3" d="M412.7,91.6c-1.2,0-2.2-0.2-3.1-0.7s-1.5-1.1-2-1.9s-0.7-1.7-0.7-2.7c0-1,0.2-1.9,0.7-2.7s1.1-1.4,1.9-1.9
			c0.8-0.4,1.8-0.7,2.8-0.7c1,0,1.9,0.2,2.7,0.7c0.8,0.4,1.4,1,1.9,1.8c0.5,0.8,0.7,1.7,0.7,2.8c0,0.1,0,0.2,0,0.4s0,0.3,0,0.4h-8.3
			v-1.7h6.8l-1.2,0.5c0-0.5-0.1-1-0.3-1.4c-0.2-0.4-0.5-0.7-0.9-0.9s-0.8-0.3-1.3-0.3c-0.5,0-1,0.1-1.3,0.3
			c-0.4,0.2-0.7,0.5-0.9,0.9c-0.2,0.4-0.3,0.9-0.3,1.4v0.4c0,0.6,0.1,1.1,0.4,1.5c0.2,0.4,0.6,0.7,1,1s1,0.3,1.6,0.3
			c0.5,0,1-0.1,1.4-0.2c0.4-0.2,0.8-0.4,1.1-0.7l1.6,1.7c-0.5,0.5-1.1,0.9-1.8,1.2S413.6,91.6,412.7,91.6z"/>
		<path class="st3" d="M420.5,91.6c-0.5,0-0.9-0.2-1.3-0.5s-0.5-0.8-0.5-1.3c0-0.6,0.2-1,0.5-1.3c0.4-0.3,0.8-0.5,1.3-0.5
			c0.5,0,1,0.2,1.3,0.5s0.5,0.8,0.5,1.3c0,0.5-0.2,1-0.5,1.3S421,91.6,420.5,91.6z"/>
		<path class="st3" d="M428.6,91.4l-5.8-13.3h3.3l5,11.8h-2l5.1-11.8h3.1l-5.7,13.3H428.6z"/>
		<path class="st3" d="M438.6,91.6c-0.5,0-0.9-0.2-1.3-0.5s-0.5-0.8-0.5-1.3c0-0.6,0.2-1,0.5-1.3c0.4-0.3,0.8-0.5,1.3-0.5
			c0.5,0,1,0.2,1.3,0.5s0.5,0.8,0.5,1.3c0,0.5-0.2,1-0.5,1.3S439.1,91.6,438.6,91.6z"/>
	</g>
</g>
</svg>
