<?xml version="1.0" encoding="UTF-8"?><svg id="Ebene_1" xmlns="http://www.w3.org/2000/svg" viewBox="0 0 32 32"><defs><style>.cls-1{fill:#2b7bbc;}</style></defs><path class="cls-1" d="m3.19,19.09v-6.19h3.02c.78,0,1.36.15,1.75.44s.59.68.59,1.17c0,.32-.08.6-.24.84-.16.24-.38.42-.66.55-.28.13-.6.19-.95.19l.17-.37c.39,0,.73.07,1.03.19s.53.32.7.57c.17.25.26.55.26.91,0,.53-.21.94-.63,1.24-.42.3-1.03.45-1.85.45h-3.2Zm1.42-1.08h1.68c.37,0,.64-.06.84-.19.19-.12.29-.32.29-.57s-.1-.46-.29-.58c-.19-.12-.47-.19-.84-.19h-1.79v-1.04h1.53c.35,0,.61-.06.8-.18s.28-.31.28-.55-.09-.43-.28-.55c-.19-.12-.45-.18-.8-.18h-1.42v4.03Z"/><path class="cls-1" d="m10.8,19.09l-2-4.75h1.41l1.66,4.09h-.71l1.73-4.09h1.32l-2.01,4.75h-1.41Z"/><path class="cls-1" d="m14.54,19.09v-6.19h3.02c.78,0,1.36.15,1.75.44s.59.68.59,1.17c0,.32-.08.6-.24.84-.16.24-.38.42-.66.55-.28.13-.6.19-.95.19l.17-.37c.39,0,.73.07,1.03.19.3.13.53.32.7.57.17.25.26.55.26.91,0,.53-.21.94-.63,1.24-.42.3-1.03.45-1.85.45h-3.2Zm1.42-1.08h1.68c.37,0,.64-.06.84-.19.19-.12.29-.32.29-.57s-.1-.46-.29-.58c-.19-.12-.47-.19-.84-.19h-1.79v-1.04h1.53c.35,0,.61-.06.8-.18.19-.12.28-.31.28-.55s-.09-.43-.28-.55c-.19-.12-.45-.18-.8-.18h-1.42v4.03Z"/><path class="cls-1" d="m20.95,19.09v-6.19h3.02c.78,0,1.36.15,1.75.44s.59.68.59,1.17c0,.32-.08.6-.24.84-.16.24-.38.42-.66.55-.28.13-.6.19-.95.19l.17-.37c.39,0,.73.07,1.03.19.3.13.53.32.7.57.17.25.26.55.26.91,0,.53-.21.94-.63,1.24-.42.3-1.03.45-1.85.45h-3.2Zm1.42-1.08h1.68c.37,0,.64-.06.84-.19.19-.12.29-.32.29-.57s-.1-.46-.29-.58c-.19-.12-.47-.19-.84-.19h-1.79v-1.04h1.53c.35,0,.61-.06.8-.18.19-.12.28-.31.28-.55s-.09-.43-.28-.55c-.19-.12-.45-.18-.8-.18h-1.42v4.03Z"/><path class="cls-1" d="m27.36,19.09v-6.19h1.44v6.19h-1.44Z"/></svg>