<svg xmlns="http://www.w3.org/2000/svg" viewBox="0 0 684.52 281.77"><defs><style>.cls-1{fill:#009ddf;}</style></defs><title>IB-Logo</title><g id="Ebene_2" data-name="Ebene 2"><g id="Ebene_1-2" data-name="Ebene 1"><path class="cls-1" d="M503.81,33.16A33.17,33.17,0,1,1,470.65,0a33.17,33.17,0,0,1,33.16,33.16M680.9,203.32a48.16,48.16,0,0,1,3.62,19.24A66.64,66.64,0,0,1,680.46,246a44.26,44.26,0,0,1-13.68,18.81q-9.62,7.92-25.79,12.43t-40.16,4.49q-7,0-12.62-.25c-3.75-.17-7.29-.33-10.62-.5l-10.11-.5c-3.42-.17-7.16-.25-11.24-.25H424.62a2.93,2.93,0,0,1-2.94-2.94v-13.4a2.94,2.94,0,0,1,2.4-2.89l17.09-3.17a6.72,6.72,0,0,0,4.3-2.32,7.26,7.26,0,0,0,1.44-4.68v-136a7.33,7.33,0,0,0-1.44-4.69,7.25,7.25,0,0,0-4.3-2.43l-17.11-3.29a2.94,2.94,0,0,1-2.38-2.88V88.1a2.93,2.93,0,0,1,2.94-2.94h131q12,0,22.55-.75t23.54-.75q20.49,0,34,2.94t21.42,8.68a30.66,30.66,0,0,1,11.12,14.36,57.63,57.63,0,0,1,3.18,20q0,19.25-9.55,31a45.71,45.71,0,0,1-22.85,15,.49.49,0,0,0,.09,1,70.35,70.35,0,0,1,16.45,3.69,46,46,0,0,1,15.3,8.93,40,40,0,0,1,10.06,14.11M532.25,112.83a7.32,7.32,0,0,0-5.61-7.12,69.47,69.47,0,0,0-19.29.67l-7.23,1.39a6.63,6.63,0,0,0-5.74,7.12V250.75a7.3,7.3,0,0,0,1.43,4.68c1,1.21,2.1,1.77,4.31,2.31,12.39,3,23.23,2.77,26.52,2a7.3,7.3,0,0,0,5.61-7.11V112.83Zm47.48,53.08a3.91,3.91,0,0,0,3.83,3.9c2.22,0,12.44.17,14.77.17q13.74,0,20-9.44t6.25-26.91q0-17.25-7.06-24.86t-21.67-7.62c-.67,0-1.75,0-3.25.13s-7.59.54-9.33.71a3.91,3.91,0,0,0-3.52,3.89ZM624.37,253q7.93-10.5,7.93-29.23t-8.11-26.29q-8.13-7.44-23.74-7.43c-2.83,0-14.51.34-16.92.4a3.91,3.91,0,0,0-3.8,3.91v64.07a3.9,3.9,0,0,0,3.33,3.86c1.5.22,3.17.43,5.09.64a93,93,0,0,0,10.18.56q18.1,0,26-10.49"/><path class="cls-1" d="M22.56,198.86,5.27,153.67H5q.48,5.37.49,12.76v32.43H0v-51H8.93l16.14,42.06h.28l16.29-42.06H50.5v51H44.57V166q0-5.64.49-12.27h-.28L27.34,198.86Zm57.2.7q-8.48,0-13.38-5.16t-4.9-14.33q0-9.24,4.55-14.68A15.12,15.12,0,0,1,78.26,160q7.18,0,11.36,4.72t4.19,12.47v3.66H67.48q.18,6.73,3.4,10.22T80,194.51a30.79,30.79,0,0,0,12.21-2.58v5.16a31.36,31.36,0,0,1-5.81,1.9A32.81,32.81,0,0,1,79.76,199.56Zm-1.57-34.77a9.44,9.44,0,0,0-7.34,3,13.84,13.84,0,0,0-3.23,8.3h20q0-5.47-2.44-8.38A8.57,8.57,0,0,0,78.19,164.79Zm51.64,34.07V174.14c0-3.12-.71-5.44-2.12-7s-3.64-2.3-6.66-2.3q-6,0-8.79,3.25t-2.79,10.7v20.05h-5.79V160.64h4.71l.94,5.23h.28a11.74,11.74,0,0,1,5-4.37,16.16,16.16,0,0,1,7.15-1.55q6.92,0,10.4,3.33t3.48,10.65v24.93Zm42.34-10.42a9.59,9.59,0,0,1-4,8.23q-4,2.9-11.16,2.89c-5.06,0-9-.8-11.85-2.4v-5.37a28.11,28.11,0,0,0,5.91,2.19,24.38,24.38,0,0,0,6.08.8,13.87,13.87,0,0,0,7-1.44,5,5,0,0,0,.5-8.23c-1.29-1.06-3.8-2.31-7.55-3.75a41.3,41.3,0,0,1-7.58-3.47,10.33,10.33,0,0,1-3.35-3.37,8.77,8.77,0,0,1-1.1-4.5,8.58,8.58,0,0,1,3.8-7.37q3.81-2.7,10.43-2.7a30.41,30.41,0,0,1,12.07,2.51l-2.06,4.7a27.72,27.72,0,0,0-10.43-2.37,12,12,0,0,0-6.2,1.29,4,4,0,0,0-2.1,3.56,4.31,4.31,0,0,0,.79,2.62,7.63,7.63,0,0,0,2.53,2.05,55.76,55.76,0,0,0,6.69,2.83q6.81,2.48,9.19,5A8.78,8.78,0,0,1,172.17,188.44Zm24.69,11.12q-8.3,0-12.85-5.11T179.46,180q0-9.6,4.62-14.82T197.24,160a25.74,25.74,0,0,1,5.51.59,18.22,18.22,0,0,1,4.33,1.39l-1.78,4.92a27.52,27.52,0,0,0-4.19-1.27,18.47,18.47,0,0,0-4-.51q-11.64,0-11.64,14.86,0,7,2.84,10.81t8.42,3.77a25.78,25.78,0,0,0,9.8-2.06v5.12A20.84,20.84,0,0,1,196.86,199.56Zm44.88-.7V174.14c0-3.12-.71-5.44-2.12-7s-3.64-2.3-6.67-2.3q-6,0-8.8,3.28t-2.77,10.74v20h-5.79V144.6h5.79V161a36.68,36.68,0,0,1-.28,4.91h.35a11.82,11.82,0,0,1,4.86-4.34,15.76,15.76,0,0,1,7.2-1.58q7,0,10.52,3.33t3.5,10.58v24.93Zm42.34-10.42a9.59,9.59,0,0,1-4,8.23q-4,2.9-11.16,2.89-7.6,0-11.85-2.4v-5.37A28.11,28.11,0,0,0,263,194a24.38,24.38,0,0,0,6.08.8,13.89,13.89,0,0,0,7-1.44,5,5,0,0,0,.5-8.23c-1.29-1.06-3.8-2.31-7.55-3.75a41.3,41.3,0,0,1-7.58-3.47,10.33,10.33,0,0,1-3.35-3.37A8.77,8.77,0,0,1,257,170a8.58,8.58,0,0,1,3.8-7.37q3.81-2.7,10.43-2.7a30.41,30.41,0,0,1,12.07,2.51l-2.06,4.7a27.72,27.72,0,0,0-10.43-2.37,12,12,0,0,0-6.21,1.29,4,4,0,0,0-2.09,3.56,4.31,4.31,0,0,0,.79,2.62,7.63,7.63,0,0,0,2.53,2.05,55.76,55.76,0,0,0,6.69,2.83q6.79,2.48,9.19,5A8.78,8.78,0,0,1,284.08,188.44Zm25.56,11.12q-8.47,0-13.37-5.16t-4.9-14.33q0-9.24,4.55-14.68A15.1,15.1,0,0,1,308.14,160q7.19,0,11.37,4.72t4.18,12.47v3.66H297.37q.17,6.73,3.4,10.22t9.08,3.49a30.82,30.82,0,0,0,12.21-2.58v5.16a31.6,31.6,0,0,1-5.81,1.9A33,33,0,0,1,309.64,199.56Zm-1.57-34.77a9.46,9.46,0,0,0-7.34,3,13.83,13.83,0,0,0-3.22,8.3h20c0-3.65-.82-6.44-2.44-8.38A8.59,8.59,0,0,0,308.07,164.79Zm25-14.5a3.87,3.87,0,0,1,1-2.92,3.44,3.44,0,0,1,2.44-.92,3.4,3.4,0,0,1,2.41.94,3.8,3.8,0,0,1,1,2.9,3.85,3.85,0,0,1-1,2.91,3.54,3.54,0,0,1-4.85,0A3.92,3.92,0,0,1,333.08,150.29Zm6.27,48.57h-5.79V160.64h5.79Zm38.43,0V174.14c0-3.12-.71-5.44-2.12-7s-3.64-2.3-6.66-2.3q-6,0-8.79,3.25t-2.79,10.7v20.05h-5.79V160.64h4.71l.94,5.23h.28a11.74,11.74,0,0,1,5-4.37,16.16,16.16,0,0,1,7.15-1.55q6.92,0,10.4,3.33t3.48,10.65v24.93ZM146.61,268.69q0,6-4.17,9.14T130,281a38.58,38.58,0,0,1-7.25-.58,27,27,0,0,1-5.62-1.69v-8.79a37.54,37.54,0,0,0,6.68,2.34,27,27,0,0,0,6.54.94q5.79,0,5.79-3.34a2.79,2.79,0,0,0-.77-2,10.72,10.72,0,0,0-2.65-1.78c-1.25-.67-2.93-1.44-5-2.32a31.81,31.81,0,0,1-6.61-3.49,9.92,9.92,0,0,1-3.07-3.68,12.14,12.14,0,0,1-.95-5.11,9.28,9.28,0,0,1,4-8q4-2.83,11.42-2.84a32.52,32.52,0,0,1,13.71,3.07L143,251.29c-1.95-.83-3.78-1.52-5.47-2.06a17.36,17.36,0,0,0-5.2-.8q-4.71,0-4.71,2.55a3,3,0,0,0,1.52,2.47,40.48,40.48,0,0,0,6.64,3.11,30.74,30.74,0,0,1,6.7,3.45,10.23,10.23,0,0,1,3.14,3.7A11.37,11.37,0,0,1,146.61,268.69Zm24.72,3.81a23,23,0,0,0,6.7-1.23v7.92a23.82,23.82,0,0,1-9.77,1.78q-6.37,0-9.29-3.23t-2.91-9.67v-18.8H151v-4.5l5.86-3.56,3.06-8.23h6.8v8.3h10.92v8H166.69v18.8a4.13,4.13,0,0,0,1.28,3.34A5,5,0,0,0,171.33,272.5Zm39.34,7.77-2.06-5.3h-.28a15.66,15.66,0,0,1-5.52,4.69A17.92,17.92,0,0,1,195.4,281q-5.62,0-8.84-3.21t-3.23-9.14q0-6.19,4.34-9.15t13.1-3.26l6.76-.21v-1.71q0-5.92-6.07-5.93a27.56,27.56,0,0,0-11,2.83L187,244a31.76,31.76,0,0,1,14.92-3.52q7.85,0,12,3.42t4.19,10.39v26Zm-20.4-49a4.53,4.53,0,0,1,1.31-3.49,5.72,5.72,0,0,1,7.15.07,4.59,4.59,0,0,1,1.3,3.42,4.46,4.46,0,0,1-1.32,3.36,5.73,5.73,0,0,1-7.13.05A4.44,4.44,0,0,1,190.27,231.28Zm17.26,30.93-4.11.14q-4.65.13-6.91,1.67a5.26,5.26,0,0,0-2.27,4.67c0,3,1.73,4.5,5.17,4.5a8.22,8.22,0,0,0,5.91-2.12,7.51,7.51,0,0,0,2.21-5.65Zm-3.21-30.93a4.3,4.3,0,0,1,1.42-3.58,5.44,5.44,0,0,1,3.5-1.13,5.11,5.11,0,0,1,3.61,1.25,4.53,4.53,0,0,1,1.34,3.46,4.38,4.38,0,0,1-1.36,3.38,5.09,5.09,0,0,1-3.59,1.25,5.39,5.39,0,0,1-3.5-1.13A4.2,4.2,0,0,1,204.32,231.28Zm46.49,9.27a17,17,0,0,1,3.59.32l-.8,10a12.31,12.31,0,0,0-3.14-.35c-3.39,0-6,.87-7.93,2.62a9.43,9.43,0,0,0-2.85,7.32v19.84H229.05v-39h8l1.57,6.56h.53a14.54,14.54,0,0,1,4.9-5.28A12,12,0,0,1,250.81,240.55Zm20.89,18.52,4.64-5.93,10.91-11.86h12L283.76,258.2l16.43,22.07H287.91l-11.22-15.8-4.57,3.67v12.13H261.48V226h10.64v24.2l-.56,8.86ZM323.42,281q-9.42,0-14.72-5.2t-5.3-14.71q0-9.81,4.9-15.16t13.55-5.35q8.26,0,12.87,4.71t4.6,13v5.16H314.17a10.29,10.29,0,0,0,2.69,7.08,9.46,9.46,0,0,0,7,2.54,29.26,29.26,0,0,0,6.67-.73,33.47,33.47,0,0,0,6.55-2.34v8.23a24.9,24.9,0,0,1-6,2.08A37.88,37.88,0,0,1,323.42,281Zm-1.5-32.85a6.72,6.72,0,0,0-5.3,2.14,9.89,9.89,0,0,0-2.2,6.09h14.92a8.87,8.87,0,0,0-2-6.09A7,7,0,0,0,321.92,248.12Zm62,32.15H373.32V257.5q0-4.22-1.5-6.33a5.45,5.45,0,0,0-4.78-2.11q-4.46,0-6.45,3c-1.32,2-2,5.29-2,9.89v18.34H348v-39h8.12l1.43,5h.6A11.14,11.14,0,0,1,363,242a16.58,16.58,0,0,1,7.09-1.45q6.81,0,10.32,3.68T384,254.85Z"/></g></g></svg>