<?xml version="1.0" encoding="UTF-8"?>
<svg id="Ebene_1" xmlns="http://www.w3.org/2000/svg" version="1.1" viewBox="0 0 340.97 129.57">
  <!-- Generator: Adobe Illustrator 29.1.0, SVG Export Plug-In . SVG Version: 2.1.0 Build 142)  -->
  <defs>
    <style>
      .st0 {
        fill: #fff;
      }
    </style>
  </defs>
  <g>
    <g>
      <path class="st0" d="M105.83,58.64l-.37,3.19c-1.06-.51-2.08-.69-2.68-.69-.88,0-1.43.3-1.43.86,0,.39.37.76,1.43,1.55,2.66,2.01,3.4,3.24,3.4,4.67,0,2.31-2.01,4.03-5.3,4.05-1.46,0-3.05-.39-4.16-.86l.37-3.19c1.32.67,2.59.97,3.42.97,1.09,0,1.57-.39,1.57-.93,0-.42-.28-.88-1.85-2.04-2.34-1.78-2.89-2.71-2.89-4.23,0-2.1,1.74-3.91,5.3-3.91,1.36,0,2.36.28,3.19.56Z"/>
      <path class="st0" d="M118.27,71.64c-.76.42-2.08.6-3.12.6-4.09,0-7.24-2.85-7.24-6.66,0-4.28,3.56-7.45,8.26-7.45,1.2,0,2.59.28,3.45.79l-.39,3.38h-.12c-.79-.62-1.87-.92-3.01-.92-2.38,0-4.19,1.73-4.19,3.98,0,2.13,1.62,3.66,3.77,3.66.99,0,2.11-.21,2.87-.74h.11l-.39,3.38Z"/>
      <path class="st0" d="M133.07,71.82h-3.84l.79-7.54c.21-1.92-.9-2.71-2.2-2.71-1.16,0-2.57.88-2.73,2.48v-.02l-.81,7.8h-3.82l1.92-18.04h3.63l-.67,6.32c.9-.92,2.45-1.9,4.42-1.9,2.61,0,4.53,1.99,4.23,4.97l-.93,8.65Z"/>
      <path class="st0" d="M147.23,58.54l1.71,8.26,3.22-8.26h3.89l-5.78,13.28h-3.54l-1.78-7.94-3.35,7.94h-3.63l-3.05-13.28h3.93l1.46,8.26,3.47-8.26h3.47Z"/>
      <path class="st0" d="M167.75,60.49l.18-1.94h3.82l-1.41,13.28h-3.59l.16-1.6c-1.3,1.27-3.05,2.04-5,2.04-3.54,0-6.08-2.75-6.08-6.39,0-4.3,3.17-7.77,6.99-7.77,2.04,0,3.82.9,4.93,2.38ZM163.82,61.41c-2.17,0-3.96,1.81-3.96,3.98s1.57,3.56,3.56,3.56,3.93-1.73,3.93-4c0-2.06-1.62-3.54-3.54-3.54Z"/>
      <path class="st0" d="M177.51,61.32c.55-.95,2.15-2.85,4.16-2.85h.44l-.51,4.19c-.14-.07-.49-.12-.72-.12-2.04,0-3.49,1.41-3.59,2.38l-.72,6.89h-3.82l1.41-13.28h3.63l-.3,2.78Z"/>
      <path class="st0" d="M181.56,71.5l7.52-9.74h-5.34l1.69-3.22h9.92l.12.32-7.4,9.74h6.43l-1.71,3.22h-11.06l-.16-.32Z"/>
      <path class="st0" d="M207.58,61.32c.55-.95,2.15-2.85,4.16-2.85h.44l-.51,4.19c-.14-.07-.49-.12-.72-.12-2.04,0-3.49,1.41-3.59,2.38l-.72,6.89h-3.82l1.41-13.28h3.63l-.3,2.78Z"/>
      <path class="st0" d="M228.21,64.86c0,4.26-3.59,7.61-8.1,7.61s-7.5-3.08-7.5-6.94c0-4.26,3.56-7.63,8.05-7.63s7.54,3.1,7.54,6.96ZM216.6,65.41c0,2.17,1.53,3.77,3.63,3.77,2.22,0,4-1.9,4-4.23,0-2.13-1.55-3.77-3.63-3.77-2.22,0-4,1.92-4,4.23Z"/>
      <path class="st0" d="M235.04,61.76l-1.04,10.06h-3.82l1.02-10.06h-1.53l.37-3.22h1.55l.35-3.22,3.89-.69-.42,3.91h1.55l-.37,3.22h-1.55Z"/>
      <path class="st0" d="M245.11,53.78h4.12l-.65,6.13c1.27-1.13,2.94-1.8,4.63-1.8,3.42,0,5.97,2.73,5.97,6.5,0,4.3-3.33,7.66-7.8,7.66s-7.87-3.33-7.36-7.96l1.09-10.53ZM251.26,68.68c2.1,0,3.61-1.71,3.61-3.7s-1.53-3.29-3.29-3.29c-1.94,0-3.47,1.57-3.61,3.17-.28,2.41,1.43,3.82,3.29,3.82Z"/>
      <path class="st0" d="M261.74,58.54h3.82l-.79,7.54c-.18,1.94.9,2.71,2.22,2.71,1.18,0,2.59-.93,2.73-2.48l.79-7.77h3.82l-1.41,13.28h-3.63l.18-1.55c-.9.93-2.45,1.9-4.42,1.9-2.68,0-4.53-1.97-4.23-4.93l.93-8.7Z"/>
      <path class="st0" d="M280.22,60.12c.9-.95,2.45-1.92,4.42-1.92,2.61,0,4.53,2.01,4.23,4.97l-.93,8.65h-3.84l.79-7.54c.21-1.92-.9-2.71-2.2-2.71-1.13,0-2.5.83-2.71,2.34l-.83,7.91h-3.82l1.41-13.28h3.66l-.18,1.57Z"/>
      <path class="st0" d="M296.11,61.76l-1.04,10.06h-3.82l1.02-10.06h-1.53l.37-3.22h1.55l.35-3.22,3.89-.69-.42,3.91h1.55l-.37,3.22h-1.55Z"/>
    </g>
    <path class="st0" d="M165.81,78.76l.04-.04h-1.1l-3.26,3.38v-3.38h-.87v7.58h.87v-3.16l.8-.81,2.69,3.96h0s1.07.01,1.07.01l-3.16-4.59,2.91-2.95ZM171.9,82.21c.36-.37.54-.84.54-1.42,0-.77-.33-1.38-.92-1.73-.4-.23-.88-.34-1.44-.34h-2.07v7.58h.87v-3.36h.86l2.08,3.35h0s1.07.01,1.07.01l-2.24-3.44c.51-.11.94-.33,1.25-.65ZM169.65,82.18h-.77v-2.72h.88c.53,0,.93.08,1.21.25.37.2.58.6.58,1.12,0,.49-.18.85-.54,1.08-.35.23-.75.27-1.36.27ZM101.3,79.19c-.41-.31-1.01-.47-1.68-.47h-1.98v7.58h.87v-3.37h.97c.67,0,1.26-.13,1.66-.38.61-.38.95-.99.95-1.73,0-.7-.27-1.26-.78-1.62ZM100.69,81.89c-.28.2-.65.29-1.15.29h-1.04v-2.72h1.08c.45,0,.83.11,1.11.31.33.24.5.6.5,1.06s-.17.83-.5,1.06ZM114.86,78.61c-1.93,0-3.88,1.34-3.88,3.91,0,2.27,1.63,3.91,3.88,3.91,1.05,0,2.02-.37,2.73-1.05.75-.72,1.15-1.71,1.15-2.87s-.4-2.14-1.16-2.86c-.71-.68-1.68-1.05-2.72-1.05ZM116.96,84.81c-.54.54-1.29.83-2.1.83-1.49,0-2.99-1.08-2.99-3.13,0-1.84,1.23-3.12,2.99-3.12s2.99,1.28,2.99,3.12c0,.93-.31,1.72-.89,2.3ZM108.39,82.21c.36-.37.54-.84.54-1.42,0-.77-.33-1.38-.92-1.73-.4-.23-.88-.34-1.44-.34h-2.07v7.58h.87v-3.36h.86l2.08,3.35h0s1.07.01,1.07.01l-2.24-3.44c.51-.11.94-.33,1.25-.65ZM106.14,82.18h-.77v-2.72h.88c.53,0,.93.08,1.21.25.37.2.58.6.58,1.12,0,.49-.18.85-.54,1.08-.35.23-.75.27-1.36.27ZM126.88,78.72h-2.2v7.58h2.2c1.62,0,2.55-.77,2.8-1.01.78-.75,1.18-1.68,1.18-2.77,0-1.5-.72-2.39-1.14-2.79-.24-.24-1.16-1.01-2.83-1.01ZM128.99,84.79h0c-.29.28-.96.75-2.13.75h-1.31v-6.05h1.31c.89,0,1.67.27,2.21.77.57.53.89,1.33.89,2.25,0,1.14-.52,1.87-.96,2.28ZM134.24,82.68h3.21v-.76h-3.21v-2.44h3.41v-.76h-4.27v7.58h4.35v-.76h-3.48v-2.87ZM147.42,78.72h-1.03l-2.36,6.08-2.36-6.07v-.02h-.98l-.72,7.56v.03s.86,0,.86,0l.55-6.13,2.42,6.21v.02h.42l2.5-6.31.56,6.19v.02h.87l-.72-7.56v-.02ZM154.21,78.61c-1.93,0-3.88,1.34-3.88,3.91,0,2.27,1.63,3.91,3.88,3.91,1.05,0,2.02-.37,2.73-1.05.75-.72,1.15-1.71,1.15-2.87s-.4-2.14-1.16-2.86c-.71-.68-1.68-1.05-2.72-1.05ZM156.32,84.81c-.54.54-1.29.83-2.1.83-1.49,0-2.99-1.08-2.99-3.13,0-1.84,1.23-3.12,2.99-3.12s2.99,1.28,2.99,3.12c0,.93-.31,1.72-.89,2.3ZM256.79,82.68h3.21v-.76h-3.21v-2.44h3.41v-.76h-4.27v7.58h4.35v-.76h-3.48v-2.87ZM266.54,79.19c-.41-.31-1.01-.47-1.68-.47h-1.98v7.58h.87v-3.37h.97c.67,0,1.26-.13,1.66-.38.61-.38.95-.99.95-1.73,0-.7-.27-1.26-.78-1.62ZM265.94,81.89c-.28.2-.65.29-1.15.29h-1.04v-2.72h1.08c.45,0,.83.11,1.11.31.33.24.5.6.5,1.06s-.17.83-.5,1.06ZM177.94,78.7h-.65l-3.14,7.57v.03s.89,0,.89,0l.84-2.11h3.42l.83,2.09v.02h.98l-3.16-7.59h0ZM176.18,83.43l1.41-3.53,1.4,3.53h-2.8ZM253.5,79.32h0v-.59h-5.27v.77h4.15l-4.27,6.13h0v.68h5.45v-.77h-4.42l4.35-6.22ZM289.32,84.89l-4.58-6.16h0s-.89-.01-.89-.01v7.58h.87v-3.67c0-.61,0-1.23,0-1.74,0-.33,0-.63,0-.85l4.64,6.24h0s.82.01.82.01v-7.58h-.86v6.17ZM293.62,85.53l4.35-6.22h0v-.59h-5.27v.77h4.15l-4.27,6.13h0v.68h5.45v-.77h-4.42ZM278.57,78.7h-.65l-3.14,7.57v.03s.89,0,.89,0l.84-2.11h3.42l.83,2.09v.02h.98l-3.16-7.59h0ZM276.81,83.43l1.41-3.53,1.4,3.53h-2.8ZM246.48,78.76l.04-.04h-1.1l-3.26,3.38v-3.38h-.87v7.58h.87v-3.16l.8-.81,2.69,3.96h0s1.07.01,1.07.01l-3.16-4.59,2.91-2.95ZM268.95,79.47h2.19v6.84h.87v-6.84h2.18v-.75h-5.24v.75ZM188.98,86.3h.87v-7.58h-.87v7.58ZM181.56,79.47h2.19v6.84h.87v-6.84h2.18v-.75h-5.24v.75ZM193.67,82.68h3.21v-.76h-3.21v-2.44h3.41v-.76h-4.27v7.58h4.35v-.76h-3.48v-2.87ZM207.85,83.2c0,.62-.03,1.27-.37,1.72-.36.47-.9.72-1.57.72s-1.23-.27-1.55-.71c-.35-.47-.38-1.11-.38-1.73v-4.48h-.87v4.5c0,.85.04,1.67.57,2.31.49.6,1.24.9,2.22.9s1.73-.32,2.22-.93c.53-.64.57-1.48.57-2.29v-4.5h-.87v4.48ZM223.1,78.72h-2.2v7.58h2.2c1.62,0,2.55-.77,2.8-1.01.78-.75,1.18-1.68,1.18-2.77,0-1.5-.72-2.39-1.14-2.79-.24-.24-1.16-1.01-2.83-1.01ZM225.22,84.79h0c-.29.28-.96.75-2.13.75h-1.31v-6.05h1.31c.89,0,1.67.27,2.21.77.57.53.89,1.33.89,2.25,0,1.14-.52,1.87-.96,2.28ZM217.08,84.89l-4.58-6.16h0s-.89-.01-.89-.01v7.58h.87v-3.67c0-.61,0-1.23,0-1.74,0-.33,0-.63,0-.85l4.64,6.24h0s.82.01.82.01v-7.58h-.86v6.17ZM235.99,78.7h-.65l-3.14,7.57v.03s.89,0,.89,0l.84-2.11h3.42l.83,2.09v.02h.98l-3.16-7.59h0ZM234.23,83.43l1.41-3.53,1.4,3.53h-2.8Z"/>
    <path class="st0" d="M100.47,46.76l-1.03-.44c-.62-.26-1.03-.57-1.03-1.26s.57-1.14,1.41-1.14c.62,0,1.14.26,1.6.8l.02.03.51-.57.02-.02-.02-.02c-.24-.3-.92-.98-2.09-.98s-2.35.68-2.35,1.97c0,.9.41,1.49,1.29,1.86l1.11.48c.68.3,1.31.68,1.31,1.44s-.6,1.3-1.53,1.3c-.81,0-1.56-.69-1.86-1.15l-.02-.03-.59.56-.02.02v.02c.45.66,1.3,1.36,2.39,1.36.8,0,1.49-.25,1.95-.72.38-.38.58-.89.58-1.47,0-1.16-.8-1.67-1.67-2.04ZM104.01,44.01h2.19v6.84h.88v-6.84h2.18v-.76h-5.26v.76ZM111.7,50.85h.88v-7.6h-.88v7.6ZM115.8,50.85h.88v-3.37h2.99v-.78h-2.99v-2.68h3.19v-.78h-4.07v7.6ZM121.82,44.01h2.19v6.84h.88v-6.84h2.18v-.76h-5.26v.76ZM134.18,47.74c0,.62-.03,1.26-.36,1.72-.36.47-.89.72-1.56.72s-1.22-.27-1.55-.71c-.35-.46-.38-1.11-.38-1.73v-4.49h-.88v4.51c0,.85.04,1.67.57,2.31.49.6,1.24.91,2.23.91s1.73-.32,2.23-.93c.53-.65.57-1.45.57-2.29v-4.51h-.88v4.49ZM143.7,49.4l-4.56-6.13h-.01s-.9-.01-.9-.01v7.6h.88v-3.68c0-.61,0-1.22,0-1.74,0-.32,0-.6,0-.82l4.63,6.22h.01s.84.01.84.01v-7.6h-.87v6.15ZM151.35,46.86v.76h2.17v1.81c-.08.08-.72.72-2.27.72-1.77,0-3-1.28-3-3.11s1.2-3.12,2.93-3.12c.98,0,1.8.38,2.44,1.13l.02.03.58-.58.02-.02-.06-.07c-.32-.35-1.17-1.28-3.01-1.28-2.22,0-3.83,1.64-3.83,3.91s1.59,3.93,3.86,3.93c2.12,0,3.02-1,3.18-1.2h0v-2.91h-3.04Z"/>
  </g>
  <g>
    <polygon class="st0" points="71.55 57.66 71.55 71.97 85.86 57.66 71.55 57.66"/>
    <polygon class="st0" points="71.55 43.35 71.55 57.66 85.86 43.35 71.55 43.35"/>
    <polygon class="st0" points="57.24 57.66 57.24 71.97 71.55 57.66 57.24 57.66"/>
    <polygon class="st0" points="57.24 43.35 57.24 57.66 71.55 43.35 57.24 43.35"/>
    <polygon class="st0" points="42.93 57.66 42.93 71.97 57.24 57.66 42.93 57.66"/>
    <polygon class="st0" points="57.24 71.97 57.24 86.28 71.55 71.97 57.24 71.97"/>
    <polygon class="st0" points="42.93 71.97 42.93 86.28 57.24 71.97 42.93 71.97"/>
    <polygon class="st0" points="42.93 43.35 42.93 57.66 57.24 43.35 42.93 43.35"/>
  </g>
  <polygon class="st0" points="200.43 71.82 196.17 71.82 196.62 67.57 200.88 67.57 200.43 71.82"/>
  <polygon class="st0" points="240.99 71.82 236.73 71.82 237.18 67.57 241.44 67.57 240.99 71.82"/>
</svg>