<?xml version="1.0" encoding="utf-8"?>
<!-- Generator: Adobe Illustrator 26.3.1, SVG Export Plug-In . SVG Version: 6.00 Build 0)  -->
<svg version="1.1" id="Ebene_1" xmlns="http://www.w3.org/2000/svg" xmlns:xlink="http://www.w3.org/1999/xlink" x="0px" y="0px"
	 viewBox="0 0 453.54 113.39" style="enable-background:new 0 0 453.54 113.39;" xml:space="preserve">
<style type="text/css">
	.st0{fill:#565555;}
	.st1{font-family:'MyriadPro-Regular';}
	.st2{font-size:19px;}
	.st3{fill:#2B7BBC;}
</style>
<g>
	<g>
		<path class="st0" d="M17.1,91.55v-58.8h28.73c7.39,0,12.95,1.4,16.67,4.2c3.72,2.8,5.59,6.5,5.59,11.09
			c0,3.08-0.76,5.75-2.27,8.02c-1.51,2.27-3.6,4.02-6.26,5.25c-2.66,1.23-5.67,1.85-9.03,1.85l1.6-3.53c3.7,0,6.96,0.62,9.79,1.85
			c2.83,1.23,5.05,3.02,6.68,5.38c1.62,2.35,2.44,5.24,2.44,8.65c0,5.04-1.99,8.97-5.96,11.8c-3.98,2.83-9.83,4.24-17.56,4.24H17.1z
			 M30.63,81.3h15.96c3.47,0,6.13-0.59,7.98-1.76c1.85-1.18,2.77-3,2.77-5.46c0-2.52-0.92-4.37-2.77-5.54
			c-1.85-1.18-4.51-1.76-7.98-1.76H29.62v-9.91h14.53c3.3,0,5.84-0.57,7.6-1.72c1.76-1.15,2.65-2.9,2.65-5.25
			c0-2.35-0.88-4.09-2.65-5.21c-1.76-1.12-4.3-1.68-7.6-1.68H30.63V81.3z"/>
		<path class="st0" d="M89.43,91.55L70.44,46.36h13.44l15.79,38.89h-6.72l16.46-38.89h12.52l-19.07,45.19H89.43z"/>
		<path class="st0" d="M124.96,91.55v-58.8h28.73c7.39,0,12.95,1.4,16.67,4.2c3.72,2.8,5.59,6.5,5.59,11.09
			c0,3.08-0.76,5.75-2.27,8.02c-1.51,2.27-3.6,4.02-6.26,5.25c-2.66,1.23-5.67,1.85-9.03,1.85l1.6-3.53c3.7,0,6.96,0.62,9.79,1.85
			c2.83,1.23,5.05,3.02,6.68,5.38c1.62,2.35,2.44,5.24,2.44,8.65c0,5.04-1.99,8.97-5.96,11.8c-3.98,2.83-9.83,4.24-17.56,4.24
			H124.96z M138.48,81.3h15.96c3.47,0,6.13-0.59,7.98-1.76c1.85-1.18,2.77-3,2.77-5.46c0-2.52-0.92-4.37-2.77-5.54
			c-1.85-1.18-4.51-1.76-7.98-1.76h-16.97v-9.91h14.53c3.3,0,5.84-0.57,7.6-1.72c1.76-1.15,2.65-2.9,2.65-5.25
			c0-2.35-0.88-4.09-2.65-5.21c-1.76-1.12-4.3-1.68-7.6-1.68h-13.52V81.3z"/>
		<path class="st0" d="M185.86,91.55v-58.8h28.73c7.39,0,12.95,1.4,16.67,4.2c3.72,2.8,5.59,6.5,5.59,11.09
			c0,3.08-0.76,5.75-2.27,8.02c-1.51,2.27-3.6,4.02-6.26,5.25c-2.66,1.23-5.67,1.85-9.03,1.85l1.6-3.53c3.7,0,6.96,0.62,9.79,1.85
			c2.83,1.23,5.05,3.02,6.68,5.38c1.62,2.35,2.44,5.24,2.44,8.65c0,5.04-1.99,8.97-5.96,11.8c-3.98,2.83-9.83,4.24-17.56,4.24
			H185.86z M199.38,81.3h15.96c3.47,0,6.13-0.59,7.98-1.76c1.85-1.18,2.77-3,2.77-5.46c0-2.52-0.92-4.37-2.77-5.54
			c-1.85-1.18-4.51-1.76-7.98-1.76h-16.97v-9.91h14.53c3.3,0,5.84-0.57,7.6-1.72c1.76-1.15,2.65-2.9,2.65-5.25
			c0-2.35-0.88-4.09-2.65-5.21c-1.76-1.12-4.3-1.68-7.6-1.68h-13.52V81.3z"/>
		<path class="st0" d="M246.84,91.55v-58.8h13.69v58.8H246.84z"/>
	</g>
</g>
<g>
	<g>
		<path class="st0" d="M272.79,43.97v-13.3h6.5c1.67,0,2.93,0.32,3.77,0.95c0.84,0.63,1.26,1.47,1.26,2.51c0,0.7-0.17,1.3-0.51,1.81
			c-0.34,0.51-0.81,0.91-1.42,1.19s-1.28,0.42-2.04,0.42l0.36-0.8c0.84,0,1.57,0.14,2.21,0.42s1.14,0.68,1.51,1.22
			c0.37,0.53,0.55,1.18,0.55,1.96c0,1.14-0.45,2.03-1.35,2.67c-0.9,0.64-2.22,0.96-3.97,0.96H272.79z M275.85,41.65h3.61
			c0.79,0,1.39-0.13,1.8-0.4c0.42-0.27,0.63-0.68,0.63-1.24c0-0.57-0.21-0.99-0.63-1.25c-0.42-0.27-1.02-0.4-1.8-0.4h-3.84v-2.24
			h3.29c0.75,0,1.32-0.13,1.72-0.39c0.4-0.26,0.6-0.66,0.6-1.19s-0.2-0.92-0.6-1.18c-0.4-0.25-0.97-0.38-1.72-0.38h-3.06V41.65z"/>
		<path class="st0" d="M291.43,44.12c-0.86,0-1.62-0.17-2.28-0.49c-0.66-0.33-1.17-0.84-1.54-1.52c-0.37-0.68-0.55-1.54-0.55-2.58
			v-5.78h2.96v5.32c0,0.86,0.18,1.49,0.54,1.89c0.36,0.4,0.87,0.6,1.53,0.6c0.46,0,0.86-0.1,1.22-0.3c0.35-0.2,0.64-0.51,0.85-0.91
			s0.31-0.91,0.31-1.52v-5.07h2.94v10.22h-2.81v-2.83l0.51,0.84c-0.35,0.71-0.86,1.24-1.52,1.61
			C292.93,43.94,292.21,44.12,291.43,44.12z"/>
		<path class="st0" d="M306.38,33.59c0.81,0,1.54,0.16,2.18,0.48s1.14,0.82,1.51,1.48c0.37,0.67,0.55,1.52,0.55,2.56v5.85h-2.96
			v-5.4c0-0.82-0.18-1.43-0.54-1.82c-0.36-0.39-0.87-0.59-1.53-0.59c-0.47,0-0.89,0.1-1.26,0.3c-0.37,0.2-0.67,0.5-0.87,0.89
			c-0.21,0.39-0.31,0.91-0.31,1.56v5.05h-2.96V33.75H303v2.83l-0.53-0.86c0.37-0.68,0.89-1.21,1.58-1.58
			C304.73,33.78,305.51,33.59,306.38,33.59z"/>
		<path class="st0" d="M317.68,44.12c-0.96,0-1.83-0.22-2.6-0.66c-0.77-0.44-1.38-1.05-1.82-1.83s-0.67-1.71-0.67-2.77
			c0-1.06,0.22-1.99,0.67-2.77s1.05-1.4,1.82-1.83c0.77-0.44,1.64-0.66,2.6-0.66c0.86,0,1.62,0.19,2.26,0.57
			c0.65,0.38,1.15,0.96,1.5,1.73c0.35,0.77,0.53,1.76,0.53,2.96c0,1.19-0.17,2.18-0.51,2.96c-0.34,0.79-0.83,1.37-1.47,1.74
			C319.35,43.93,318.58,44.12,317.68,44.12z M318.18,41.69c0.49,0,0.94-0.11,1.33-0.33s0.71-0.55,0.94-0.98s0.35-0.94,0.35-1.52
			c0-0.59-0.12-1.1-0.35-1.52s-0.55-0.74-0.94-0.96c-0.39-0.22-0.84-0.33-1.33-0.33c-0.48,0-0.92,0.11-1.31,0.33
			c-0.39,0.22-0.71,0.54-0.94,0.96s-0.35,0.92-0.35,1.52c0,0.58,0.12,1.09,0.35,1.52s0.55,0.76,0.94,0.98S317.7,41.69,318.18,41.69z
			 M320.88,43.97v-2.09l0.06-3.04l-0.19-3.02v-5.95h2.96v14.1H320.88z"/>
		<path class="st0" d="M331.52,44.12c-1.17,0-2.18-0.23-3.06-0.68s-1.55-1.08-2.03-1.87s-0.72-1.69-0.72-2.71
			c0-1.01,0.23-1.92,0.69-2.72c0.46-0.8,1.11-1.42,1.94-1.87c0.83-0.45,1.76-0.67,2.8-0.67c1,0,1.9,0.22,2.71,0.65
			c0.8,0.43,1.44,1.04,1.91,1.82c0.47,0.79,0.7,1.73,0.7,2.83c0,0.11-0.01,0.24-0.02,0.39s-0.03,0.28-0.04,0.41h-8.3v-1.73h6.75
			l-1.16,0.51c0.01-0.53-0.09-0.99-0.3-1.39c-0.22-0.39-0.51-0.7-0.89-0.92c-0.38-0.22-0.82-0.33-1.33-0.33
			c-0.51,0-0.95,0.11-1.34,0.33c-0.39,0.22-0.69,0.53-0.9,0.93c-0.22,0.4-0.32,0.87-0.32,1.42v0.46c0,0.57,0.13,1.06,0.38,1.48
			c0.25,0.42,0.6,0.74,1.04,0.96s0.98,0.33,1.6,0.33c0.53,0,1-0.08,1.42-0.25c0.41-0.17,0.79-0.41,1.13-0.74l1.58,1.71
			c-0.47,0.53-1.06,0.94-1.77,1.23S332.44,44.12,331.52,44.12z"/>
		<path class="st0" d="M341.87,44.12c-0.87,0-1.71-0.1-2.51-0.31c-0.8-0.21-1.44-0.47-1.92-0.79l0.97-2.11
			c0.48,0.28,1.04,0.51,1.68,0.69s1.27,0.28,1.89,0.28c0.68,0,1.17-0.08,1.45-0.25s0.43-0.39,0.43-0.68c0-0.24-0.11-0.42-0.33-0.54
			s-0.51-0.21-0.87-0.28s-0.76-0.13-1.21-0.19c-0.44-0.06-0.88-0.15-1.32-0.27c-0.44-0.11-0.84-0.28-1.22-0.48s-0.67-0.5-0.89-0.86
			s-0.33-0.84-0.33-1.43c0-0.65,0.19-1.22,0.57-1.72c0.38-0.5,0.92-0.89,1.62-1.17c0.7-0.28,1.54-0.42,2.53-0.42
			c0.71,0,1.42,0.08,2.14,0.24c0.72,0.16,1.32,0.38,1.81,0.66l-1.01,2.11c-0.48-0.28-0.97-0.47-1.47-0.59s-0.98-0.17-1.43-0.17
			c-0.68,0-1.18,0.09-1.48,0.27c-0.3,0.18-0.46,0.41-0.46,0.68c0,0.25,0.11,0.45,0.34,0.58s0.53,0.23,0.89,0.29s0.77,0.13,1.22,0.19
			c0.44,0.06,0.88,0.15,1.31,0.27c0.43,0.11,0.83,0.28,1.21,0.48c0.37,0.21,0.67,0.5,0.89,0.86s0.33,0.84,0.33,1.42
			c0,0.62-0.19,1.17-0.57,1.66c-0.38,0.49-0.93,0.87-1.64,1.15C343.77,43.98,342.9,44.12,341.87,44.12z"/>
		<path class="st0" d="M351.31,43.97l-4.29-10.22h3.04l3.57,8.8h-1.52l3.72-8.8h2.83l-4.31,10.22H351.31z"/>
		<path class="st0" d="M364.78,44.12c-1.17,0-2.18-0.23-3.06-0.68s-1.55-1.08-2.03-1.87s-0.72-1.69-0.72-2.71
			c0-1.01,0.23-1.92,0.69-2.72c0.46-0.8,1.11-1.42,1.94-1.87c0.83-0.45,1.76-0.67,2.8-0.67c1,0,1.9,0.22,2.71,0.65
			c0.8,0.43,1.44,1.04,1.91,1.82c0.47,0.79,0.7,1.73,0.7,2.83c0,0.11-0.01,0.24-0.02,0.39s-0.03,0.28-0.04,0.41h-8.3v-1.73h6.75
			l-1.16,0.51c0.01-0.53-0.09-0.99-0.3-1.39c-0.22-0.39-0.51-0.7-0.89-0.92c-0.38-0.22-0.82-0.33-1.33-0.33
			c-0.51,0-0.95,0.11-1.34,0.33c-0.39,0.22-0.69,0.53-0.9,0.93c-0.22,0.4-0.32,0.87-0.32,1.42v0.46c0,0.57,0.13,1.06,0.38,1.48
			c0.25,0.42,0.6,0.74,1.04,0.96s0.98,0.33,1.6,0.33c0.53,0,1-0.08,1.42-0.25c0.41-0.17,0.79-0.41,1.13-0.74l1.58,1.71
			c-0.47,0.53-1.06,0.94-1.77,1.23S365.71,44.12,364.78,44.12z"/>
		<path class="st0" d="M371.7,43.97V33.75h2.83v2.91l-0.4-0.85c0.3-0.72,0.79-1.27,1.46-1.64c0.67-0.37,1.49-0.56,2.45-0.56v2.75
			c-0.11-0.03-0.22-0.04-0.33-0.06s-0.21-0.02-0.31-0.02c-0.84,0-1.5,0.23-2,0.7s-0.74,1.19-0.74,2.17v4.83H371.7z"/>
		<path class="st0" d="M379.95,43.97v-14.1h2.96v5.95l-0.19,3.02l0.06,3.04v2.09H379.95z M385.97,44.12c-0.87,0-1.64-0.19-2.29-0.56
			c-0.65-0.37-1.15-0.95-1.49-1.74c-0.34-0.79-0.51-1.77-0.51-2.96c0-1.2,0.18-2.19,0.54-2.96c0.36-0.77,0.86-1.35,1.51-1.73
			c0.65-0.38,1.39-0.57,2.24-0.57c0.97,0,1.85,0.22,2.61,0.66c0.77,0.44,1.37,1.05,1.82,1.83c0.45,0.79,0.67,1.71,0.67,2.77
			c0,1.06-0.22,1.99-0.67,2.77c-0.45,0.79-1.06,1.4-1.82,1.83C387.82,43.9,386.94,44.12,385.97,44.12z M385.48,41.69
			c0.49,0,0.93-0.11,1.32-0.33c0.39-0.22,0.7-0.55,0.93-0.98s0.35-0.94,0.35-1.52c0-0.59-0.12-1.1-0.35-1.52s-0.54-0.74-0.93-0.96
			c-0.39-0.22-0.83-0.33-1.32-0.33s-0.94,0.11-1.33,0.33c-0.39,0.22-0.71,0.54-0.94,0.96s-0.35,0.92-0.35,1.52
			c0,0.58,0.12,1.09,0.35,1.52s0.55,0.76,0.94,0.98S384.98,41.69,385.48,41.69z"/>
		<path class="st0" d="M396.21,44.12c-0.79,0-1.46-0.14-2.03-0.41c-0.57-0.27-1.01-0.64-1.32-1.11s-0.46-0.99-0.46-1.58
			c0-0.59,0.15-1.12,0.45-1.59c0.3-0.46,0.77-0.82,1.42-1.07c0.65-0.25,1.5-0.38,2.55-0.38h2.7v1.71h-2.39
			c-0.7,0-1.18,0.11-1.43,0.34c-0.26,0.23-0.39,0.51-0.39,0.85c0,0.38,0.15,0.68,0.45,0.9c0.3,0.22,0.7,0.33,1.21,0.33
			c0.51,0,0.96-0.11,1.36-0.34c0.4-0.23,0.68-0.58,0.85-1.05l0.46,1.39c-0.21,0.63-0.61,1.12-1.18,1.47S397.11,44.12,396.21,44.12z
			 M399.33,43.97v-2l-0.19-0.44v-3.57c0-0.63-0.19-1.13-0.58-1.48c-0.39-0.35-0.98-0.53-1.78-0.53c-0.54,0-1.08,0.08-1.61,0.26
			s-0.98,0.4-1.36,0.69l-1.04-2.07c0.56-0.41,1.23-0.71,2.01-0.92s1.58-0.31,2.39-0.31c1.56,0,2.77,0.37,3.63,1.1
			c0.86,0.74,1.29,1.88,1.29,3.44v5.83H399.33z"/>
		<path class="st0" d="M410.99,33.59c0.81,0,1.54,0.16,2.17,0.48s1.14,0.82,1.51,1.48s0.55,1.52,0.55,2.56v5.85h-2.96v-5.4
			c0-0.82-0.18-1.43-0.54-1.82c-0.36-0.39-0.87-0.59-1.53-0.59c-0.47,0-0.89,0.1-1.26,0.3c-0.37,0.2-0.67,0.5-0.87,0.89
			c-0.21,0.39-0.31,0.91-0.31,1.56v5.05h-2.96V33.75h2.83v2.83l-0.53-0.86c0.37-0.68,0.89-1.21,1.58-1.58
			C409.34,33.78,410.12,33.59,410.99,33.59z"/>
		<path class="st0" d="M422.3,44.12c-0.96,0-1.83-0.22-2.6-0.66c-0.77-0.44-1.38-1.05-1.82-1.83c-0.44-0.79-0.67-1.71-0.67-2.77
			c0-1.06,0.22-1.99,0.67-2.77c0.44-0.79,1.05-1.4,1.82-1.83c0.77-0.44,1.64-0.66,2.6-0.66c0.86,0,1.62,0.19,2.26,0.57
			c0.65,0.38,1.15,0.96,1.5,1.73c0.35,0.77,0.53,1.76,0.53,2.96c0,1.19-0.17,2.18-0.51,2.96c-0.34,0.79-0.83,1.37-1.47,1.74
			C423.97,43.93,423.2,44.12,422.3,44.12z M422.79,41.69c0.49,0,0.94-0.11,1.33-0.33s0.71-0.55,0.94-0.98s0.35-0.94,0.35-1.52
			c0-0.59-0.12-1.1-0.35-1.52s-0.55-0.74-0.94-0.96c-0.39-0.22-0.84-0.33-1.33-0.33c-0.48,0-0.92,0.11-1.31,0.33
			c-0.39,0.22-0.71,0.54-0.94,0.96s-0.35,0.92-0.35,1.52c0,0.58,0.12,1.09,0.35,1.52s0.55,0.76,0.94,0.98S422.31,41.69,422.79,41.69
			z M425.49,43.97v-2.09l0.06-3.04l-0.19-3.02v-5.95h2.96v14.1H425.49z"/>
	</g>
</g>
<g>
	<g>
		<path class="st0" d="M272.79,64.96v-13.3h6.5c1.67,0,2.93,0.32,3.77,0.95c0.84,0.63,1.26,1.47,1.26,2.51c0,0.7-0.17,1.3-0.51,1.81
			c-0.34,0.51-0.81,0.91-1.42,1.19s-1.28,0.42-2.04,0.42l0.36-0.8c0.84,0,1.57,0.14,2.21,0.42s1.14,0.68,1.51,1.22
			c0.37,0.53,0.55,1.18,0.55,1.96c0,1.14-0.45,2.03-1.35,2.67c-0.9,0.64-2.22,0.96-3.97,0.96H272.79z M275.85,62.64h3.61
			c0.79,0,1.39-0.13,1.8-0.4c0.42-0.27,0.63-0.68,0.63-1.24c0-0.57-0.21-0.99-0.63-1.25c-0.42-0.27-1.02-0.4-1.8-0.4h-3.84v-2.24
			h3.29c0.75,0,1.32-0.13,1.72-0.39c0.4-0.26,0.6-0.66,0.6-1.19s-0.2-0.92-0.6-1.18c-0.4-0.25-0.97-0.38-1.72-0.38h-3.06V62.64z"/>
		<path class="st0" d="M292.26,65.11c-1.17,0-2.18-0.23-3.06-0.68s-1.55-1.08-2.03-1.87s-0.72-1.69-0.72-2.71
			c0-1.01,0.23-1.92,0.69-2.72c0.46-0.8,1.11-1.42,1.94-1.87c0.83-0.45,1.76-0.67,2.8-0.67c1,0,1.9,0.22,2.71,0.65
			c0.8,0.43,1.44,1.04,1.91,1.82c0.47,0.79,0.7,1.73,0.7,2.83c0,0.11-0.01,0.24-0.02,0.39s-0.03,0.28-0.04,0.41h-8.3v-1.73h6.75
			l-1.16,0.51c0.01-0.53-0.09-0.99-0.3-1.39c-0.22-0.39-0.51-0.7-0.89-0.92c-0.38-0.22-0.82-0.33-1.33-0.33
			c-0.51,0-0.95,0.11-1.34,0.33c-0.39,0.22-0.69,0.53-0.9,0.93c-0.22,0.4-0.32,0.87-0.32,1.42v0.46c0,0.57,0.13,1.06,0.38,1.48
			c0.25,0.42,0.6,0.74,1.04,0.96s0.98,0.33,1.6,0.33c0.53,0,1-0.08,1.42-0.25c0.41-0.17,0.79-0.41,1.13-0.74l1.58,1.71
			c-0.47,0.53-1.06,0.94-1.77,1.23S293.19,65.11,292.26,65.11z"/>
		<path class="st0" d="M299.18,64.96V54.74h2.83v2.91l-0.4-0.85c0.3-0.72,0.79-1.27,1.46-1.64c0.67-0.37,1.49-0.56,2.45-0.56v2.75
			c-0.11-0.03-0.23-0.04-0.33-0.06s-0.21-0.02-0.31-0.02c-0.84,0-1.5,0.23-1.99,0.7c-0.49,0.47-0.74,1.19-0.74,2.17v4.83H299.18z"/>
		<path class="st0" d="M311.68,65.11c-0.86,0-1.62-0.17-2.28-0.49c-0.66-0.33-1.17-0.84-1.54-1.52c-0.37-0.68-0.55-1.54-0.55-2.58
			v-5.78h2.96v5.32c0,0.86,0.18,1.49,0.54,1.89c0.36,0.4,0.87,0.6,1.53,0.6c0.46,0,0.86-0.1,1.22-0.3c0.35-0.2,0.64-0.51,0.85-0.91
			s0.31-0.91,0.31-1.52v-5.07h2.94v10.22h-2.81v-2.83l0.51,0.84c-0.35,0.71-0.86,1.24-1.52,1.61
			C313.19,64.93,312.47,65.11,311.68,65.11z"/>
		<path class="st0" d="M319.2,57.25v-2.28h7.09v2.28H319.2z M320.78,64.96V54.51c0-1.17,0.34-2.09,1.03-2.77
			c0.68-0.68,1.66-1.03,2.93-1.03c0.42,0,0.83,0.04,1.23,0.13c0.41,0.09,0.75,0.22,1.03,0.4l-0.78,2.17
			c-0.17-0.11-0.35-0.2-0.55-0.27c-0.2-0.06-0.42-0.09-0.65-0.09c-0.43,0-0.76,0.12-1,0.36s-0.35,0.62-0.35,1.14v0.95l0.09,1.25
			v8.21H320.78z"/>
		<path class="st0" d="M331.06,65.11c-0.87,0-1.71-0.1-2.51-0.31c-0.8-0.21-1.44-0.47-1.92-0.79l0.97-2.11
			c0.48,0.28,1.04,0.51,1.68,0.69s1.27,0.28,1.89,0.28c0.68,0,1.17-0.08,1.45-0.25s0.43-0.39,0.43-0.68c0-0.24-0.11-0.42-0.33-0.54
			s-0.51-0.21-0.87-0.28s-0.76-0.13-1.21-0.19c-0.44-0.06-0.88-0.15-1.32-0.27c-0.44-0.11-0.84-0.28-1.22-0.48s-0.67-0.5-0.89-0.86
			s-0.33-0.84-0.33-1.43c0-0.65,0.19-1.22,0.57-1.72c0.38-0.5,0.92-0.89,1.62-1.17c0.7-0.28,1.54-0.42,2.53-0.42
			c0.71,0,1.42,0.08,2.14,0.24c0.72,0.16,1.32,0.38,1.81,0.66l-1.01,2.11c-0.48-0.28-0.97-0.47-1.47-0.59s-0.98-0.17-1.43-0.17
			c-0.68,0-1.18,0.09-1.48,0.27c-0.3,0.18-0.46,0.41-0.46,0.68c0,0.25,0.11,0.45,0.34,0.58s0.53,0.23,0.89,0.29s0.77,0.13,1.22,0.19
			c0.44,0.06,0.88,0.15,1.31,0.27c0.43,0.11,0.83,0.28,1.21,0.48c0.37,0.21,0.67,0.5,0.89,0.86s0.33,0.84,0.33,1.42
			c0,0.62-0.19,1.17-0.57,1.66c-0.38,0.49-0.93,0.87-1.64,1.15C332.96,64.97,332.09,65.11,331.06,65.11z"/>
		<path class="st0" d="M337.71,64.96v-14.1h2.96v5.95l-0.19,3.02l0.06,3.04v2.09H337.71z M343.73,65.11c-0.87,0-1.64-0.19-2.29-0.56
			c-0.65-0.37-1.15-0.95-1.49-1.74c-0.34-0.79-0.51-1.77-0.51-2.96c0-1.2,0.18-2.19,0.54-2.96c0.36-0.77,0.86-1.35,1.51-1.73
			c0.65-0.38,1.39-0.57,2.24-0.57c0.98,0,1.85,0.22,2.61,0.66c0.77,0.44,1.38,1.05,1.82,1.83s0.67,1.71,0.67,2.77
			c0,1.06-0.23,1.99-0.67,2.77s-1.06,1.4-1.82,1.83C345.58,64.9,344.71,65.11,343.73,65.11z M343.24,62.68
			c0.49,0,0.93-0.11,1.32-0.33c0.39-0.22,0.7-0.55,0.93-0.98s0.35-0.94,0.35-1.52c0-0.59-0.12-1.1-0.35-1.52s-0.54-0.74-0.93-0.96
			c-0.39-0.22-0.83-0.33-1.32-0.33s-0.94,0.11-1.33,0.33c-0.39,0.22-0.71,0.54-0.94,0.96s-0.35,0.92-0.35,1.52
			c0,0.58,0.12,1.09,0.35,1.52s0.55,0.76,0.94,0.98S342.74,62.68,343.24,62.68z"/>
		<path class="st0" d="M352.3,53.31c-0.56,0-1.01-0.16-1.35-0.47s-0.51-0.71-0.51-1.18s0.17-0.86,0.51-1.18
			c0.34-0.32,0.79-0.48,1.35-0.48c0.54,0,0.99,0.15,1.34,0.45c0.35,0.3,0.52,0.68,0.52,1.15c0,0.49-0.17,0.9-0.51,1.23
			C353.31,53.15,352.86,53.31,352.3,53.31z M350.82,64.96V54.74h2.96v10.22H350.82z"/>
		<path class="st0" d="M356.54,64.96v-14.1h2.96v14.1H356.54z"/>
		<path class="st0" d="M366.65,65.11c-0.96,0-1.83-0.22-2.6-0.66c-0.77-0.44-1.38-1.05-1.82-1.83c-0.44-0.79-0.67-1.71-0.67-2.77
			c0-1.06,0.22-1.99,0.67-2.77c0.44-0.79,1.05-1.4,1.82-1.83c0.77-0.44,1.64-0.66,2.6-0.66c0.86,0,1.62,0.19,2.26,0.57
			c0.65,0.38,1.15,0.96,1.5,1.73c0.35,0.77,0.53,1.76,0.53,2.96c0,1.19-0.17,2.18-0.51,2.96c-0.34,0.79-0.83,1.37-1.47,1.74
			C368.32,64.93,367.55,65.11,366.65,65.11z M367.14,62.68c0.49,0,0.94-0.11,1.33-0.33s0.71-0.55,0.94-0.98s0.35-0.94,0.35-1.52
			c0-0.59-0.12-1.1-0.35-1.52s-0.55-0.74-0.94-0.96c-0.39-0.22-0.84-0.33-1.33-0.33c-0.48,0-0.92,0.11-1.31,0.33
			c-0.39,0.22-0.71,0.54-0.94,0.96s-0.35,0.92-0.35,1.52c0,0.58,0.12,1.09,0.35,1.52s0.55,0.76,0.94,0.98S366.66,62.68,367.14,62.68
			z M369.84,64.96v-2.09l0.06-3.04l-0.19-3.02v-5.95h2.96v14.1H369.84z"/>
		<path class="st0" d="M379.72,65.11c-0.86,0-1.62-0.17-2.28-0.49c-0.66-0.33-1.17-0.84-1.54-1.52c-0.37-0.68-0.55-1.54-0.55-2.58
			v-5.78h2.96v5.32c0,0.86,0.18,1.49,0.54,1.89c0.36,0.4,0.87,0.6,1.53,0.6c0.46,0,0.86-0.1,1.22-0.3c0.35-0.2,0.64-0.51,0.85-0.91
			s0.31-0.91,0.31-1.52v-5.07h2.95v10.22h-2.81v-2.83l0.51,0.84c-0.36,0.71-0.86,1.24-1.52,1.61S380.5,65.11,379.72,65.11z"/>
		<path class="st0" d="M394.67,54.59c0.81,0,1.54,0.16,2.18,0.48s1.14,0.82,1.51,1.48c0.37,0.67,0.55,1.52,0.55,2.56v5.85h-2.96
			v-5.4c0-0.82-0.18-1.43-0.54-1.82c-0.36-0.39-0.87-0.59-1.53-0.59c-0.47,0-0.89,0.1-1.26,0.3c-0.37,0.2-0.67,0.5-0.87,0.89
			c-0.21,0.39-0.31,0.91-0.31,1.56v5.05h-2.96V54.74h2.83v2.83l-0.53-0.86c0.37-0.68,0.89-1.21,1.58-1.58
			C393.02,54.77,393.8,54.59,394.67,54.59z"/>
		<path class="st0" d="M405.92,64.47c-0.92,0-1.77-0.21-2.55-0.62c-0.77-0.41-1.39-0.99-1.84-1.73c-0.46-0.74-0.68-1.61-0.68-2.59
			c0-1,0.23-1.87,0.68-2.61c0.46-0.74,1.07-1.31,1.84-1.72s1.62-0.61,2.55-0.61c0.89,0,1.66,0.17,2.31,0.52s1.16,0.89,1.53,1.62
			c0.37,0.73,0.55,1.67,0.55,2.79c0,1.13-0.18,2.05-0.55,2.78s-0.88,1.27-1.53,1.62C407.58,64.29,406.81,64.47,405.92,64.47z
			 M406.39,68.8c-0.96,0-1.89-0.12-2.78-0.35c-0.89-0.23-1.64-0.59-2.23-1.05l1.18-2.15c0.44,0.37,0.99,0.66,1.64,0.86
			s1.31,0.31,1.99,0.31c1.04,0,1.8-0.23,2.28-0.7s0.72-1.17,0.72-2.09v-1.52l0.19-2.58l-0.06-2.6v-2.18h2.81v8.51
			c0,1.89-0.49,3.28-1.48,4.19C409.66,68.35,408.24,68.8,406.39,68.8z M406.53,62.05c0.52,0,0.98-0.11,1.39-0.32
			c0.41-0.21,0.72-0.51,0.95-0.89c0.23-0.38,0.34-0.82,0.34-1.31c0-0.51-0.11-0.95-0.34-1.32c-0.23-0.37-0.54-0.66-0.95-0.86
			c-0.41-0.2-0.87-0.3-1.39-0.3c-0.51,0-0.97,0.1-1.38,0.3c-0.41,0.2-0.73,0.49-0.97,0.86c-0.23,0.37-0.35,0.81-0.35,1.32
			c0,0.49,0.12,0.93,0.35,1.31s0.56,0.68,0.97,0.89C405.56,61.95,406.02,62.05,406.53,62.05z"/>
	</g>
</g>
<text transform="matrix(1 0 0 1 382.778 64.9618)" class="st0 st1 st2"> </text>
<g>
	<g>
		<path class="st0" d="M272.79,85.96v-13.3h3.1v13.3H272.79z"/>
		<path class="st0" d="M285.19,75.58c0.81,0,1.54,0.16,2.17,0.48s1.14,0.82,1.51,1.48s0.55,1.52,0.55,2.56v5.85h-2.96v-5.4
			c0-0.82-0.18-1.43-0.54-1.82c-0.36-0.39-0.87-0.59-1.53-0.59c-0.47,0-0.89,0.1-1.26,0.3c-0.37,0.2-0.67,0.5-0.87,0.89
			c-0.21,0.39-0.31,0.91-0.31,1.56v5.05h-2.96V75.74h2.83v2.83l-0.53-0.86c0.37-0.68,0.89-1.21,1.58-1.58
			C283.54,75.77,284.32,75.58,285.19,75.58z"/>
		<path class="st0" d="M290.84,78.24v-2.28h7.09v2.28H290.84z M296.23,86.11c-1.2,0-2.14-0.31-2.81-0.92
			c-0.67-0.61-1.01-1.53-1.01-2.75v-8.97h2.98v8.91c0,0.43,0.11,0.77,0.33,1.01c0.22,0.24,0.52,0.36,0.9,0.36
			c0.48,0,0.89-0.13,1.22-0.38l0.78,2.09c-0.29,0.22-0.65,0.38-1.07,0.48C297.13,86.05,296.69,86.11,296.23,86.11z"/>
		<path class="st0" d="M305.3,86.11c-1.17,0-2.19-0.23-3.06-0.68s-1.55-1.08-2.03-1.87c-0.48-0.79-0.72-1.69-0.72-2.71
			c0-1.01,0.23-1.92,0.69-2.72c0.46-0.8,1.11-1.42,1.94-1.87c0.83-0.45,1.76-0.67,2.8-0.67c1,0,1.9,0.22,2.71,0.65
			s1.44,1.04,1.91,1.82c0.47,0.79,0.7,1.73,0.7,2.83c0,0.11-0.01,0.24-0.02,0.39s-0.03,0.28-0.04,0.41h-8.3v-1.73h6.75l-1.16,0.51
			c0.01-0.53-0.09-0.99-0.3-1.39c-0.22-0.39-0.51-0.7-0.89-0.92c-0.38-0.22-0.82-0.33-1.33-0.33s-0.95,0.11-1.34,0.33
			c-0.39,0.22-0.69,0.53-0.9,0.93c-0.21,0.4-0.32,0.87-0.32,1.42v0.46c0,0.57,0.13,1.06,0.38,1.48c0.25,0.42,0.6,0.74,1.04,0.96
			s0.97,0.33,1.6,0.33c0.53,0,1-0.08,1.42-0.25c0.41-0.17,0.79-0.41,1.13-0.74l1.58,1.71c-0.47,0.53-1.06,0.94-1.77,1.23
			C307.04,85.97,306.22,86.11,305.3,86.11z"/>
		<path class="st0" d="M312.21,85.96V75.74h2.83v2.91l-0.4-0.85c0.3-0.72,0.79-1.27,1.46-1.64c0.67-0.37,1.49-0.56,2.45-0.56v2.75
			c-0.11-0.03-0.22-0.04-0.33-0.06s-0.21-0.02-0.31-0.02c-0.84,0-1.5,0.23-2,0.7s-0.74,1.19-0.74,2.17v4.83H312.21z"/>
		<path class="st0" d="M326.69,75.58c0.81,0,1.54,0.16,2.18,0.48s1.14,0.82,1.51,1.48c0.37,0.67,0.55,1.52,0.55,2.56v5.85h-2.96
			v-5.4c0-0.82-0.18-1.43-0.54-1.82c-0.36-0.39-0.87-0.59-1.53-0.59c-0.47,0-0.89,0.1-1.26,0.3c-0.37,0.2-0.67,0.5-0.87,0.89
			c-0.21,0.39-0.31,0.91-0.31,1.56v5.05h-2.96V75.74h2.83v2.83l-0.53-0.86c0.37-0.68,0.89-1.21,1.58-1.58
			C325.04,75.77,325.82,75.58,326.69,75.58z"/>
		<path class="st0" d="M336.76,86.11c-0.79,0-1.46-0.14-2.03-0.41c-0.57-0.27-1.01-0.64-1.32-1.11c-0.31-0.47-0.47-0.99-0.47-1.58
			c0-0.59,0.15-1.12,0.45-1.59c0.3-0.46,0.77-0.82,1.42-1.07c0.65-0.25,1.49-0.38,2.55-0.38h2.7v1.71h-2.39
			c-0.7,0-1.17,0.11-1.43,0.34c-0.26,0.23-0.39,0.51-0.39,0.85c0,0.38,0.15,0.68,0.45,0.9c0.3,0.22,0.7,0.33,1.21,0.33
			s0.96-0.11,1.36-0.34c0.4-0.23,0.68-0.58,0.85-1.05l0.46,1.39c-0.22,0.63-0.61,1.12-1.18,1.47
			C338.39,85.94,337.66,86.11,336.76,86.11z M339.88,85.96v-2l-0.19-0.44v-3.57c0-0.63-0.19-1.13-0.58-1.48
			c-0.39-0.35-0.98-0.53-1.78-0.53c-0.54,0-1.08,0.08-1.61,0.26c-0.53,0.17-0.98,0.4-1.36,0.69l-1.04-2.07
			c0.56-0.41,1.23-0.71,2.01-0.92c0.79-0.21,1.58-0.31,2.39-0.31c1.56,0,2.77,0.37,3.63,1.1c0.86,0.74,1.29,1.88,1.29,3.44v5.83
			H339.88z"/>
		<path class="st0" d="M344.06,78.24v-2.28h7.09v2.28H344.06z M349.45,86.11c-1.2,0-2.14-0.31-2.81-0.92
			c-0.67-0.61-1.01-1.53-1.01-2.75v-8.97h2.98v8.91c0,0.43,0.11,0.77,0.33,1.01c0.22,0.24,0.52,0.36,0.9,0.36
			c0.48,0,0.89-0.13,1.22-0.38l0.78,2.09c-0.29,0.22-0.65,0.38-1.07,0.48C350.35,86.05,349.91,86.11,349.45,86.11z"/>
		<path class="st0" d="M355.02,74.31c-0.56,0-1.01-0.16-1.35-0.47s-0.51-0.71-0.51-1.18s0.17-0.86,0.51-1.18
			c0.34-0.32,0.79-0.48,1.35-0.48c0.54,0,0.99,0.15,1.34,0.45c0.35,0.3,0.52,0.68,0.52,1.15c0,0.49-0.17,0.9-0.51,1.23
			C356.03,74.15,355.58,74.31,355.02,74.31z M353.54,85.96V75.74h2.96v10.22H353.54z"/>
		<path class="st0" d="M364.1,86.11c-1.08,0-2.04-0.23-2.88-0.68c-0.84-0.46-1.5-1.08-1.99-1.87s-0.72-1.69-0.72-2.71
			c0-1.03,0.24-1.93,0.72-2.73c0.48-0.79,1.14-1.41,1.99-1.86c0.84-0.45,1.8-0.67,2.88-0.67c1.09,0,2.06,0.22,2.91,0.67
			c0.85,0.45,1.51,1.07,2,1.86c0.48,0.79,0.72,1.7,0.72,2.73c0,1.03-0.24,1.93-0.72,2.72c-0.48,0.79-1.15,1.41-2,1.86
			C366.16,85.88,365.19,86.11,364.1,86.11z M364.1,83.68c0.51,0,0.95-0.11,1.34-0.33c0.39-0.22,0.7-0.55,0.93-0.98
			s0.35-0.94,0.35-1.52c0-0.59-0.12-1.1-0.35-1.52s-0.54-0.74-0.93-0.96c-0.39-0.22-0.83-0.33-1.32-0.33s-0.94,0.11-1.33,0.33
			c-0.39,0.22-0.71,0.54-0.94,0.96s-0.35,0.92-0.35,1.52c0,0.58,0.12,1.09,0.35,1.52s0.55,0.76,0.94,0.98S363.62,83.68,364.1,83.68z
			"/>
		<path class="st0" d="M377.91,75.58c0.81,0,1.54,0.16,2.18,0.48s1.14,0.82,1.51,1.48c0.37,0.67,0.55,1.52,0.55,2.56v5.85h-2.96
			v-5.4c0-0.82-0.18-1.43-0.54-1.82c-0.36-0.39-0.87-0.59-1.53-0.59c-0.47,0-0.89,0.1-1.26,0.3c-0.37,0.2-0.67,0.5-0.87,0.89
			c-0.21,0.39-0.31,0.91-0.31,1.56v5.05h-2.96V75.74h2.83v2.83L374,77.71c0.37-0.68,0.89-1.21,1.58-1.58
			C376.26,75.77,377.04,75.58,377.91,75.58z"/>
		<path class="st0" d="M387.98,86.11c-0.79,0-1.46-0.14-2.03-0.41c-0.57-0.27-1.01-0.64-1.32-1.11c-0.31-0.47-0.47-0.99-0.47-1.58
			c0-0.59,0.15-1.12,0.45-1.59c0.3-0.46,0.77-0.82,1.42-1.07c0.65-0.25,1.49-0.38,2.55-0.38h2.7v1.71h-2.39
			c-0.7,0-1.17,0.11-1.43,0.34c-0.26,0.23-0.39,0.51-0.39,0.85c0,0.38,0.15,0.68,0.45,0.9c0.3,0.22,0.7,0.33,1.21,0.33
			s0.96-0.11,1.36-0.34c0.4-0.23,0.68-0.58,0.85-1.05l0.46,1.39c-0.22,0.63-0.61,1.12-1.18,1.47
			C389.62,85.94,388.88,86.11,387.98,86.11z M391.1,85.96v-2l-0.19-0.44v-3.57c0-0.63-0.19-1.13-0.58-1.48
			c-0.39-0.35-0.98-0.53-1.78-0.53c-0.54,0-1.08,0.08-1.61,0.26c-0.53,0.17-0.98,0.4-1.36,0.69l-1.04-2.07
			c0.56-0.41,1.23-0.71,2.01-0.92c0.79-0.21,1.58-0.31,2.39-0.31c1.56,0,2.77,0.37,3.63,1.1c0.86,0.74,1.29,1.88,1.29,3.44v5.83
			H391.1z"/>
		<path class="st0" d="M396.55,85.96v-14.1h2.96v14.1H396.55z"/>
		<path class="st0" d="M412.72,86.11c-1.17,0-2.19-0.23-3.06-0.68s-1.55-1.08-2.03-1.87c-0.48-0.79-0.72-1.69-0.72-2.71
			c0-1.01,0.23-1.92,0.69-2.72c0.46-0.8,1.11-1.42,1.94-1.87c0.83-0.45,1.76-0.67,2.8-0.67c1,0,1.9,0.22,2.71,0.65
			s1.44,1.04,1.91,1.82c0.47,0.79,0.7,1.73,0.7,2.83c0,0.11-0.01,0.24-0.02,0.39s-0.03,0.28-0.04,0.41h-8.3v-1.73h6.75l-1.16,0.51
			c0.01-0.53-0.09-0.99-0.3-1.39c-0.22-0.39-0.51-0.7-0.89-0.92c-0.38-0.22-0.82-0.33-1.33-0.33s-0.95,0.11-1.34,0.33
			c-0.39,0.22-0.69,0.53-0.9,0.93c-0.21,0.4-0.32,0.87-0.32,1.42v0.46c0,0.57,0.13,1.06,0.38,1.48c0.25,0.42,0.6,0.74,1.04,0.96
			s0.97,0.33,1.6,0.33c0.53,0,1-0.08,1.42-0.25c0.41-0.17,0.79-0.41,1.13-0.74l1.58,1.71c-0.47,0.53-1.06,0.94-1.77,1.23
			C414.46,85.97,413.64,86.11,412.72,86.11z"/>
		<path class="st0" d="M420.53,86.11c-0.51,0-0.94-0.17-1.3-0.52c-0.36-0.35-0.54-0.79-0.54-1.32c0-0.56,0.18-1.01,0.54-1.35
			c0.36-0.34,0.79-0.51,1.3-0.51c0.52,0,0.96,0.17,1.31,0.51s0.53,0.79,0.53,1.35c0,0.53-0.18,0.97-0.53,1.32
			S421.05,86.11,420.53,86.11z"/>
		<path class="st0" d="M428.59,85.96l-5.76-13.3h3.34l5.02,11.78h-1.96l5.09-11.78h3.06l-5.76,13.3H428.59z"/>
		<path class="st0" d="M438.66,86.11c-0.51,0-0.94-0.17-1.3-0.52c-0.36-0.35-0.54-0.79-0.54-1.32c0-0.56,0.18-1.01,0.54-1.35
			c0.36-0.34,0.79-0.51,1.3-0.51c0.52,0,0.96,0.17,1.31,0.51s0.53,0.79,0.53,1.35c0,0.53-0.18,0.97-0.53,1.32
			S439.18,86.11,438.66,86.11z"/>
	</g>
</g>
</svg>
