<?xml version="1.0" encoding="utf-8"?>
<!-- Generator: Adobe Illustrator 26.3.1, SVG Export Plug-In . SVG Version: 6.00 Build 0)  -->
<svg version="1.1" id="Ebene_1" xmlns="http://www.w3.org/2000/svg" xmlns:xlink="http://www.w3.org/1999/xlink" x="0px" y="0px"
	 viewBox="0 0 453.54 113.39" style="enable-background:new 0 0 453.54 113.39;" xml:space="preserve">
<style type="text/css">
	.st0{fill:#565555;}
	.st1{font-family:'MyriadPro-Regular';}
	.st2{font-size:19px;}
	.st3{fill:#2B7BBC;}
</style>
<text transform="matrix(1 0 0 1 382.778 64.9618)" class="st0 st1 st2"> </text>
<g>
	<g>
		<g>
			<path class="st3" d="M17.07,91.59v-58.8H45.8c7.39,0,12.95,1.4,16.67,4.2c3.72,2.8,5.59,6.5,5.59,11.09
				c0,3.08-0.76,5.75-2.27,8.02c-1.51,2.27-3.6,4.02-6.26,5.25c-2.66,1.23-5.67,1.85-9.03,1.85l1.6-3.53c3.7,0,6.96,0.62,9.79,1.85
				c2.83,1.23,5.05,3.02,6.68,5.38c1.62,2.35,2.44,5.24,2.44,8.65c0,5.04-1.99,8.97-5.96,11.8c-3.98,2.83-9.83,4.24-17.56,4.24
				H17.07z M30.6,81.34h15.96c3.47,0,6.13-0.59,7.98-1.76c1.85-1.18,2.77-3,2.77-5.46c0-2.52-0.92-4.37-2.77-5.54
				c-1.85-1.18-4.51-1.76-7.98-1.76H29.59V56.9h14.53c3.3,0,5.84-0.57,7.6-1.72c1.76-1.15,2.65-2.9,2.65-5.25
				c0-2.35-0.88-4.09-2.65-5.21c-1.76-1.12-4.3-1.68-7.6-1.68H30.6V81.34z"/>
			<path class="st3" d="M89.4,91.59L70.41,46.4h13.44l15.79,38.89h-6.72l16.46-38.89h12.52l-19.07,45.19H89.4z"/>
			<path class="st3" d="M124.93,91.59v-58.8h28.73c7.39,0,12.95,1.4,16.67,4.2c3.72,2.8,5.59,6.5,5.59,11.09
				c0,3.08-0.76,5.75-2.27,8.02c-1.51,2.27-3.6,4.02-6.26,5.25c-2.66,1.23-5.67,1.85-9.03,1.85l1.6-3.53c3.7,0,6.96,0.62,9.79,1.85
				c2.83,1.23,5.05,3.02,6.68,5.38c1.62,2.35,2.44,5.24,2.44,8.65c0,5.04-1.99,8.97-5.96,11.8c-3.98,2.83-9.83,4.24-17.56,4.24
				H124.93z M138.45,81.34h15.96c3.47,0,6.13-0.59,7.98-1.76c1.85-1.18,2.77-3,2.77-5.46c0-2.52-0.92-4.37-2.77-5.54
				c-1.85-1.18-4.51-1.76-7.98-1.76h-16.97V56.9h14.53c3.3,0,5.84-0.57,7.6-1.72c1.76-1.15,2.65-2.9,2.65-5.25
				c0-2.35-0.88-4.09-2.65-5.21c-1.76-1.12-4.3-1.68-7.6-1.68h-13.52V81.34z"/>
			<path class="st3" d="M185.83,91.59v-58.8h28.73c7.39,0,12.95,1.4,16.67,4.2c3.72,2.8,5.59,6.5,5.59,11.09
				c0,3.08-0.76,5.75-2.27,8.02c-1.51,2.27-3.6,4.02-6.26,5.25c-2.66,1.23-5.67,1.85-9.03,1.85l1.6-3.53c3.7,0,6.96,0.62,9.79,1.85
				c2.83,1.23,5.05,3.02,6.68,5.38c1.62,2.35,2.44,5.24,2.44,8.65c0,5.04-1.99,8.97-5.96,11.8c-3.98,2.83-9.83,4.24-17.56,4.24
				H185.83z M199.35,81.34h15.96c3.47,0,6.13-0.59,7.98-1.76c1.85-1.18,2.77-3,2.77-5.46c0-2.52-0.92-4.37-2.77-5.54
				c-1.85-1.18-4.51-1.76-7.98-1.76h-16.97V56.9h14.53c3.3,0,5.84-0.57,7.6-1.72c1.76-1.15,2.65-2.9,2.65-5.25
				c0-2.35-0.88-4.09-2.65-5.21c-1.76-1.12-4.3-1.68-7.6-1.68h-13.52V81.34z"/>
			<path class="st3" d="M246.81,91.59v-58.8h13.69v58.8H246.81z"/>
		</g>
	</g>
	<g>
		<g>
			<path class="st3" d="M272.76,44.01v-13.3h6.5c1.67,0,2.93,0.32,3.77,0.95c0.84,0.63,1.26,1.47,1.26,2.51
				c0,0.7-0.17,1.3-0.51,1.81s-0.81,0.91-1.42,1.19c-0.6,0.28-1.28,0.42-2.04,0.42l0.36-0.8c0.84,0,1.57,0.14,2.21,0.42
				s1.14,0.68,1.51,1.22s0.55,1.18,0.55,1.96c0,1.14-0.45,2.03-1.35,2.67c-0.9,0.64-2.22,0.96-3.97,0.96H272.76z M275.82,41.69h3.61
				c0.79,0,1.39-0.13,1.8-0.4c0.42-0.27,0.63-0.68,0.63-1.24c0-0.57-0.21-0.99-0.63-1.25s-1.02-0.4-1.8-0.4h-3.84v-2.24h3.29
				c0.75,0,1.32-0.13,1.72-0.39c0.4-0.26,0.6-0.66,0.6-1.19s-0.2-0.92-0.6-1.18c-0.4-0.25-0.97-0.38-1.72-0.38h-3.06V41.69z"/>
			<path class="st3" d="M291.4,44.16c-0.86,0-1.62-0.17-2.28-0.49c-0.66-0.33-1.17-0.84-1.54-1.52c-0.37-0.68-0.55-1.54-0.55-2.58
				v-5.78h2.96v5.32c0,0.86,0.18,1.49,0.54,1.89c0.36,0.4,0.87,0.6,1.53,0.6c0.46,0,0.86-0.1,1.22-0.3c0.35-0.2,0.64-0.51,0.85-0.91
				s0.31-0.91,0.31-1.52v-5.07h2.95v10.22h-2.81v-2.83l0.51,0.84c-0.36,0.71-0.86,1.24-1.52,1.61S292.18,44.16,291.4,44.16z"/>
			<path class="st3" d="M306.35,33.63c0.81,0,1.54,0.16,2.17,0.48s1.14,0.82,1.51,1.48s0.55,1.52,0.55,2.56v5.85h-2.96v-5.4
				c0-0.82-0.18-1.43-0.54-1.82c-0.36-0.39-0.87-0.59-1.53-0.59c-0.47,0-0.89,0.1-1.26,0.3c-0.37,0.2-0.67,0.5-0.87,0.89
				c-0.21,0.39-0.31,0.91-0.31,1.56v5.05h-2.96V33.79h2.83v2.83l-0.53-0.86c0.37-0.68,0.89-1.21,1.58-1.58
				C304.7,33.82,305.48,33.63,306.35,33.63z"/>
			<path class="st3" d="M317.66,44.16c-0.96,0-1.83-0.22-2.6-0.66c-0.77-0.44-1.38-1.05-1.82-1.83c-0.44-0.79-0.67-1.71-0.67-2.77
				c0-1.06,0.22-1.99,0.67-2.77c0.44-0.79,1.05-1.4,1.82-1.83c0.77-0.44,1.64-0.66,2.6-0.66c0.86,0,1.62,0.19,2.26,0.57
				c0.65,0.38,1.15,0.96,1.5,1.73c0.35,0.77,0.53,1.76,0.53,2.96c0,1.19-0.17,2.18-0.51,2.96c-0.34,0.79-0.83,1.37-1.47,1.74
				C319.32,43.97,318.56,44.16,317.66,44.16z M318.15,41.73c0.49,0,0.94-0.11,1.33-0.33s0.71-0.55,0.94-0.98s0.35-0.94,0.35-1.52
				c0-0.59-0.12-1.1-0.35-1.52s-0.55-0.74-0.94-0.96c-0.39-0.22-0.84-0.33-1.33-0.33c-0.48,0-0.92,0.11-1.31,0.33
				c-0.39,0.22-0.71,0.54-0.94,0.96s-0.35,0.92-0.35,1.52c0,0.58,0.12,1.09,0.35,1.52s0.55,0.76,0.94,0.98
				S317.67,41.73,318.15,41.73z M320.85,44.01v-2.09l0.06-3.04l-0.19-3.02v-5.95h2.96v14.1H320.85z"/>
			<path class="st3" d="M331.49,44.16c-1.17,0-2.19-0.23-3.06-0.68s-1.55-1.08-2.03-1.87c-0.48-0.79-0.72-1.69-0.72-2.71
				c0-1.01,0.23-1.92,0.69-2.72c0.46-0.8,1.11-1.42,1.94-1.87c0.83-0.45,1.76-0.67,2.8-0.67c1,0,1.9,0.22,2.71,0.65
				s1.44,1.04,1.91,1.82c0.47,0.79,0.7,1.73,0.7,2.83c0,0.11-0.01,0.24-0.02,0.39s-0.03,0.28-0.04,0.41h-8.3V38h6.75l-1.16,0.51
				c0.01-0.53-0.09-0.99-0.3-1.39c-0.22-0.39-0.51-0.7-0.89-0.92c-0.38-0.22-0.82-0.33-1.33-0.33s-0.95,0.11-1.34,0.33
				c-0.39,0.22-0.69,0.53-0.9,0.93c-0.21,0.4-0.32,0.87-0.32,1.42v0.46c0,0.57,0.13,1.06,0.38,1.48c0.25,0.42,0.6,0.74,1.04,0.96
				s0.97,0.33,1.6,0.33c0.53,0,1-0.08,1.42-0.25c0.41-0.17,0.79-0.41,1.13-0.74l1.58,1.71c-0.47,0.53-1.06,0.94-1.77,1.23
				C333.23,44.02,332.41,44.16,331.49,44.16z"/>
			<path class="st3" d="M341.84,44.16c-0.87,0-1.71-0.1-2.51-0.31s-1.44-0.47-1.92-0.79l0.97-2.11c0.48,0.28,1.04,0.51,1.68,0.69
				s1.27,0.28,1.89,0.28c0.68,0,1.17-0.08,1.45-0.25s0.43-0.39,0.43-0.68c0-0.24-0.11-0.42-0.33-0.54
				c-0.22-0.12-0.51-0.21-0.87-0.28c-0.36-0.06-0.76-0.13-1.21-0.19c-0.44-0.06-0.88-0.15-1.32-0.27c-0.44-0.11-0.84-0.28-1.22-0.48
				c-0.37-0.21-0.67-0.5-0.89-0.86s-0.33-0.84-0.33-1.43c0-0.65,0.19-1.22,0.57-1.72c0.38-0.5,0.92-0.89,1.62-1.17
				c0.7-0.28,1.54-0.42,2.53-0.42c0.71,0,1.42,0.08,2.14,0.24c0.71,0.16,1.32,0.38,1.81,0.66l-1.01,2.11
				c-0.48-0.28-0.97-0.47-1.47-0.59c-0.5-0.11-0.98-0.17-1.43-0.17c-0.68,0-1.18,0.09-1.48,0.27c-0.3,0.18-0.46,0.41-0.46,0.68
				c0,0.25,0.11,0.45,0.34,0.58c0.23,0.13,0.53,0.23,0.89,0.29s0.77,0.13,1.22,0.19s0.88,0.15,1.31,0.27
				c0.43,0.11,0.83,0.28,1.21,0.48c0.37,0.21,0.67,0.5,0.89,0.86s0.33,0.84,0.33,1.42c0,0.62-0.19,1.17-0.57,1.66
				c-0.38,0.49-0.93,0.87-1.64,1.15C343.74,44.02,342.87,44.16,341.84,44.16z"/>
			<path class="st3" d="M351.29,44.01l-4.29-10.22h3.04l3.57,8.8h-1.52l3.72-8.8h2.83l-4.31,10.22H351.29z"/>
			<path class="st3" d="M364.76,44.16c-1.17,0-2.19-0.23-3.06-0.68s-1.55-1.08-2.03-1.87c-0.48-0.79-0.72-1.69-0.72-2.71
				c0-1.01,0.23-1.92,0.69-2.72c0.46-0.8,1.11-1.42,1.94-1.87c0.83-0.45,1.76-0.67,2.8-0.67c1,0,1.9,0.22,2.71,0.65
				s1.44,1.04,1.91,1.82c0.47,0.79,0.7,1.73,0.7,2.83c0,0.11-0.01,0.24-0.02,0.39s-0.03,0.28-0.04,0.41h-8.3V38h6.75l-1.16,0.51
				c0.01-0.53-0.09-0.99-0.3-1.39c-0.22-0.39-0.51-0.7-0.89-0.92c-0.38-0.22-0.82-0.33-1.33-0.33s-0.95,0.11-1.34,0.33
				c-0.39,0.22-0.69,0.53-0.9,0.93c-0.21,0.4-0.32,0.87-0.32,1.42v0.46c0,0.57,0.13,1.06,0.38,1.48c0.25,0.42,0.6,0.74,1.04,0.96
				s0.97,0.33,1.6,0.33c0.53,0,1-0.08,1.42-0.25c0.41-0.17,0.79-0.41,1.13-0.74l1.58,1.71c-0.47,0.53-1.06,0.94-1.77,1.23
				C366.5,44.02,365.68,44.16,364.76,44.16z"/>
			<path class="st3" d="M371.67,44.01V33.79h2.83v2.91l-0.4-0.85c0.3-0.72,0.79-1.27,1.46-1.64c0.67-0.37,1.49-0.56,2.45-0.56v2.75
				c-0.11-0.03-0.23-0.04-0.33-0.06s-0.21-0.02-0.31-0.02c-0.84,0-1.5,0.23-1.99,0.7c-0.49,0.47-0.74,1.19-0.74,2.17v4.83H371.67z"
				/>
			<path class="st3" d="M379.92,44.01v-14.1h2.96v5.95l-0.19,3.02l0.06,3.04v2.09H379.92z M385.94,44.16
				c-0.87,0-1.64-0.19-2.29-0.56c-0.65-0.37-1.15-0.95-1.49-1.74c-0.34-0.79-0.51-1.77-0.51-2.96c0-1.2,0.18-2.19,0.54-2.96
				c0.36-0.77,0.86-1.35,1.51-1.73c0.65-0.38,1.39-0.57,2.24-0.57c0.98,0,1.85,0.22,2.61,0.66c0.77,0.44,1.38,1.05,1.82,1.83
				s0.67,1.71,0.67,2.77c0,1.06-0.23,1.99-0.67,2.77s-1.06,1.4-1.82,1.83C387.79,43.94,386.92,44.16,385.94,44.16z M385.45,41.73
				c0.49,0,0.93-0.11,1.32-0.33c0.39-0.22,0.7-0.55,0.93-0.98s0.35-0.94,0.35-1.52c0-0.59-0.12-1.1-0.35-1.52s-0.54-0.74-0.93-0.96
				c-0.39-0.22-0.83-0.33-1.32-0.33s-0.94,0.11-1.33,0.33c-0.39,0.22-0.71,0.54-0.94,0.96s-0.35,0.92-0.35,1.52
				c0,0.58,0.12,1.09,0.35,1.52s0.55,0.76,0.94,0.98S384.95,41.73,385.45,41.73z"/>
			<path class="st3" d="M396.18,44.16c-0.79,0-1.46-0.14-2.03-0.41c-0.57-0.27-1.01-0.64-1.32-1.11c-0.31-0.47-0.47-0.99-0.47-1.58
				c0-0.59,0.15-1.12,0.45-1.59c0.3-0.46,0.77-0.82,1.42-1.07c0.65-0.25,1.49-0.38,2.55-0.38h2.7v1.71h-2.39
				c-0.7,0-1.17,0.11-1.43,0.34c-0.26,0.23-0.39,0.51-0.39,0.85c0,0.38,0.15,0.68,0.45,0.9c0.3,0.22,0.7,0.33,1.21,0.33
				s0.96-0.11,1.36-0.34c0.4-0.23,0.68-0.58,0.85-1.05l0.46,1.39c-0.22,0.63-0.61,1.12-1.18,1.47
				C397.82,43.99,397.08,44.16,396.18,44.16z M399.3,44.01v-2l-0.19-0.44V38c0-0.63-0.19-1.13-0.58-1.48
				c-0.39-0.35-0.98-0.53-1.78-0.53c-0.54,0-1.08,0.08-1.61,0.26c-0.53,0.17-0.98,0.4-1.36,0.69l-1.04-2.07
				c0.56-0.41,1.23-0.71,2.01-0.92c0.79-0.21,1.58-0.31,2.39-0.31c1.56,0,2.77,0.37,3.63,1.1c0.86,0.74,1.29,1.88,1.29,3.44v5.83
				H399.3z"/>
			<path class="st3" d="M410.96,33.63c0.81,0,1.54,0.16,2.18,0.48s1.14,0.82,1.51,1.48c0.37,0.67,0.55,1.52,0.55,2.56v5.85h-2.96
				v-5.4c0-0.82-0.18-1.43-0.54-1.82c-0.36-0.39-0.87-0.59-1.53-0.59c-0.47,0-0.89,0.1-1.26,0.3c-0.37,0.2-0.67,0.5-0.87,0.89
				c-0.21,0.39-0.31,0.91-0.31,1.56v5.05h-2.96V33.79h2.83v2.83l-0.53-0.86c0.37-0.68,0.89-1.21,1.58-1.58
				C409.31,33.82,410.09,33.63,410.96,33.63z"/>
			<path class="st3" d="M422.27,44.16c-0.96,0-1.83-0.22-2.6-0.66c-0.77-0.44-1.38-1.05-1.82-1.83s-0.67-1.71-0.67-2.77
				c0-1.06,0.22-1.99,0.67-2.77s1.05-1.4,1.82-1.83c0.77-0.44,1.64-0.66,2.6-0.66c0.86,0,1.62,0.19,2.26,0.57
				c0.65,0.38,1.15,0.96,1.5,1.73c0.35,0.77,0.53,1.76,0.53,2.96c0,1.19-0.17,2.18-0.51,2.96c-0.34,0.79-0.83,1.37-1.47,1.74
				C423.94,43.97,423.17,44.16,422.27,44.16z M422.76,41.73c0.49,0,0.94-0.11,1.33-0.33s0.71-0.55,0.94-0.98s0.35-0.94,0.35-1.52
				c0-0.59-0.12-1.1-0.35-1.52s-0.55-0.74-0.94-0.96c-0.39-0.22-0.84-0.33-1.33-0.33c-0.48,0-0.92,0.11-1.31,0.33
				c-0.39,0.22-0.71,0.54-0.94,0.96s-0.35,0.92-0.35,1.52c0,0.58,0.12,1.09,0.35,1.52s0.55,0.76,0.94,0.98
				S422.28,41.73,422.76,41.73z M425.46,44.01v-2.09l0.06-3.04l-0.19-3.02v-5.95h2.96v14.1H425.46z"/>
		</g>
	</g>
	<g>
		<g>
			<path class="st3" d="M272.76,65V51.7h6.5c1.67,0,2.93,0.32,3.77,0.95c0.84,0.63,1.26,1.47,1.26,2.51c0,0.7-0.17,1.3-0.51,1.81
				s-0.81,0.91-1.42,1.19c-0.6,0.28-1.28,0.42-2.04,0.42l0.36-0.8c0.84,0,1.57,0.14,2.21,0.42s1.14,0.68,1.51,1.22
				s0.55,1.18,0.55,1.96c0,1.14-0.45,2.03-1.35,2.67c-0.9,0.64-2.22,0.96-3.97,0.96H272.76z M275.82,62.68h3.61
				c0.79,0,1.39-0.13,1.8-0.4c0.42-0.27,0.63-0.68,0.63-1.24c0-0.57-0.21-0.99-0.63-1.25s-1.02-0.4-1.8-0.4h-3.84v-2.24h3.29
				c0.75,0,1.32-0.13,1.72-0.39c0.4-0.26,0.6-0.66,0.6-1.19s-0.2-0.92-0.6-1.18c-0.4-0.25-0.97-0.38-1.72-0.38h-3.06V62.68z"/>
			<path class="st3" d="M292.23,65.16c-1.17,0-2.19-0.23-3.06-0.68s-1.55-1.08-2.03-1.87c-0.48-0.79-0.72-1.69-0.72-2.71
				c0-1.01,0.23-1.92,0.69-2.72c0.46-0.8,1.11-1.42,1.94-1.87c0.83-0.45,1.76-0.67,2.8-0.67c1,0,1.9,0.22,2.71,0.65
				s1.44,1.04,1.91,1.82c0.47,0.79,0.7,1.73,0.7,2.83c0,0.11-0.01,0.24-0.02,0.39s-0.03,0.28-0.04,0.41h-8.3V59h6.75l-1.16,0.51
				c0.01-0.53-0.09-0.99-0.3-1.39c-0.22-0.39-0.51-0.7-0.89-0.92c-0.38-0.22-0.82-0.33-1.33-0.33s-0.95,0.11-1.34,0.33
				c-0.39,0.22-0.69,0.53-0.9,0.93c-0.21,0.4-0.32,0.87-0.32,1.42v0.46c0,0.57,0.13,1.06,0.38,1.48c0.25,0.42,0.6,0.74,1.04,0.96
				s0.97,0.33,1.6,0.33c0.53,0,1-0.08,1.42-0.25c0.41-0.17,0.79-0.41,1.13-0.74l1.58,1.71c-0.47,0.53-1.06,0.94-1.77,1.23
				C293.97,65.01,293.16,65.16,292.23,65.16z"/>
			<path class="st3" d="M299.15,65V54.78h2.83v2.91l-0.4-0.85c0.3-0.72,0.79-1.27,1.46-1.64c0.67-0.37,1.49-0.56,2.45-0.56v2.75
				c-0.11-0.03-0.22-0.04-0.33-0.06s-0.21-0.02-0.31-0.02c-0.84,0-1.5,0.23-2,0.7s-0.74,1.19-0.74,2.17V65H299.15z"/>
			<path class="st3" d="M311.65,65.16c-0.86,0-1.62-0.17-2.28-0.49c-0.66-0.33-1.17-0.84-1.54-1.52c-0.37-0.68-0.55-1.54-0.55-2.58
				v-5.78h2.96v5.32c0,0.86,0.18,1.49,0.54,1.89c0.36,0.4,0.87,0.6,1.53,0.6c0.46,0,0.86-0.1,1.22-0.3c0.35-0.2,0.64-0.51,0.85-0.91
				s0.31-0.91,0.31-1.52v-5.07h2.95V65h-2.81v-2.83l0.51,0.84c-0.36,0.71-0.86,1.24-1.52,1.61S312.44,65.16,311.65,65.16z"/>
			<path class="st3" d="M319.18,57.29v-2.28h7.09v2.28H319.18z M320.75,65V54.55c0-1.17,0.34-2.09,1.03-2.77
				c0.68-0.68,1.66-1.03,2.93-1.03c0.42,0,0.83,0.04,1.24,0.13c0.41,0.09,0.75,0.22,1.03,0.4l-0.78,2.17
				c-0.17-0.11-0.35-0.2-0.55-0.27c-0.2-0.06-0.42-0.09-0.65-0.09c-0.43,0-0.76,0.12-1,0.36s-0.35,0.62-0.35,1.14v0.95l0.09,1.25V65
				H320.75z"/>
			<path class="st3" d="M331.03,65.16c-0.87,0-1.71-0.1-2.51-0.31s-1.44-0.47-1.92-0.79l0.97-2.11c0.48,0.28,1.04,0.51,1.68,0.69
				s1.27,0.28,1.89,0.28c0.68,0,1.17-0.08,1.45-0.25s0.43-0.39,0.43-0.68c0-0.24-0.11-0.42-0.33-0.54
				c-0.22-0.12-0.51-0.21-0.87-0.28c-0.36-0.06-0.76-0.13-1.21-0.19c-0.44-0.06-0.88-0.15-1.32-0.27c-0.44-0.11-0.84-0.28-1.22-0.48
				c-0.37-0.21-0.67-0.5-0.89-0.86s-0.33-0.84-0.33-1.43c0-0.65,0.19-1.22,0.57-1.72c0.38-0.5,0.92-0.89,1.62-1.17
				c0.7-0.28,1.54-0.42,2.53-0.42c0.71,0,1.42,0.08,2.14,0.24c0.71,0.16,1.32,0.38,1.81,0.66l-1.01,2.11
				c-0.48-0.28-0.97-0.47-1.47-0.59c-0.5-0.11-0.98-0.17-1.43-0.17c-0.68,0-1.18,0.09-1.48,0.27c-0.3,0.18-0.46,0.41-0.46,0.68
				c0,0.25,0.11,0.45,0.34,0.58c0.23,0.13,0.53,0.23,0.89,0.29s0.77,0.13,1.22,0.19s0.88,0.15,1.31,0.27
				c0.43,0.11,0.83,0.28,1.21,0.48c0.37,0.21,0.67,0.5,0.89,0.86s0.33,0.84,0.33,1.42c0,0.62-0.19,1.17-0.57,1.66
				c-0.38,0.49-0.93,0.87-1.64,1.15C332.93,65.02,332.06,65.16,331.03,65.16z"/>
			<path class="st3" d="M337.68,65v-14.1h2.96v5.95l-0.19,3.02l0.06,3.04V65H337.68z M343.7,65.16c-0.87,0-1.64-0.19-2.29-0.56
				c-0.65-0.37-1.15-0.95-1.49-1.74c-0.34-0.79-0.51-1.77-0.51-2.96c0-1.2,0.18-2.19,0.54-2.96c0.36-0.77,0.86-1.35,1.51-1.73
				c0.65-0.38,1.39-0.57,2.24-0.57c0.97,0,1.85,0.22,2.61,0.66c0.77,0.44,1.37,1.05,1.82,1.83c0.45,0.79,0.67,1.71,0.67,2.77
				c0,1.06-0.22,1.99-0.67,2.77c-0.45,0.79-1.06,1.4-1.82,1.83C345.55,64.94,344.68,65.16,343.7,65.16z M343.21,62.72
				c0.49,0,0.93-0.11,1.32-0.33c0.39-0.22,0.7-0.55,0.93-0.98s0.35-0.94,0.35-1.52c0-0.59-0.12-1.1-0.35-1.52s-0.54-0.74-0.93-0.96
				c-0.39-0.22-0.83-0.33-1.32-0.33s-0.94,0.11-1.33,0.33c-0.39,0.22-0.71,0.54-0.94,0.96s-0.35,0.92-0.35,1.52
				c0,0.58,0.12,1.09,0.35,1.52s0.55,0.76,0.94,0.98S342.72,62.72,343.21,62.72z"/>
			<path class="st3" d="M352.27,53.36c-0.56,0-1.01-0.16-1.35-0.47s-0.51-0.71-0.51-1.18s0.17-0.86,0.51-1.18
				c0.34-0.32,0.79-0.48,1.35-0.48c0.54,0,0.99,0.15,1.34,0.45c0.35,0.3,0.52,0.68,0.52,1.15c0,0.49-0.17,0.9-0.51,1.23
				C353.28,53.19,352.83,53.36,352.27,53.36z M350.79,65V54.78h2.96V65H350.79z"/>
			<path class="st3" d="M356.51,65v-14.1h2.96V65H356.51z"/>
			<path class="st3" d="M366.62,65.16c-0.96,0-1.83-0.22-2.6-0.66c-0.77-0.44-1.38-1.05-1.82-1.83s-0.67-1.71-0.67-2.77
				c0-1.06,0.22-1.99,0.67-2.77s1.05-1.4,1.82-1.83c0.77-0.44,1.64-0.66,2.6-0.66c0.86,0,1.62,0.19,2.26,0.57
				c0.65,0.38,1.15,0.96,1.5,1.73c0.35,0.77,0.53,1.76,0.53,2.96c0,1.19-0.17,2.18-0.51,2.96c-0.34,0.79-0.83,1.37-1.47,1.74
				C368.29,64.97,367.52,65.16,366.62,65.16z M367.11,62.72c0.49,0,0.94-0.11,1.33-0.33s0.71-0.55,0.94-0.98s0.35-0.94,0.35-1.52
				c0-0.59-0.12-1.1-0.35-1.52s-0.55-0.74-0.94-0.96c-0.39-0.22-0.84-0.33-1.33-0.33c-0.48,0-0.92,0.11-1.31,0.33
				c-0.39,0.22-0.71,0.54-0.94,0.96s-0.35,0.92-0.35,1.52c0,0.58,0.12,1.09,0.35,1.52s0.55,0.76,0.94,0.98
				S366.63,62.72,367.11,62.72z M369.81,65v-2.09l0.06-3.04l-0.19-3.02v-5.95h2.96V65H369.81z"/>
			<path class="st3" d="M379.69,65.16c-0.86,0-1.62-0.17-2.28-0.49c-0.66-0.33-1.17-0.84-1.54-1.52c-0.37-0.68-0.55-1.54-0.55-2.58
				v-5.78h2.96v5.32c0,0.86,0.18,1.49,0.54,1.89c0.36,0.4,0.87,0.6,1.53,0.6c0.46,0,0.86-0.1,1.22-0.3c0.35-0.2,0.64-0.51,0.85-0.91
				s0.31-0.91,0.31-1.52v-5.07h2.94V65h-2.81v-2.83l0.51,0.84c-0.35,0.71-0.86,1.24-1.52,1.61
				C381.2,64.97,380.47,65.16,379.69,65.16z"/>
			<path class="st3" d="M394.64,54.63c0.81,0,1.54,0.16,2.17,0.48s1.14,0.82,1.51,1.48s0.55,1.52,0.55,2.56V65h-2.96v-5.4
				c0-0.82-0.18-1.43-0.54-1.82c-0.36-0.39-0.87-0.59-1.53-0.59c-0.47,0-0.89,0.1-1.26,0.3c-0.37,0.2-0.67,0.5-0.87,0.89
				c-0.21,0.39-0.31,0.91-0.31,1.56V65h-2.96V54.78h2.83v2.83l-0.53-0.86c0.37-0.68,0.89-1.21,1.58-1.58
				C392.99,54.81,393.77,54.63,394.64,54.63z"/>
			<path class="st3" d="M405.89,64.51c-0.92,0-1.77-0.21-2.55-0.62c-0.77-0.41-1.39-0.99-1.84-1.73c-0.46-0.74-0.68-1.61-0.68-2.59
				c0-1,0.23-1.87,0.68-2.61c0.46-0.74,1.07-1.31,1.84-1.72s1.62-0.61,2.55-0.61c0.89,0,1.66,0.17,2.31,0.52s1.16,0.89,1.53,1.62
				c0.37,0.73,0.55,1.67,0.55,2.79c0,1.13-0.18,2.05-0.55,2.78c-0.37,0.73-0.88,1.27-1.53,1.62
				C407.55,64.33,406.78,64.51,405.89,64.51z M406.37,68.84c-0.96,0-1.89-0.12-2.78-0.35c-0.89-0.23-1.64-0.59-2.23-1.05l1.18-2.15
				c0.44,0.37,0.99,0.66,1.64,0.86s1.31,0.31,1.99,0.31c1.04,0,1.8-0.23,2.28-0.7c0.48-0.47,0.72-1.17,0.72-2.09v-1.52l0.19-2.58
				l-0.06-2.6v-2.18h2.81v8.51c0,1.89-0.49,3.28-1.48,4.19S408.22,68.84,406.37,68.84z M406.5,62.1c0.52,0,0.98-0.11,1.39-0.32
				c0.41-0.21,0.72-0.51,0.95-0.89c0.23-0.38,0.34-0.82,0.34-1.31c0-0.51-0.11-0.95-0.34-1.32c-0.23-0.37-0.54-0.66-0.95-0.86
				c-0.41-0.2-0.87-0.3-1.39-0.3c-0.51,0-0.97,0.1-1.38,0.3c-0.41,0.2-0.74,0.49-0.97,0.86c-0.23,0.37-0.35,0.81-0.35,1.32
				c0,0.49,0.12,0.93,0.35,1.31s0.56,0.68,0.97,0.89C405.53,61.99,405.99,62.1,406.5,62.1z"/>
		</g>
	</g>
	<g>
	</g>
	<g>
		<g>
			<path class="st3" d="M272.76,86V72.7h3.1V86H272.76z"/>
			<path class="st3" d="M285.17,75.62c0.81,0,1.54,0.16,2.18,0.48s1.14,0.82,1.51,1.48c0.37,0.67,0.55,1.52,0.55,2.56V86h-2.96v-5.4
				c0-0.82-0.18-1.43-0.54-1.82c-0.36-0.39-0.87-0.59-1.53-0.59c-0.47,0-0.89,0.1-1.26,0.3c-0.37,0.2-0.67,0.5-0.87,0.89
				c-0.21,0.39-0.31,0.91-0.31,1.56V86h-2.96V75.78h2.83v2.83l-0.53-0.86c0.37-0.68,0.89-1.21,1.58-1.58
				C283.51,75.81,284.29,75.62,285.17,75.62z"/>
			<path class="st3" d="M290.81,78.28V76h7.09v2.28H290.81z M296.2,86.15c-1.2,0-2.14-0.31-2.81-0.92
				c-0.67-0.61-1.01-1.53-1.01-2.75v-8.97h2.98v8.91c0,0.43,0.11,0.77,0.33,1.01c0.22,0.24,0.52,0.36,0.9,0.36
				c0.48,0,0.89-0.13,1.22-0.38l0.78,2.09c-0.29,0.22-0.65,0.38-1.07,0.48S296.66,86.15,296.2,86.15z"/>
			<path class="st3" d="M305.27,86.15c-1.17,0-2.18-0.23-3.06-0.68s-1.55-1.08-2.03-1.87s-0.72-1.69-0.72-2.71
				c0-1.01,0.23-1.92,0.69-2.72c0.46-0.8,1.11-1.42,1.94-1.87c0.83-0.45,1.76-0.67,2.8-0.67c1,0,1.9,0.22,2.71,0.65
				c0.8,0.43,1.44,1.04,1.91,1.82c0.47,0.79,0.7,1.73,0.7,2.83c0,0.11-0.01,0.24-0.02,0.39s-0.03,0.28-0.04,0.41h-8.3v-1.73h6.75
				l-1.16,0.51c0.01-0.53-0.09-0.99-0.3-1.39c-0.22-0.39-0.51-0.7-0.89-0.92c-0.38-0.22-0.82-0.33-1.33-0.33
				c-0.51,0-0.95,0.11-1.34,0.33c-0.39,0.22-0.69,0.53-0.9,0.93c-0.22,0.4-0.32,0.87-0.32,1.42V81c0,0.57,0.13,1.06,0.38,1.48
				c0.25,0.42,0.6,0.74,1.04,0.96s0.98,0.33,1.6,0.33c0.53,0,1-0.08,1.42-0.25c0.41-0.17,0.79-0.41,1.13-0.74l1.58,1.71
				c-0.47,0.53-1.06,0.94-1.77,1.23S306.19,86.15,305.27,86.15z"/>
			<path class="st3" d="M312.18,86V75.78h2.83v2.91l-0.4-0.85c0.3-0.72,0.79-1.27,1.46-1.64c0.67-0.37,1.49-0.56,2.45-0.56v2.75
				c-0.11-0.03-0.23-0.04-0.33-0.06s-0.21-0.02-0.31-0.02c-0.84,0-1.5,0.23-1.99,0.7c-0.49,0.47-0.74,1.19-0.74,2.17V86H312.18z"/>
			<path class="st3" d="M326.66,75.62c0.81,0,1.54,0.16,2.17,0.48s1.14,0.82,1.51,1.48s0.55,1.52,0.55,2.56V86h-2.96v-5.4
				c0-0.82-0.18-1.43-0.54-1.82c-0.36-0.39-0.87-0.59-1.53-0.59c-0.47,0-0.89,0.1-1.26,0.3c-0.37,0.2-0.67,0.5-0.87,0.89
				c-0.21,0.39-0.31,0.91-0.31,1.56V86h-2.96V75.78h2.83v2.83l-0.53-0.86c0.37-0.68,0.89-1.21,1.58-1.58
				C325.01,75.81,325.79,75.62,326.66,75.62z"/>
			<path class="st3" d="M336.73,86.15c-0.79,0-1.46-0.14-2.03-0.41c-0.57-0.27-1.01-0.64-1.32-1.11s-0.46-0.99-0.46-1.58
				c0-0.59,0.15-1.12,0.45-1.59c0.3-0.46,0.77-0.82,1.42-1.07c0.65-0.25,1.5-0.38,2.55-0.38h2.7v1.71h-2.39
				c-0.7,0-1.18,0.11-1.43,0.34c-0.26,0.23-0.39,0.51-0.39,0.85c0,0.38,0.15,0.68,0.45,0.9c0.3,0.22,0.7,0.33,1.21,0.33
				c0.51,0,0.96-0.11,1.36-0.34c0.4-0.23,0.68-0.58,0.85-1.05l0.46,1.39c-0.21,0.63-0.61,1.12-1.18,1.47S337.63,86.15,336.73,86.15z
				 M339.85,86v-2l-0.19-0.44v-3.57c0-0.63-0.19-1.13-0.58-1.48c-0.39-0.35-0.98-0.53-1.78-0.53c-0.54,0-1.08,0.08-1.61,0.26
				s-0.98,0.4-1.36,0.69l-1.04-2.07c0.56-0.41,1.23-0.71,2.01-0.92s1.58-0.31,2.39-0.31c1.56,0,2.77,0.37,3.63,1.1
				c0.86,0.74,1.29,1.88,1.29,3.44V86H339.85z"/>
			<path class="st3" d="M344.03,78.28V76h7.09v2.28H344.03z M349.42,86.15c-1.2,0-2.14-0.31-2.81-0.92
				c-0.67-0.61-1.01-1.53-1.01-2.75v-8.97h2.98v8.91c0,0.43,0.11,0.77,0.33,1.01c0.22,0.24,0.52,0.36,0.9,0.36
				c0.48,0,0.89-0.13,1.22-0.38l0.78,2.09c-0.29,0.22-0.65,0.38-1.07,0.48S349.88,86.15,349.42,86.15z"/>
			<path class="st3" d="M354.99,74.35c-0.56,0-1.01-0.16-1.35-0.47s-0.51-0.71-0.51-1.18s0.17-0.86,0.51-1.18
				c0.34-0.32,0.79-0.48,1.35-0.48c0.54,0,0.99,0.15,1.34,0.45c0.35,0.3,0.52,0.68,0.52,1.15c0,0.49-0.17,0.9-0.51,1.23
				C356,74.19,355.55,74.35,354.99,74.35z M353.51,86V75.78h2.96V86H353.51z"/>
			<path class="st3" d="M364.07,86.15c-1.08,0-2.04-0.23-2.88-0.68c-0.84-0.46-1.5-1.08-1.99-1.87c-0.48-0.79-0.72-1.69-0.72-2.71
				c0-1.03,0.24-1.93,0.72-2.73c0.48-0.79,1.14-1.41,1.99-1.86c0.84-0.45,1.8-0.67,2.88-0.67c1.09,0,2.06,0.22,2.91,0.67
				c0.85,0.45,1.51,1.07,2,1.86c0.48,0.79,0.72,1.7,0.72,2.73c0,1.03-0.24,1.93-0.72,2.72c-0.48,0.79-1.15,1.41-2,1.86
				S365.16,86.15,364.07,86.15z M364.07,83.72c0.51,0,0.95-0.11,1.34-0.33s0.7-0.55,0.93-0.98s0.35-0.94,0.35-1.52
				c0-0.59-0.12-1.1-0.35-1.52s-0.54-0.74-0.93-0.96c-0.39-0.22-0.83-0.33-1.32-0.33s-0.94,0.11-1.33,0.33
				c-0.39,0.22-0.71,0.54-0.94,0.96s-0.35,0.92-0.35,1.52c0,0.58,0.12,1.09,0.35,1.52s0.55,0.76,0.94,0.98
				S363.59,83.72,364.07,83.72z"/>
			<path class="st3" d="M377.89,75.62c0.81,0,1.54,0.16,2.17,0.48s1.14,0.82,1.51,1.48s0.55,1.52,0.55,2.56V86h-2.96v-5.4
				c0-0.82-0.18-1.43-0.54-1.82c-0.36-0.39-0.87-0.59-1.53-0.59c-0.47,0-0.89,0.1-1.26,0.3c-0.37,0.2-0.67,0.5-0.87,0.89
				c-0.21,0.39-0.31,0.91-0.31,1.56V86h-2.96V75.78h2.83v2.83l-0.53-0.86c0.37-0.68,0.89-1.21,1.58-1.58
				C376.23,75.81,377.01,75.62,377.89,75.62z"/>
			<path class="st3" d="M387.95,86.15c-0.79,0-1.46-0.14-2.03-0.41c-0.57-0.27-1.01-0.64-1.32-1.11s-0.46-0.99-0.46-1.58
				c0-0.59,0.15-1.12,0.45-1.59c0.3-0.46,0.77-0.82,1.42-1.07c0.65-0.25,1.5-0.38,2.55-0.38h2.7v1.71h-2.39
				c-0.7,0-1.18,0.11-1.43,0.34c-0.26,0.23-0.39,0.51-0.39,0.85c0,0.38,0.15,0.68,0.45,0.9c0.3,0.22,0.7,0.33,1.21,0.33
				c0.51,0,0.96-0.11,1.36-0.34c0.4-0.23,0.68-0.58,0.85-1.05l0.46,1.39c-0.21,0.63-0.61,1.12-1.18,1.47S388.85,86.15,387.95,86.15z
				 M391.07,86v-2l-0.19-0.44v-3.57c0-0.63-0.19-1.13-0.58-1.48c-0.39-0.35-0.98-0.53-1.78-0.53c-0.54,0-1.08,0.08-1.61,0.26
				s-0.98,0.4-1.36,0.69l-1.04-2.07c0.56-0.41,1.23-0.71,2.01-0.92s1.58-0.31,2.39-0.31c1.56,0,2.77,0.37,3.63,1.1
				c0.86,0.74,1.29,1.88,1.29,3.44V86H391.07z"/>
			<path class="st3" d="M396.52,86V71.9h2.96V86H396.52z"/>
			<path class="st3" d="M412.69,86.15c-1.17,0-2.18-0.23-3.06-0.68s-1.55-1.08-2.03-1.87s-0.72-1.69-0.72-2.71
				c0-1.01,0.23-1.92,0.69-2.72c0.46-0.8,1.11-1.42,1.94-1.87c0.83-0.45,1.76-0.67,2.8-0.67c1,0,1.9,0.22,2.71,0.65
				c0.8,0.43,1.44,1.04,1.91,1.82c0.47,0.79,0.7,1.73,0.7,2.83c0,0.11-0.01,0.24-0.02,0.39s-0.03,0.28-0.04,0.41h-8.3v-1.73h6.75
				l-1.16,0.51c0.01-0.53-0.09-0.99-0.3-1.39c-0.22-0.39-0.51-0.7-0.89-0.92c-0.38-0.22-0.82-0.33-1.33-0.33
				c-0.51,0-0.95,0.11-1.34,0.33c-0.39,0.22-0.69,0.53-0.9,0.93c-0.22,0.4-0.32,0.87-0.32,1.42V81c0,0.57,0.13,1.06,0.38,1.48
				c0.25,0.42,0.6,0.74,1.04,0.96s0.98,0.33,1.6,0.33c0.53,0,1-0.08,1.42-0.25c0.41-0.17,0.79-0.41,1.13-0.74l1.58,1.71
				c-0.47,0.53-1.06,0.94-1.77,1.23S413.62,86.15,412.69,86.15z"/>
			<path class="st3" d="M420.5,86.15c-0.51,0-0.94-0.17-1.3-0.52c-0.36-0.35-0.54-0.79-0.54-1.32c0-0.56,0.18-1.01,0.54-1.35
				c0.36-0.34,0.79-0.51,1.3-0.51c0.52,0,0.96,0.17,1.31,0.51s0.53,0.79,0.53,1.35c0,0.53-0.18,0.97-0.53,1.32
				S421.02,86.15,420.5,86.15z"/>
			<path class="st3" d="M428.56,86l-5.76-13.3h3.34l5.02,11.78h-1.96l5.09-11.78h3.06L431.6,86H428.56z"/>
			<path class="st3" d="M438.63,86.15c-0.51,0-0.94-0.17-1.3-0.52c-0.36-0.35-0.54-0.79-0.54-1.32c0-0.56,0.18-1.01,0.54-1.35
				c0.36-0.34,0.79-0.51,1.3-0.51c0.52,0,0.96,0.17,1.31,0.51s0.53,0.79,0.53,1.35c0,0.53-0.18,0.97-0.53,1.32
				S439.15,86.15,438.63,86.15z"/>
		</g>
	</g>
</g>
</svg>
