<?xml version="1.0" encoding="utf-8"?>
<!-- Generator: Adobe Illustrator 22.0.0, SVG Export Plug-In . SVG Version: 6.00 Build 0)  -->
<svg version="1.1" id="Ebene_1" xmlns="http://www.w3.org/2000/svg" xmlns:xlink="http://www.w3.org/1999/xlink" x="0px" y="0px"
	 viewBox="0 0 268.3 63" style="enable-background:new 0 0 268.3 63;" xml:space="preserve">
<style type="text/css">
	.st0{fill:#FFFFFF;}
	.st1{fill:url(#SVGID_1_);}
	.st2{fill:url(#SVGID_2_);}
	.st3{fill:url(#SVGID_3_);}
	.st4{fill:url(#SVGID_4_);}
	.st5{fill:url(#SVGID_5_);}
	.st6{fill:url(#SVGID_6_);}
	.st7{fill:url(#SVGID_7_);}
	.st8{fill:url(#SVGID_8_);}
	.st9{fill:url(#SVGID_9_);}
	.st10{fill:url(#SVGID_10_);}
	.st11{fill:url(#SVGID_11_);}
	.st12{fill:url(#SVGID_12_);}
	.st13{fill:url(#SVGID_13_);}
	.st14{fill:url(#SVGID_14_);}
	.st15{fill:url(#SVGID_15_);}
	.st16{fill:url(#SVGID_16_);}
	.st17{fill:url(#SVGID_17_);}
	.st18{fill:url(#SVGID_18_);}
	.st19{fill:url(#SVGID_19_);}
	.st20{fill:url(#SVGID_20_);}
	.st21{fill:url(#SVGID_21_);}
	.st22{fill:url(#SVGID_22_);}
	.st23{fill:url(#SVGID_23_);}
	.st24{fill:url(#SVGID_24_);}
	.st25{fill:url(#SVGID_25_);}
	.st26{fill:url(#SVGID_26_);}
	.st27{fill:url(#SVGID_27_);}
	.st28{fill:url(#SVGID_28_);}
	.st29{fill:url(#SVGID_29_);}
	.st30{fill:url(#SVGID_30_);}
</style>
<g>
	<g>
		<g>
			<path class="st0" d="M76.4,15.4c0.1,0.3,0.4,0.6,0.6,0.7c0.3,0.2,0.6,0.3,1,0.4c0.4,0.1,0.8,0.1,1.2,0.1c0.2,0,0.5,0,0.8-0.1
				c0.3-0.1,0.5-0.2,0.8-0.3c0.2-0.1,0.4-0.3,0.6-0.6c0.2-0.2,0.2-0.5,0.2-0.8c0-0.3-0.1-0.5-0.2-0.7c-0.1-0.2-0.3-0.3-0.4-0.5
				c-0.2-0.1-0.4-0.2-0.6-0.3s-0.4-0.1-0.7-0.2l-2-0.5c-0.3-0.1-0.5-0.1-0.8-0.3s-0.5-0.2-0.7-0.4c-0.2-0.2-0.3-0.4-0.4-0.6
				c-0.1-0.3-0.2-0.6-0.2-0.9c0-0.2,0-0.5,0.1-0.8c0.1-0.3,0.2-0.6,0.5-0.8c0.2-0.3,0.6-0.5,1-0.7C77.6,8.1,78.1,8,78.7,8
				C79.2,8,79.6,8,80,8.2c0.4,0.1,0.8,0.3,1.1,0.5c0.3,0.2,0.6,0.5,0.7,0.9c0.2,0.4,0.3,0.8,0.3,1.2h-0.9c0-0.3-0.1-0.7-0.2-0.9
				c-0.1-0.3-0.3-0.5-0.6-0.7c-0.2-0.2-0.5-0.3-0.8-0.4c-0.3-0.1-0.6-0.1-0.9-0.1c-0.3,0-0.6,0-0.9,0.1c-0.3,0.1-0.5,0.2-0.7,0.3
				c-0.2,0.1-0.4,0.3-0.5,0.6c-0.1,0.2-0.2,0.5-0.2,0.8c0,0.2,0,0.4,0.1,0.6c0.1,0.2,0.2,0.3,0.3,0.4c0.1,0.1,0.3,0.2,0.4,0.3
				c0.2,0.1,0.3,0.1,0.5,0.2l2.2,0.6c0.3,0.1,0.6,0.2,0.9,0.3c0.3,0.1,0.5,0.3,0.7,0.5c0.2,0.2,0.4,0.4,0.5,0.7
				c0.1,0.3,0.2,0.6,0.2,1c0,0.1,0,0.2,0,0.4c0,0.2-0.1,0.4-0.1,0.5c-0.1,0.2-0.2,0.4-0.3,0.6c-0.1,0.2-0.4,0.4-0.6,0.5
				c-0.3,0.2-0.6,0.3-1,0.4s-0.8,0.1-1.4,0.1c-0.5,0-1-0.1-1.5-0.2c-0.5-0.1-0.8-0.3-1.2-0.6c-0.3-0.3-0.6-0.6-0.7-1
				c-0.2-0.4-0.3-0.9-0.2-1.4h0.9C76.2,14.7,76.2,15.1,76.4,15.4z"/>
			<path class="st0" d="M90.9,8.1v0.7h-3.2v8.4h-0.9V8.9h-3.2V8.1H90.9z"/>
			<path class="st0" d="M93.6,8.1v9.1h-0.9V8.1H93.6z"/>
			<path class="st0" d="M102.2,8.1v0.7h-4.9v3.3h4.4v0.7h-4.4v4.3h-0.9V8.2L102.2,8.1L102.2,8.1z"/>
			<path class="st0" d="M110.4,8.1v0.7h-3.2v8.4h-0.9V8.9h-3.2V8.1H110.4z"/>
			<path class="st0" d="M112.9,8.1v5.6c0,0.5,0.1,1,0.2,1.3c0.1,0.4,0.3,0.7,0.5,0.9s0.5,0.4,0.8,0.5c0.3,0.1,0.7,0.2,1.1,0.2
				c0.4,0,0.8-0.1,1.1-0.2c0.3-0.1,0.6-0.3,0.8-0.5c0.2-0.2,0.4-0.5,0.5-0.9c0.1-0.4,0.2-0.8,0.2-1.3V8.1h0.9V14
				c0,0.5-0.1,0.9-0.2,1.3c-0.1,0.4-0.3,0.8-0.6,1.1c-0.3,0.3-0.7,0.6-1.1,0.7c-0.4,0.2-1,0.3-1.6,0.3c-0.6,0-1.2-0.1-1.6-0.3
				c-0.4-0.2-0.8-0.4-1.1-0.7c-0.3-0.3-0.5-0.7-0.6-1.1c-0.1-0.4-0.2-0.9-0.2-1.3V8.1H112.9z"/>
			<path class="st0" d="M122.7,8.1l5.3,7.7h0V8.1h0.9v9.1h-1l-5.3-7.7h0v7.7h-0.9V8.1H122.7z"/>
			<path class="st0" d="M138.8,17.2l-0.1-1.7h0c-0.1,0.3-0.3,0.6-0.6,0.8s-0.5,0.4-0.7,0.6c-0.3,0.1-0.6,0.3-0.9,0.3
				c-0.3,0.1-0.6,0.1-1,0.1c-0.7,0-1.3-0.1-1.9-0.4c-0.5-0.3-1-0.6-1.3-1c-0.4-0.4-0.6-0.9-0.8-1.5c-0.2-0.6-0.3-1.2-0.3-1.8
				c0-0.6,0.1-1.2,0.3-1.8c0.2-0.6,0.4-1.1,0.8-1.5c0.4-0.4,0.8-0.8,1.3-1c0.5-0.3,1.2-0.4,1.9-0.4c0.5,0,0.9,0.1,1.4,0.2
				c0.4,0.1,0.8,0.3,1.1,0.6c0.3,0.3,0.6,0.6,0.8,0.9s0.4,0.8,0.5,1.3h-0.9c0-0.3-0.1-0.5-0.3-0.8c-0.1-0.3-0.3-0.5-0.6-0.7
				c-0.3-0.2-0.6-0.4-0.9-0.5s-0.7-0.2-1.2-0.2c-0.6,0-1.1,0.1-1.6,0.3c-0.4,0.2-0.8,0.5-1.1,0.9c-0.3,0.4-0.5,0.8-0.6,1.3
				c-0.1,0.5-0.2,1-0.2,1.5s0.1,1,0.2,1.5c0.1,0.5,0.3,0.9,0.6,1.3c0.3,0.4,0.6,0.7,1.1,0.9c0.4,0.2,1,0.3,1.6,0.3
				c0.5,0,1-0.1,1.3-0.3c0.4-0.2,0.7-0.4,1-0.7c0.3-0.3,0.5-0.7,0.6-1.1c0.1-0.4,0.2-0.8,0.2-1.3h-3.1v-0.7h3.9v4.6L138.8,17.2
				L138.8,17.2z"/>
		</g>
	</g>
	<g>
		<path class="st0" d="M79.1,44.7c0.4,0,0.7,0.1,1.1,0.2c0.3,0.1,0.6,0.3,0.8,0.5s0.4,0.5,0.5,0.8c0.1,0.3,0.2,0.7,0.2,1.1
			c0,0.4-0.1,0.7-0.2,1.1c-0.1,0.3-0.3,0.6-0.5,0.8c-0.2,0.2-0.5,0.4-0.8,0.5c-0.3,0.1-0.7,0.2-1.1,0.2h-3v3.8h-0.8v-8.8H79.1z
			 M78.9,49c0.6,0,1-0.1,1.4-0.4c0.4-0.3,0.5-0.7,0.5-1.4c0-0.6-0.2-1.1-0.5-1.4c-0.4-0.3-0.8-0.4-1.4-0.4H76V49L78.9,49L78.9,49z"
			/>
		<path class="st0" d="M83.4,47.1v1.5h0c0.2-0.5,0.5-0.9,0.9-1.2c0.4-0.3,0.9-0.4,1.5-0.4v0.8c-0.3,0-0.7,0-0.9,0.1
			c-0.3,0.1-0.5,0.3-0.7,0.5c-0.2,0.2-0.4,0.4-0.5,0.7c-0.1,0.3-0.2,0.6-0.2,0.9v3.4h-0.8v-6.4H83.4z"/>
		<path class="st0" d="M90.2,47.2c0.4,0.2,0.7,0.4,0.9,0.7c0.3,0.3,0.4,0.7,0.6,1.1c0.1,0.4,0.2,0.8,0.2,1.3c0,0.5-0.1,0.9-0.2,1.3
			c-0.1,0.4-0.3,0.8-0.6,1.1c-0.3,0.3-0.6,0.6-0.9,0.7c-0.4,0.2-0.8,0.3-1.3,0.3c-0.5,0-0.9-0.1-1.3-0.3c-0.4-0.2-0.7-0.4-0.9-0.7
			s-0.4-0.7-0.6-1.1C86,51.2,86,50.8,86,50.3c0-0.5,0.1-0.9,0.2-1.3c0.1-0.4,0.3-0.8,0.6-1.1c0.3-0.3,0.6-0.6,0.9-0.7
			C88,47,88.4,47,88.9,47C89.4,46.9,89.8,47,90.2,47.2z M88,47.8c-0.3,0.1-0.5,0.4-0.7,0.6c-0.2,0.3-0.3,0.6-0.4,0.9
			c-0.1,0.3-0.1,0.7-0.1,1s0,0.7,0.1,1s0.2,0.6,0.4,0.9c0.2,0.3,0.4,0.5,0.7,0.6c0.3,0.1,0.6,0.2,1,0.2c0.4,0,0.7-0.1,1-0.2
			c0.3-0.1,0.5-0.4,0.7-0.6c0.2-0.3,0.3-0.6,0.4-0.9c0.1-0.3,0.1-0.7,0.1-1s0-0.7-0.1-1s-0.2-0.6-0.4-0.9c-0.2-0.3-0.4-0.5-0.7-0.6
			c-0.3-0.1-0.6-0.2-1-0.2C88.6,47.6,88.3,47.7,88,47.8z"/>
		<path class="st0" d="M99.5,44.7c1.3,0,2.3,0.4,3,1.1c0.7,0.7,1,1.8,1,3.3c0,1.5-0.3,2.6-1,3.3c-0.7,0.7-1.7,1.1-3,1.1h-3v-8.8
			L99.5,44.7L99.5,44.7z M99.1,52.8c0.6,0,1.2-0.1,1.6-0.2c0.4-0.1,0.8-0.4,1.1-0.6c0.3-0.3,0.5-0.7,0.6-1.1c0.1-0.5,0.2-1,0.2-1.7
			c0-0.7-0.1-1.2-0.2-1.7c-0.1-0.5-0.4-0.8-0.6-1.1c-0.3-0.3-0.7-0.5-1.1-0.6c-0.4-0.1-1-0.2-1.6-0.2h-1.8v7.4L99.1,52.8L99.1,52.8z
			"/>
		<path class="st0" d="M105.2,51.4c0.1,0.3,0.2,0.6,0.4,0.8c0.2,0.2,0.4,0.4,0.6,0.6c0.3,0.1,0.6,0.2,0.9,0.2c0.6,0,1-0.1,1.3-0.4
			c0.3-0.3,0.5-0.7,0.7-1.2h0.8c-0.2,0.7-0.5,1.3-0.9,1.7c-0.4,0.4-1,0.6-1.8,0.6c-0.5,0-0.9-0.1-1.3-0.3c-0.4-0.2-0.7-0.4-0.9-0.7
			c-0.2-0.3-0.4-0.7-0.5-1.1c-0.1-0.4-0.2-0.8-0.2-1.3c0-0.4,0.1-0.8,0.2-1.2c0.1-0.4,0.3-0.8,0.5-1.1c0.2-0.3,0.5-0.6,0.9-0.8
			c0.4-0.2,0.8-0.3,1.3-0.3c0.5,0,0.9,0.1,1.3,0.3c0.4,0.2,0.6,0.5,0.9,0.8s0.4,0.7,0.5,1.1c0.1,0.4,0.1,0.9,0.1,1.3h-4.8
			C105.1,50.8,105.2,51.1,105.2,51.4z M109,49c-0.1-0.3-0.2-0.5-0.4-0.7c-0.2-0.2-0.4-0.4-0.6-0.5c-0.2-0.1-0.5-0.2-0.8-0.2
			c-0.3,0-0.6,0.1-0.8,0.2c-0.2,0.1-0.4,0.3-0.6,0.5c-0.2,0.2-0.3,0.4-0.4,0.7c-0.1,0.3-0.2,0.6-0.2,0.8h4
			C109.2,49.6,109.1,49.3,109,49z"/>
		<path class="st0" d="M111.7,47.1v1.1h0c0.2-0.4,0.5-0.7,0.8-0.9c0.3-0.2,0.7-0.3,1.3-0.3c0.4,0,0.8,0.1,1.1,0.3
			c0.3,0.2,0.6,0.5,0.7,0.9c0.2-0.4,0.5-0.7,0.8-0.9c0.4-0.2,0.7-0.3,1.2-0.3c1.4,0,2.1,0.7,2.1,2.2v4.3h-0.8v-4.3
			c0-0.5-0.1-0.9-0.3-1.2c-0.2-0.3-0.6-0.4-1.1-0.4c-0.3,0-0.6,0.1-0.8,0.2c-0.2,0.1-0.4,0.3-0.5,0.5c-0.1,0.2-0.2,0.5-0.3,0.7
			c-0.1,0.3-0.1,0.6-0.1,0.9v3.6h-0.8v-4.3c0-0.2,0-0.4-0.1-0.6c0-0.2-0.1-0.4-0.2-0.5c-0.1-0.1-0.2-0.3-0.4-0.3
			c-0.2-0.1-0.4-0.1-0.6-0.1c-0.3,0-0.6,0.1-0.8,0.2c-0.2,0.1-0.4,0.3-0.6,0.5c-0.1,0.2-0.3,0.5-0.3,0.7c-0.1,0.3-0.1,0.6-0.1,0.9
			v3.5H111v-6.4H111.7z"/>
		<path class="st0" d="M125,47.2c0.4,0.2,0.7,0.4,0.9,0.7c0.3,0.3,0.4,0.7,0.6,1.1c0.1,0.4,0.2,0.8,0.2,1.3c0,0.5-0.1,0.9-0.2,1.3
			c-0.1,0.4-0.3,0.8-0.6,1.1c-0.3,0.3-0.6,0.6-0.9,0.7s-0.8,0.3-1.3,0.3c-0.5,0-0.9-0.1-1.3-0.3c-0.4-0.2-0.7-0.4-0.9-0.7
			s-0.4-0.7-0.6-1.1c-0.1-0.4-0.2-0.8-0.2-1.3c0-0.5,0.1-0.9,0.2-1.3c0.1-0.4,0.3-0.8,0.6-1.1c0.3-0.3,0.6-0.6,0.9-0.7
			c0.4-0.2,0.8-0.3,1.3-0.3C124.2,47,124.6,47,125,47.2z M122.7,47.8c-0.3,0.1-0.5,0.4-0.7,0.6c-0.2,0.3-0.3,0.6-0.4,0.9
			c-0.1,0.3-0.1,0.7-0.1,1s0,0.7,0.1,1c0.1,0.3,0.2,0.6,0.4,0.9c0.2,0.3,0.4,0.5,0.7,0.6c0.3,0.1,0.6,0.2,1,0.2c0.4,0,0.7-0.1,1-0.2
			c0.3-0.1,0.5-0.4,0.7-0.6c0.2-0.3,0.3-0.6,0.4-0.9c0.1-0.3,0.1-0.7,0.1-1s0-0.7-0.1-1s-0.2-0.6-0.4-0.9c-0.2-0.3-0.4-0.5-0.7-0.6
			c-0.3-0.1-0.6-0.2-1-0.2C123.3,47.6,123,47.7,122.7,47.8z"/>
		<path class="st0" d="M128.6,44.7v5.5l3.5-3.1h1l-2.7,2.4l2.8,4h-1l-2.5-3.5l-1.2,1v2.4h-0.8v-8.8H128.6z"/>
		<path class="st0" d="M134.6,47.1v1.5h0c0.2-0.5,0.5-0.9,0.9-1.2c0.4-0.3,0.9-0.4,1.5-0.4v0.8c-0.3,0-0.7,0-0.9,0.1
			c-0.3,0.1-0.5,0.3-0.7,0.5c-0.2,0.2-0.4,0.4-0.5,0.7c-0.1,0.3-0.2,0.6-0.2,0.9v3.4h-0.8v-6.4H134.6z"/>
		<path class="st0" d="M137.8,48.1c0.1-0.3,0.3-0.5,0.5-0.7s0.5-0.3,0.8-0.4c0.3-0.1,0.6-0.1,1-0.1c0.3,0,0.6,0,0.8,0.1
			c0.3,0.1,0.5,0.1,0.7,0.3c0.2,0.1,0.4,0.4,0.5,0.6c0.1,0.3,0.2,0.6,0.2,1v3.4c0,0.3,0.1,0.5,0.4,0.5c0.1,0,0.2,0,0.2,0v0.7
			c-0.1,0-0.2,0-0.2,0c-0.1,0-0.1,0-0.3,0c-0.2,0-0.3,0-0.5-0.1c-0.1-0.1-0.2-0.1-0.3-0.2c-0.1-0.1-0.1-0.2-0.1-0.4
			c0-0.1,0-0.3,0-0.4h0c-0.1,0.2-0.3,0.4-0.4,0.6c-0.1,0.2-0.3,0.3-0.5,0.4c-0.2,0.1-0.4,0.2-0.6,0.3c-0.2,0.1-0.5,0.1-0.8,0.1
			c-0.3,0-0.6,0-0.8-0.1c-0.3-0.1-0.5-0.2-0.7-0.3c-0.2-0.1-0.3-0.3-0.4-0.6c-0.1-0.2-0.2-0.5-0.2-0.8c0-0.4,0.1-0.8,0.3-1
			c0.2-0.3,0.4-0.4,0.8-0.6c0.3-0.1,0.7-0.2,1.1-0.3c0.4-0.1,0.8-0.1,1.2-0.1c0.2,0,0.3,0,0.4-0.1s0.2-0.1,0.3-0.1
			c0.1-0.1,0.1-0.1,0.2-0.3c0-0.1,0.1-0.3,0.1-0.4c0-0.3,0-0.5-0.1-0.6c-0.1-0.2-0.2-0.3-0.4-0.4c-0.1-0.1-0.3-0.2-0.5-0.2
			c-0.2,0-0.4-0.1-0.6-0.1c-0.5,0-0.9,0.1-1.2,0.4c-0.3,0.2-0.5,0.6-0.5,1.1h-0.8C137.6,48.7,137.7,48.4,137.8,48.1z M141.7,50
			c0,0.1-0.1,0.1-0.3,0.2c-0.1,0-0.3,0.1-0.4,0.1c-0.3,0.1-0.7,0.1-1,0.1c-0.3,0-0.7,0.1-0.9,0.2c-0.3,0.1-0.5,0.2-0.7,0.4
			s-0.3,0.4-0.3,0.7c0,0.2,0,0.4,0.1,0.5c0.1,0.1,0.2,0.3,0.3,0.4c0.1,0.1,0.3,0.2,0.4,0.3s0.3,0.1,0.5,0.1c0.3,0,0.6,0,0.8-0.1
			c0.3-0.1,0.5-0.2,0.7-0.4c0.2-0.2,0.4-0.4,0.5-0.6c0.1-0.3,0.2-0.5,0.2-0.8L141.7,50L141.7,50L141.7,50z"/>
		<path class="st0" d="M146.4,47.1v0.7h-1.3v4.3c0,0.3,0,0.5,0.1,0.6c0.1,0.1,0.2,0.2,0.5,0.2c0.2,0,0.4,0,0.7,0v0.7
			c-0.1,0-0.2,0-0.3,0s-0.2,0-0.3,0c-0.5,0-0.9-0.1-1.1-0.3c-0.2-0.2-0.3-0.6-0.3-1.1v-4.4h-1.1v-0.7h1.1v-1.9h0.8v1.9L146.4,47.1
			L146.4,47.1z"/>
		<path class="st0" d="M148.3,44.7v1.3h-0.8v-1.3H148.3z M148.3,47.1v6.4h-0.8v-6.4H148.3z"/>
		<path class="st0" d="M150.4,51.4c0.1,0.3,0.2,0.6,0.4,0.8c0.2,0.2,0.4,0.4,0.6,0.6c0.3,0.1,0.6,0.2,0.9,0.2c0.6,0,1-0.1,1.3-0.4
			s0.5-0.7,0.7-1.2h0.8c-0.2,0.7-0.5,1.3-0.9,1.7c-0.4,0.4-1,0.6-1.8,0.6c-0.5,0-0.9-0.1-1.3-0.3c-0.4-0.2-0.7-0.4-0.9-0.7
			c-0.2-0.3-0.4-0.7-0.5-1.1c-0.1-0.4-0.2-0.8-0.2-1.3c0-0.4,0.1-0.8,0.2-1.2c0.1-0.4,0.3-0.8,0.5-1.1c0.2-0.3,0.5-0.6,0.9-0.8
			c0.4-0.2,0.8-0.3,1.3-0.3c0.5,0,0.9,0.1,1.3,0.3c0.4,0.2,0.6,0.5,0.9,0.8s0.4,0.7,0.5,1.1c0.1,0.4,0.1,0.9,0.1,1.3h-4.8
			C150.2,50.8,150.3,51.1,150.4,51.4z M154.1,49c-0.1-0.3-0.2-0.5-0.4-0.7c-0.2-0.2-0.4-0.4-0.6-0.5c-0.2-0.1-0.5-0.2-0.8-0.2
			c-0.3,0-0.6,0.1-0.8,0.2c-0.2,0.1-0.4,0.3-0.6,0.5c-0.2,0.2-0.3,0.4-0.4,0.7c-0.1,0.3-0.2,0.6-0.2,0.8h4
			C154.3,49.6,154.2,49.3,154.1,49z"/>
		<path class="st0" d="M163.8,53.5v-1.1h0c-0.2,0.4-0.5,0.8-0.9,1c-0.4,0.2-0.8,0.3-1.3,0.3c-0.4,0-0.7-0.1-1-0.2
			c-0.3-0.1-0.5-0.3-0.7-0.5c-0.2-0.2-0.3-0.5-0.4-0.8c-0.1-0.3-0.1-0.6-0.1-1v-4.1h0.8v4.1c0,0.6,0.1,1,0.4,1.3
			c0.3,0.3,0.7,0.4,1.3,0.4c0.3,0,0.6-0.1,0.8-0.2c0.2-0.1,0.4-0.3,0.6-0.6c0.1-0.2,0.3-0.5,0.3-0.8c0.1-0.3,0.1-0.6,0.1-0.9v-3.3
			h0.8v6.4H163.8z"/>
		<path class="st0" d="M166.7,47.1v1.1h0c0.1-0.4,0.4-0.7,0.8-0.9s0.8-0.4,1.2-0.4c0.4,0,0.8,0.1,1.1,0.2c0.3,0.1,0.5,0.3,0.7,0.5
			c0.2,0.2,0.3,0.5,0.4,0.8c0.1,0.3,0.1,0.6,0.1,1v4.1h-0.8v-4c0-0.3,0-0.5-0.1-0.8c0-0.2-0.1-0.4-0.3-0.6c-0.1-0.2-0.3-0.3-0.5-0.4
			c-0.2-0.1-0.5-0.1-0.8-0.1c-0.3,0-0.6,0.1-0.8,0.2c-0.2,0.1-0.4,0.3-0.6,0.5s-0.3,0.4-0.4,0.7c-0.1,0.3-0.1,0.6-0.1,0.9v3.7h-0.8
			v-6.4H166.7z"/>
		<path class="st0" d="M177.2,53.5v-1.2h0c-0.1,0.2-0.2,0.4-0.4,0.6c-0.2,0.2-0.3,0.3-0.5,0.4c-0.2,0.1-0.4,0.2-0.6,0.3
			c-0.2,0.1-0.5,0.1-0.7,0.1c-0.5,0-0.9-0.1-1.2-0.3c-0.4-0.2-0.6-0.4-0.9-0.7c-0.2-0.3-0.4-0.7-0.5-1.1c-0.1-0.4-0.2-0.8-0.2-1.3
			c0-0.5,0.1-0.9,0.2-1.3c0.1-0.4,0.3-0.8,0.5-1.1c0.2-0.3,0.5-0.6,0.9-0.7c0.4-0.2,0.8-0.3,1.2-0.3c0.2,0,0.5,0,0.7,0.1
			c0.2,0.1,0.4,0.1,0.6,0.3c0.2,0.1,0.4,0.3,0.5,0.4c0.1,0.2,0.3,0.4,0.3,0.6h0v-3.7h0.8v8.8H177.2z M173.1,51.3
			c0.1,0.3,0.2,0.6,0.4,0.9c0.2,0.3,0.4,0.5,0.6,0.6c0.3,0.2,0.6,0.2,0.9,0.2c0.4,0,0.7-0.1,1-0.2c0.3-0.2,0.5-0.4,0.7-0.6
			c0.2-0.3,0.3-0.6,0.4-0.9c0.1-0.3,0.1-0.7,0.1-1c0-0.3,0-0.7-0.1-1c-0.1-0.3-0.2-0.6-0.4-0.9c-0.2-0.3-0.4-0.5-0.7-0.6
			c-0.3-0.2-0.6-0.2-1-0.2c-0.4,0-0.7,0.1-0.9,0.2c-0.3,0.2-0.5,0.4-0.6,0.6c-0.2,0.3-0.3,0.6-0.4,0.9c-0.1,0.3-0.1,0.7-0.1,1
			C172.9,50.6,173,51,173.1,51.3z"/>
		<path class="st0" d="M186.4,44.7l3.4,8.8h-0.9l-1.1-2.7h-3.9l-1,2.7H182l3.5-8.8H186.4z M187.5,50l-1.7-4.5l-1.7,4.5H187.5z"/>
		<path class="st0" d="M191.2,44.7v5.5l3.5-3.1h1l-2.7,2.4l2.9,4h-1l-2.5-3.5l-1.2,1v2.4h-0.8v-8.8H191.2z"/>
		<path class="st0" d="M201.1,52.8v0.7h-5.2v-0.6l4.1-5.1h-3.8v-0.7h4.8v0.6l-4.1,5.2H201.1z"/>
		<path class="st0" d="M202.6,51.4c0.1,0.3,0.2,0.6,0.4,0.8c0.2,0.2,0.4,0.4,0.6,0.6c0.3,0.1,0.6,0.2,0.9,0.2c0.6,0,1-0.1,1.3-0.4
			c0.3-0.3,0.5-0.7,0.7-1.2h0.8c-0.2,0.7-0.5,1.3-0.9,1.7c-0.4,0.4-1,0.6-1.8,0.6c-0.5,0-0.9-0.1-1.3-0.3c-0.4-0.2-0.7-0.4-0.9-0.7
			c-0.2-0.3-0.4-0.7-0.5-1.1c-0.1-0.4-0.2-0.8-0.2-1.3c0-0.4,0.1-0.8,0.2-1.2c0.1-0.4,0.3-0.8,0.5-1.1c0.2-0.3,0.5-0.6,0.9-0.8
			c0.4-0.2,0.8-0.3,1.3-0.3c0.5,0,0.9,0.1,1.3,0.3c0.4,0.2,0.6,0.5,0.9,0.8s0.4,0.7,0.5,1.1c0.1,0.4,0.1,0.9,0.1,1.3h-4.8
			C202.5,50.8,202.5,51.1,202.6,51.4z M206.4,49c-0.1-0.3-0.2-0.5-0.4-0.7c-0.2-0.2-0.4-0.4-0.6-0.5c-0.2-0.1-0.5-0.2-0.8-0.2
			c-0.3,0-0.6,0.1-0.8,0.2c-0.2,0.1-0.4,0.3-0.6,0.5c-0.2,0.2-0.3,0.4-0.4,0.7c-0.1,0.3-0.2,0.6-0.2,0.8h4
			C206.6,49.6,206.5,49.3,206.4,49z"/>
		<path class="st0" d="M209,47.1v1.2h0c0.2-0.4,0.5-0.8,0.9-1c0.4-0.2,0.8-0.4,1.4-0.4c0.5,0,0.9,0.1,1.2,0.3
			c0.4,0.2,0.6,0.4,0.9,0.7c0.2,0.3,0.4,0.7,0.5,1.1c0.1,0.4,0.2,0.8,0.2,1.3c0,0.5-0.1,0.9-0.2,1.3c-0.1,0.4-0.3,0.8-0.5,1.1
			c-0.2,0.3-0.5,0.6-0.9,0.7c-0.4,0.2-0.8,0.3-1.2,0.3c-0.2,0-0.4,0-0.7-0.1c-0.2-0.1-0.4-0.1-0.6-0.3c-0.2-0.1-0.4-0.3-0.5-0.4
			c-0.2-0.2-0.3-0.4-0.3-0.6h0v3.5h-0.8v-8.7H209z M213.2,49.3c-0.1-0.3-0.2-0.6-0.4-0.9s-0.4-0.5-0.6-0.6c-0.3-0.2-0.6-0.2-0.9-0.2
			c-0.4,0-0.8,0.1-1.1,0.2c-0.3,0.1-0.5,0.3-0.7,0.6s-0.3,0.5-0.4,0.9c-0.1,0.3-0.1,0.7-0.1,1c0,0.3,0,0.7,0.1,1
			c0.1,0.3,0.2,0.6,0.4,0.9c0.2,0.3,0.4,0.5,0.7,0.6c0.3,0.2,0.6,0.2,1,0.2c0.4,0,0.7-0.1,0.9-0.2c0.3-0.2,0.5-0.4,0.6-0.6
			c0.2-0.3,0.3-0.6,0.4-0.9c0.1-0.3,0.1-0.7,0.1-1S213.3,49.7,213.2,49.3z"/>
		<path class="st0" d="M217.8,47.1v0.7h-1.3v4.3c0,0.3,0,0.5,0.1,0.6c0.1,0.1,0.2,0.2,0.5,0.2c0.2,0,0.4,0,0.7,0v0.7
			c-0.1,0-0.2,0-0.3,0s-0.2,0-0.3,0c-0.5,0-0.9-0.1-1.1-0.3c-0.2-0.2-0.3-0.6-0.3-1.1v-4.4h-1.1v-0.7h1.1v-1.9h0.8v1.9L217.8,47.1
			L217.8,47.1z"/>
		<path class="st0" d="M219,48.1c0.1-0.3,0.3-0.5,0.5-0.7s0.5-0.3,0.8-0.4c0.3-0.1,0.6-0.1,1-0.1c0.3,0,0.6,0,0.8,0.1
			c0.3,0.1,0.5,0.1,0.7,0.3c0.2,0.1,0.4,0.4,0.5,0.6c0.1,0.3,0.2,0.6,0.2,1v3.4c0,0.3,0.1,0.5,0.4,0.5c0.1,0,0.2,0,0.2,0v0.7
			c-0.1,0-0.2,0-0.2,0c-0.1,0-0.1,0-0.3,0c-0.2,0-0.3,0-0.5-0.1c-0.1-0.1-0.2-0.1-0.3-0.2c-0.1-0.1-0.1-0.2-0.1-0.4
			c0-0.1,0-0.3,0-0.4h0c-0.1,0.2-0.3,0.4-0.4,0.6c-0.1,0.2-0.3,0.3-0.5,0.4c-0.2,0.1-0.4,0.2-0.6,0.3c-0.2,0.1-0.5,0.1-0.8,0.1
			s-0.6,0-0.8-0.1c-0.3-0.1-0.5-0.2-0.7-0.3c-0.2-0.1-0.3-0.3-0.4-0.6c-0.1-0.2-0.2-0.5-0.2-0.8c0-0.4,0.1-0.8,0.3-1
			c0.2-0.3,0.4-0.4,0.8-0.6c0.3-0.1,0.7-0.2,1.1-0.3c0.4-0.1,0.8-0.1,1.2-0.1c0.2,0,0.3,0,0.4-0.1s0.2-0.1,0.3-0.1s0.1-0.1,0.2-0.3
			c0-0.1,0.1-0.3,0.1-0.4c0-0.3,0-0.5-0.1-0.6c-0.1-0.2-0.2-0.3-0.4-0.4c-0.1-0.1-0.3-0.2-0.5-0.2c-0.2,0-0.4-0.1-0.6-0.1
			c-0.5,0-0.9,0.1-1.2,0.4c-0.3,0.2-0.5,0.6-0.5,1.1h-0.8C218.8,48.7,218.9,48.4,219,48.1z M222.9,50c0,0.1-0.1,0.1-0.3,0.2
			c-0.1,0-0.3,0.1-0.4,0.1c-0.3,0.1-0.7,0.1-1,0.1c-0.3,0-0.7,0.1-0.9,0.2c-0.3,0.1-0.5,0.2-0.7,0.4s-0.3,0.4-0.3,0.7
			c0,0.2,0,0.4,0.1,0.5c0.1,0.1,0.2,0.3,0.3,0.4c0.1,0.1,0.3,0.2,0.4,0.3s0.3,0.1,0.5,0.1c0.3,0,0.6,0,0.8-0.1
			c0.3-0.1,0.5-0.2,0.7-0.4c0.2-0.2,0.4-0.4,0.5-0.6c0.1-0.3,0.2-0.5,0.2-0.8L222.9,50L222.9,50L222.9,50z"/>
		<path class="st0" d="M225.9,47.1v1.1h0c0.1-0.4,0.4-0.7,0.8-0.9c0.4-0.2,0.8-0.4,1.2-0.4c0.4,0,0.8,0.1,1.1,0.2
			c0.3,0.1,0.5,0.3,0.7,0.5c0.2,0.2,0.3,0.5,0.4,0.8c0.1,0.3,0.1,0.6,0.1,1v4.1h-0.8v-4c0-0.3,0-0.5-0.1-0.8c0-0.2-0.1-0.4-0.3-0.6
			c-0.1-0.2-0.3-0.3-0.5-0.4c-0.2-0.1-0.5-0.1-0.8-0.1c-0.3,0-0.6,0.1-0.8,0.2c-0.2,0.1-0.4,0.3-0.6,0.5s-0.3,0.4-0.4,0.7
			s-0.1,0.6-0.1,0.9v3.7h-0.8v-6.4H225.9z"/>
		<path class="st0" d="M236.4,52.8v0.7h-5.2v-0.6l4.1-5.1h-3.8v-0.7h4.8v0.6l-4.1,5.2H236.4z"/>
	</g>
	<g>
		<g>
			<g>
				<path class="st0" d="M77.7,33.2c0,0.6,0.1,1.1,0.3,1.5s0.4,0.7,0.7,1c0.3,0.3,0.7,0.4,1.1,0.6c0.4,0.1,0.8,0.2,1.3,0.2
					c0.5,0,1-0.1,1.3-0.2c0.4-0.1,0.7-0.3,0.9-0.5s0.4-0.4,0.5-0.7c0.1-0.3,0.1-0.6,0.1-0.8c0-0.6-0.1-1-0.3-1.3s-0.5-0.5-0.8-0.6
					c-0.5-0.2-1-0.4-1.7-0.6c-0.6-0.2-1.4-0.4-2.3-0.7c-0.6-0.2-1.1-0.4-1.4-0.7c-0.4-0.3-0.7-0.6-0.9-0.9c-0.2-0.3-0.4-0.7-0.5-1.1
					c-0.1-0.4-0.1-0.8-0.1-1.1c0-0.7,0.1-1.4,0.4-2c0.3-0.6,0.7-1,1.1-1.4c0.5-0.4,1-0.6,1.6-0.8c0.6-0.2,1.2-0.3,1.8-0.3
					c0.7,0,1.4,0.1,2,0.3c0.6,0.2,1.2,0.5,1.6,0.9c0.5,0.4,0.8,0.9,1.1,1.5c0.3,0.6,0.4,1.3,0.4,2.1h-2.3c-0.1-1-0.4-1.6-0.9-2
					c-0.5-0.4-1.2-0.6-2-0.6c-0.3,0-0.6,0-0.8,0.1c-0.3,0.1-0.6,0.2-0.8,0.3c-0.2,0.1-0.4,0.3-0.6,0.6c-0.1,0.3-0.2,0.6-0.2,0.9
					c0,0.5,0.1,0.9,0.4,1.2c0.3,0.3,0.7,0.5,1.1,0.7c0,0,0.3,0.1,0.6,0.2c0.3,0.1,0.7,0.2,1.1,0.3c0.4,0.1,0.8,0.3,1.3,0.4
					c0.4,0.1,0.7,0.2,0.9,0.3c0.4,0.1,0.8,0.4,1.1,0.6c0.3,0.3,0.6,0.6,0.8,0.9c0.2,0.3,0.4,0.7,0.5,1.1c0.1,0.4,0.2,0.8,0.2,1.2
					c0,0.8-0.1,1.6-0.5,2.1c-0.3,0.6-0.7,1.1-1.2,1.4c-0.5,0.4-1.1,0.7-1.7,0.8c-0.6,0.2-1.3,0.3-2,0.3c-0.8,0-1.5-0.1-2.1-0.3
					s-1.3-0.5-1.8-1c-0.5-0.4-0.9-1-1.2-1.7c-0.3-0.7-0.5-1.5-0.5-2.4L77.7,33.2L77.7,33.2z"/>
				<path class="st0" d="M97.1,28c-0.1-0.4-0.2-0.8-0.4-1.2c-0.2-0.4-0.4-0.7-0.7-0.9c-0.3-0.3-0.6-0.5-1-0.6
					c-0.4-0.1-0.8-0.2-1.3-0.2c-0.7,0-1.3,0.2-1.8,0.5c-0.5,0.3-0.9,0.7-1.3,1.3c-0.3,0.5-0.6,1.1-0.7,1.8c-0.1,0.7-0.2,1.4-0.2,2.1
					c0,0.7,0.1,1.4,0.2,2.1c0.1,0.7,0.4,1.3,0.7,1.8c0.3,0.5,0.7,1,1.3,1.3c0.5,0.3,1.1,0.5,1.8,0.5c0.5,0,1-0.1,1.4-0.3
					c0.4-0.2,0.7-0.5,1-0.8c0.3-0.4,0.5-0.8,0.7-1.2c0.2-0.5,0.3-1,0.3-1.5h2.3c0,0.9-0.2,1.7-0.5,2.4c-0.3,0.7-0.7,1.4-1.2,1.9
					c-0.5,0.5-1.1,1-1.8,1.2c-0.7,0.3-1.4,0.4-2.2,0.4c-1,0-1.9-0.2-2.7-0.6c-0.8-0.4-1.5-1-2-1.7c-0.6-0.7-1-1.5-1.3-2.5
					c-0.3-1-0.4-2-0.4-3c0-1.1,0.1-2.1,0.4-3c0.3-0.9,0.7-1.8,1.3-2.5c0.6-0.7,1.2-1.3,2-1.7s1.7-0.6,2.7-0.6c0.7,0,1.5,0.1,2.1,0.3
					c0.7,0.2,1.3,0.6,1.7,1c0.5,0.4,0.9,1,1.2,1.6c0.3,0.6,0.5,1.3,0.6,2.1L97.1,28L97.1,28z"/>
				<path class="st0" d="M101.3,23h2.3v6.2h6.1V23h2.3v15.7h-2.3v-7.1h-6.1v7.1h-2.3V23z"/>
				<path class="st0" d="M113.4,23h2.4l2.4,12h0l2.7-12h2.4l2.6,12h0l2.5-12h2.4l-3.7,15.7h-2.4l-2.7-12h0l-2.7,12h-2.4L113.4,23z"
					/>
				<path class="st0" d="M135.3,23h2.5l5.1,15.6h-2.5l-1.3-4.1h-5.3l-1.3,4.1h-2.4L135.3,23z M134.5,32.4h4.1l-2-6.7h-0.1
					L134.5,32.4z"/>
				<path class="st0" d="M144,22.9h6.4c1.5,0,2.6,0.4,3.3,1.1c0.7,0.7,1.1,1.8,1.1,3.1c0,0.7-0.1,1.4-0.3,1.9
					c-0.2,0.5-0.4,0.9-0.7,1.2c-0.3,0.3-0.5,0.5-0.7,0.7c-0.2,0.1-0.4,0.2-0.5,0.3v0c0.2,0,0.4,0.1,0.6,0.2s0.4,0.3,0.6,0.6
					c0.2,0.3,0.4,0.6,0.5,1c0.1,0.4,0.2,0.9,0.2,1.6c0,0.9,0.1,1.8,0.2,2.5c0.1,0.8,0.3,1.3,0.6,1.6h-2.5c-0.2-0.3-0.3-0.7-0.3-1.1
					c0-0.4,0-0.8,0-1.2c0-0.7,0-1.3-0.1-1.9s-0.2-1-0.4-1.3c-0.2-0.3-0.5-0.6-0.8-0.8s-0.8-0.2-1.3-0.2h-3.4v6.5H144L144,22.9
					L144,22.9z M146.4,30.1h3.8c0.7,0,1.3-0.2,1.7-0.6c0.4-0.4,0.6-1,0.6-1.9c0-0.5-0.1-0.9-0.2-1.2c-0.1-0.3-0.3-0.6-0.5-0.7
					c-0.2-0.2-0.5-0.3-0.7-0.4c-0.3-0.1-0.6-0.1-0.9-0.1h-3.8L146.4,30.1L146.4,30.1z"/>
				<path class="st0" d="M156.6,23h10.2v2.1L159,36.3h8v2.4h-11v-2.2l7.8-11.1h-7.2V23z"/>
				<path class="st0" d="M174.9,23h6.4c1.5,0,2.6,0.4,3.3,1.1c0.7,0.7,1.1,1.8,1.1,3.1c0,0.7-0.1,1.4-0.3,1.8
					c-0.2,0.5-0.4,0.9-0.7,1.2c-0.3,0.3-0.5,0.5-0.7,0.6c-0.2,0.1-0.4,0.2-0.5,0.3v0c0.2,0,0.4,0.1,0.6,0.2s0.4,0.3,0.6,0.6
					c0.2,0.3,0.4,0.6,0.5,1c0.1,0.4,0.2,0.9,0.2,1.5c0,0.9,0.1,1.7,0.2,2.5c0.1,0.7,0.3,1.3,0.6,1.6h-2.5c-0.2-0.3-0.3-0.7-0.3-1.1
					c0-0.4,0-0.8,0-1.2c0-0.7,0-1.3-0.1-1.8c-0.1-0.5-0.2-0.9-0.4-1.3c-0.2-0.3-0.5-0.6-0.8-0.8s-0.8-0.2-1.3-0.2h-3.4v6.4h-2.3
					L174.9,23L174.9,23z M177.2,30.1h3.8c0.7,0,1.3-0.2,1.7-0.6c0.4-0.4,0.6-1,0.6-1.9c0-0.5-0.1-0.9-0.2-1.2
					c-0.1-0.3-0.3-0.6-0.5-0.7c-0.2-0.2-0.5-0.3-0.7-0.3c-0.3-0.1-0.6-0.1-0.9-0.1h-3.8L177.2,30.1L177.2,30.1z"/>
				<path class="st0" d="M193.6,22.9c1,0,1.9,0.2,2.7,0.6c0.8,0.4,1.5,1,2,1.7c0.6,0.7,1,1.5,1.3,2.5c0.3,1,0.4,2,0.4,3
					c0,1.1-0.1,2.1-0.4,3c-0.3,1-0.7,1.8-1.3,2.5c-0.6,0.7-1.2,1.3-2,1.7c-0.8,0.4-1.7,0.6-2.7,0.6s-1.9-0.2-2.7-0.6
					c-0.8-0.4-1.5-1-2-1.7s-1-1.5-1.3-2.5c-0.3-1-0.4-2-0.4-3c0-1.1,0.1-2.1,0.4-3c0.3-0.9,0.7-1.8,1.3-2.5c0.6-0.7,1.2-1.3,2-1.7
					C191.7,23.2,192.6,22.9,193.6,22.9z M193.6,25.1c-0.7,0-1.3,0.2-1.8,0.5c-0.5,0.3-0.9,0.7-1.3,1.3s-0.6,1.1-0.7,1.8
					c-0.1,0.7-0.2,1.4-0.2,2.1c0,0.7,0.1,1.4,0.2,2.1c0.1,0.7,0.4,1.3,0.7,1.8c0.3,0.5,0.7,1,1.3,1.3s1.1,0.5,1.8,0.5
					c0.7,0,1.3-0.2,1.8-0.5c0.5-0.3,0.9-0.7,1.3-1.3s0.6-1.1,0.7-1.8c0.1-0.7,0.2-1.4,0.2-2.1c0-0.7-0.1-1.4-0.2-2.1
					s-0.4-1.3-0.7-1.8c-0.3-0.5-0.7-1-1.3-1.3C194.9,25.2,194.3,25.1,193.6,25.1z"/>
				<path class="st0" d="M200.7,23h10.8v2.4h-4.2v13.3h-2.3V25.4h-4.2V23z"/>
				<path class="st0" d="M219.1,23h6.5c1.2,0,2.2,0.3,2.9,1c0.7,0.6,1.1,1.6,1.1,2.9c0,0.8-0.2,1.5-0.5,2c-0.3,0.6-0.8,1-1.4,1.3v0
					c0.8,0.2,1.4,0.7,1.9,1.4c0.4,0.7,0.6,1.6,0.6,2.7c0,0.6-0.1,1.2-0.3,1.7s-0.5,1-0.9,1.4c-0.4,0.4-0.9,0.7-1.5,0.9
					c-0.6,0.2-1.4,0.3-2.2,0.3h-6.1L219.1,23L219.1,23z M221.4,29.5h3.8c0.6,0,1-0.2,1.4-0.6c0.4-0.4,0.6-0.9,0.6-1.6
					c0-0.8-0.2-1.3-0.5-1.7s-0.8-0.5-1.5-0.5h-3.8V29.5z M221.4,36.4h4.1c0.7,0,1.3-0.2,1.7-0.6s0.6-1,0.6-1.8s-0.2-1.4-0.6-1.8
					c-0.4-0.4-0.9-0.6-1.7-0.6h-4.1V36.4z"/>
				<path class="st0" d="M232,22.9h2.3v8.9c0,0.5,0,1,0.1,1.6c0,0.5,0.2,1,0.4,1.4c0.2,0.4,0.5,0.8,0.9,1c0.4,0.3,1,0.4,1.8,0.4
					c0.8,0,1.4-0.1,1.8-0.4c0.4-0.3,0.7-0.6,0.9-1c0.2-0.4,0.3-0.9,0.4-1.4s0.1-1,0.1-1.6v-8.9h2.3v9.8c0,1-0.1,1.8-0.4,2.6
					c-0.3,0.7-0.6,1.3-1.1,1.8c-0.5,0.5-1.1,0.9-1.7,1.1c-0.7,0.2-1.4,0.4-2.3,0.4s-1.6-0.1-2.3-0.4c-0.7-0.2-1.3-0.6-1.7-1.1
					c-0.5-0.5-0.8-1.1-1.1-1.8s-0.4-1.6-0.4-2.6L232,22.9L232,22.9z"/>
				<path class="st0" d="M245.3,23h2.5l6.1,11.5h0V23h2.2v15.6h-2.5l-6.1-11.5h-0.1v11.5h-2.2V23z"/>
				<path class="st0" d="M257.5,23h10.8v2.4h-4.2v13.2h-2.3V25.4h-4.2V23z"/>
			</g>
		</g>
		<circle class="st0" cx="171.2" cy="31.5" r="1.7"/>
		<circle class="st0" cx="214.8" cy="31.5" r="1.7"/>
	</g>
	<g>
		<g>
			<g>
				<g>
					
						<linearGradient id="SVGID_1_" gradientUnits="userSpaceOnUse" x1="1505.302" y1="-378.0341" x2="1515.7144" y2="-397.8669" gradientTransform="matrix(0.9481 -0.318 -0.318 -0.9481 -1518.2596 167.2478)">
						<stop  offset="0" style="stop-color:#C8C8C8"/>
						<stop  offset="0.1374" style="stop-color:#A4A4A4"/>
						<stop  offset="0.3368" style="stop-color:#767676"/>
						<stop  offset="0.4369" style="stop-color:#646464"/>
						<stop  offset="0.7193" style="stop-color:#303030"/>
						<stop  offset="1" style="stop-color:#000000"/>
					</linearGradient>
					<path class="st1" d="M43.4,61.9c2.4-1.8,2.9-5.1,1.1-7.5c-1.8-2.4-5.1-2.9-7.5-1.1c-2.4,1.8-2.9,5.1-1.1,7.5
						C37.6,63.2,41,63.7,43.4,61.9z"/>
					
						<linearGradient id="SVGID_2_" gradientUnits="userSpaceOnUse" x1="1496.7349" y1="-382.5319" x2="1507.1471" y2="-402.3647" gradientTransform="matrix(0.9481 -0.318 -0.318 -0.9481 -1518.2596 167.2478)">
						<stop  offset="0" style="stop-color:#C8C8C8"/>
						<stop  offset="0.1374" style="stop-color:#A4A4A4"/>
						<stop  offset="0.3368" style="stop-color:#767676"/>
						<stop  offset="0.4369" style="stop-color:#646464"/>
						<stop  offset="0.7193" style="stop-color:#303030"/>
						<stop  offset="1" style="stop-color:#000000"/>
					</linearGradient>
					<path class="st2" d="M19.3,59.6c0,0,8,3.9,16.7,3.3c0,0-3.2-2.4-2.3-6.8C33.7,56.1,26.1,60.4,19.3,59.6z"/>
					
						<linearGradient id="SVGID_3_" gradientUnits="userSpaceOnUse" x1="1516.7904" y1="-372.0027" x2="1527.2026" y2="-391.8356" gradientTransform="matrix(0.9481 -0.318 -0.318 -0.9481 -1518.2596 167.2478)">
						<stop  offset="0" style="stop-color:#C8C8C8"/>
						<stop  offset="0.1374" style="stop-color:#A4A4A4"/>
						<stop  offset="0.3368" style="stop-color:#767676"/>
						<stop  offset="0.4369" style="stop-color:#646464"/>
						<stop  offset="0.7193" style="stop-color:#303030"/>
						<stop  offset="1" style="stop-color:#000000"/>
					</linearGradient>
					<path class="st3" d="M47.1,59c0,0,7.3-7.2,7.3-18.4c0,0-2.9,7.5-9.8,11.7C44.7,52.3,48.1,54.7,47.1,59z"/>
					
						<linearGradient id="SVGID_4_" gradientUnits="userSpaceOnUse" x1="248.8077" y1="-96.6696" x2="243.5662" y2="-89.0906" gradientTransform="matrix(0.999 -4.421419e-02 -4.421419e-02 -0.999 -209.7298 -24.1711)">
						<stop  offset="0" style="stop-color:#FFFFFF;stop-opacity:0"/>
						<stop  offset="0.8999" style="stop-color:#FFFFFF;stop-opacity:0.5399"/>
						<stop  offset="1" style="stop-color:#FFFFFF;stop-opacity:0.6"/>
					</linearGradient>
					<path class="st4" d="M43.1,61.6c2.2-1.6,2.7-4.7,1-6.9c-1.6-2.2-4.7-2.7-6.9-1c-2.2,1.6-2.7,4.7-1,6.9
						C37.8,62.7,40.9,63.2,43.1,61.6z"/>
					
						<linearGradient id="SVGID_5_" gradientUnits="userSpaceOnUse" x1="259.4094" y1="-87.3987" x2="255.2303" y2="-83.9988" gradientTransform="matrix(0.999 -4.421419e-02 -4.421419e-02 -0.999 -209.7298 -24.1711)">
						<stop  offset="0" style="stop-color:#FFFFFF;stop-opacity:0"/>
						<stop  offset="0.8999" style="stop-color:#FFFFFF;stop-opacity:0.5399"/>
						<stop  offset="1" style="stop-color:#FFFFFF;stop-opacity:0.6"/>
					</linearGradient>
					<path class="st5" d="M47.6,58c0,0,6.2-6.7,6.6-16.2c0,0-3.4,6.8-8.6,10.6C45.6,52.4,48.5,54.3,47.6,58z"/>
					
						<linearGradient id="SVGID_6_" gradientUnits="userSpaceOnUse" x1="234.3953" y1="-97.2718" x2="233.0141" y2="-93.8188" gradientTransform="matrix(0.999 -4.421419e-02 -4.421419e-02 -0.999 -209.7298 -24.1711)">
						<stop  offset="0" style="stop-color:#FFFFFF;stop-opacity:0"/>
						<stop  offset="0.8999" style="stop-color:#FFFFFF;stop-opacity:0.5399"/>
						<stop  offset="1" style="stop-color:#FFFFFF;stop-opacity:0.6"/>
					</linearGradient>
					<path class="st6" d="M20.7,59.9c0,0,6.9,3.1,14.3,2.7c0,0-2.8-2-2.1-5.6C33,57,26.5,60.7,20.7,59.9z"/>
				</g>
				<g>
					
						<linearGradient id="SVGID_7_" gradientUnits="userSpaceOnUse" x1="1262.8884" y1="-9176.2744" x2="1266.6072" y2="-9162.1436" gradientTransform="matrix(-0.9439 -0.3302 -0.3302 0.9439 -1792.9427 9076.1523)">
						<stop  offset="0" style="stop-color:#3FF300"/>
						<stop  offset="0.1515" style="stop-color:#2DCC00"/>
						<stop  offset="0.3127" style="stop-color:#1DAA00"/>
						<stop  offset="0.4775" style="stop-color:#108F00"/>
						<stop  offset="0.645" style="stop-color:#077C00"/>
						<stop  offset="0.8169" style="stop-color:#027100"/>
						<stop  offset="1" style="stop-color:#006D00"/>
					</linearGradient>
					<path class="st7" d="M39.9,0c-3-0.1-5.4,2.3-5.5,5.2c-0.1,3,2.3,5.5,5.2,5.5c3,0.1,5.5-2.3,5.5-5.3C45.3,2.6,42.9,0.1,39.9,0z"
						/>
					
						<linearGradient id="SVGID_8_" gradientUnits="userSpaceOnUse" x1="1250.5391" y1="-9173.0244" x2="1254.2577" y2="-9158.8936" gradientTransform="matrix(-0.9439 -0.3302 -0.3302 0.9439 -1792.9427 9076.1523)">
						<stop  offset="0" style="stop-color:#3FF300"/>
						<stop  offset="0.1515" style="stop-color:#2DCC00"/>
						<stop  offset="0.3127" style="stop-color:#1DAA00"/>
						<stop  offset="0.4775" style="stop-color:#108F00"/>
						<stop  offset="0.645" style="stop-color:#077C00"/>
						<stop  offset="0.8169" style="stop-color:#027100"/>
						<stop  offset="1" style="stop-color:#006D00"/>
					</linearGradient>
					<path class="st8" d="M57.6,16.6c0,0-3.9-8-11.2-12.9c0,0,1.1,3.9-2.4,6.8C44,10.5,52.7,11.8,57.6,16.6z"/>
					
						<linearGradient id="SVGID_9_" gradientUnits="userSpaceOnUse" x1="1272.6586" y1="-9178.8457" x2="1276.3773" y2="-9164.7148" gradientTransform="matrix(-0.9439 -0.3302 -0.3302 0.9439 -1792.9427 9076.1523)">
						<stop  offset="0" style="stop-color:#3FF300"/>
						<stop  offset="0.1515" style="stop-color:#2DCC00"/>
						<stop  offset="0.3127" style="stop-color:#1DAA00"/>
						<stop  offset="0.4775" style="stop-color:#108F00"/>
						<stop  offset="0.645" style="stop-color:#077C00"/>
						<stop  offset="0.8169" style="stop-color:#027100"/>
						<stop  offset="1" style="stop-color:#006D00"/>
					</linearGradient>
					<path class="st9" d="M35.2,0c0,0-10.2,1.2-17.1,10.1c0,0,6.9-4.1,14.9-3.3C33,6.8,31.7,2.8,35.2,0z"/>
					
						<linearGradient id="SVGID_10_" gradientUnits="userSpaceOnUse" x1="2430.2424" y1="-8600.6328" x2="2425.001" y2="-8593.0537" gradientTransform="matrix(-0.8163 -0.5776 -0.5776 0.8163 -2944.0598 8425.0078)">
						<stop  offset="0" style="stop-color:#FFFFFF;stop-opacity:0"/>
						<stop  offset="0.8999" style="stop-color:#FFFFFF;stop-opacity:0.5399"/>
						<stop  offset="1" style="stop-color:#FFFFFF;stop-opacity:0.6"/>
					</linearGradient>
					<path class="st10" d="M39.9,0.4c-2.7-0.1-5,2.1-5.1,4.8c-0.1,2.7,2.1,5,4.8,5.1c2.7,0.1,5-2.1,5.1-4.8
						C44.8,2.8,42.7,0.5,39.9,0.4z"/>
					
						<linearGradient id="SVGID_11_" gradientUnits="userSpaceOnUse" x1="2440.8611" y1="-8591.3672" x2="2436.6819" y2="-8587.9668" gradientTransform="matrix(-0.8163 -0.5776 -0.5776 0.8163 -2944.0598 8425.0078)">
						<stop  offset="0" style="stop-color:#FFFFFF;stop-opacity:0"/>
						<stop  offset="0.8999" style="stop-color:#FFFFFF;stop-opacity:0.5399"/>
						<stop  offset="1" style="stop-color:#FFFFFF;stop-opacity:0.6"/>
					</linearGradient>
					<path class="st11" d="M34.2,0.5c0,0-9,1.5-15.2,8.8c0,0,6.8-3.3,13.3-3.1C32.4,6.2,31.3,2.9,34.2,0.5z"/>
					
						<linearGradient id="SVGID_12_" gradientUnits="userSpaceOnUse" x1="2415.834" y1="-8601.2188" x2="2414.4526" y2="-8597.7656" gradientTransform="matrix(-0.8163 -0.5776 -0.5776 0.8163 -2944.0598 8425.0078)">
						<stop  offset="0" style="stop-color:#FFFFFF;stop-opacity:0"/>
						<stop  offset="0.8999" style="stop-color:#FFFFFF;stop-opacity:0.5399"/>
						<stop  offset="1" style="stop-color:#FFFFFF;stop-opacity:0.6"/>
					</linearGradient>
					<path class="st12" d="M56.6,15.5c0,0-3.6-6.6-9.7-10.9c0,0,1,3.3-1.8,5.7C45.1,10.3,52.5,11.3,56.6,15.5z"/>
				</g>
				<g>
					
						<linearGradient id="SVGID_13_" gradientUnits="userSpaceOnUse" x1="-4022.5203" y1="-7173.8242" x2="-4011.2578" y2="-7196.0298" gradientTransform="matrix(-0.5905 0.807 0.807 0.5905 3434.3818 7499.48)">
						<stop  offset="0" style="stop-color:#FFF33B"/>
						<stop  offset="4.010540e-02" style="stop-color:#FEE72E"/>
						<stop  offset="0.1171" style="stop-color:#FED51B"/>
						<stop  offset="0.1964" style="stop-color:#FDCA10"/>
						<stop  offset="0.2809" style="stop-color:#FDC70C"/>
						<stop  offset="0.6685" style="stop-color:#F3903F"/>
						<stop  offset="0.8876" style="stop-color:#ED683C"/>
						<stop  offset="1" style="stop-color:#E93E3A"/>
					</linearGradient>
					<path class="st13" d="M3.4,13.5c-0.9,2.8,0.6,5.9,3.4,6.8c2.8,0.9,5.9-0.6,6.8-3.4c0.9-2.8-0.6-5.9-3.4-6.8
						C7.4,9.2,4.4,10.7,3.4,13.5z"/>
					
						<linearGradient id="SVGID_14_" gradientUnits="userSpaceOnUse" x1="-4031.2773" y1="-7178.2656" x2="-4020.0149" y2="-7200.4712" gradientTransform="matrix(-0.5905 0.807 0.807 0.5905 3434.3818 7499.48)">
						<stop  offset="0" style="stop-color:#FFF33B"/>
						<stop  offset="4.010540e-02" style="stop-color:#FEE72E"/>
						<stop  offset="0.1171" style="stop-color:#FED51B"/>
						<stop  offset="0.1964" style="stop-color:#FDCA10"/>
						<stop  offset="0.2809" style="stop-color:#FDC70C"/>
						<stop  offset="0.6685" style="stop-color:#F3903F"/>
						<stop  offset="0.8876" style="stop-color:#ED683C"/>
						<stop  offset="1" style="stop-color:#E93E3A"/>
					</linearGradient>
					<path class="st14" d="M24.4,1.5c0,0-8.8,1.4-15.6,6.9c0,0,4,0.1,5.8,4.2C14.7,12.7,18.4,4.8,24.4,1.5z"/>
					
						<linearGradient id="SVGID_15_" gradientUnits="userSpaceOnUse" x1="-4010.9148" y1="-7167.938" x2="-3999.6526" y2="-7190.144" gradientTransform="matrix(-0.5905 0.807 0.807 0.5905 3434.3818 7499.48)">
						<stop  offset="0" style="stop-color:#FFF33B"/>
						<stop  offset="4.010540e-02" style="stop-color:#FEE72E"/>
						<stop  offset="0.1171" style="stop-color:#FED51B"/>
						<stop  offset="0.1964" style="stop-color:#FDCA10"/>
						<stop  offset="0.2809" style="stop-color:#FDC70C"/>
						<stop  offset="0.6685" style="stop-color:#F3903F"/>
						<stop  offset="0.8876" style="stop-color:#ED683C"/>
						<stop  offset="1" style="stop-color:#E93E3A"/>
					</linearGradient>
					<path class="st15" d="M2.1,18.1c0,0-1.8,10.1,4.7,19.3c0,0-2-7.8,1.2-15.2C7.9,22.2,3.7,22.2,2.1,18.1z"/>
					
						<linearGradient id="SVGID_16_" gradientUnits="userSpaceOnUse" x1="-3193.6248" y1="-8151.0879" x2="-3198.8665" y2="-8143.5088" gradientTransform="matrix(-0.7901 0.6129 0.6129 0.7901 2476.5042 8411.3174)">
						<stop  offset="0" style="stop-color:#FFFFFF;stop-opacity:0"/>
						<stop  offset="0.8999" style="stop-color:#FFFFFF;stop-opacity:0.5399"/>
						<stop  offset="1" style="stop-color:#FFFFFF;stop-opacity:0.6"/>
					</linearGradient>
					<path class="st16" d="M3.9,13.7C3,16.3,4.4,19.1,7,19.9s5.4-0.6,6.3-3.1s-0.6-5.4-3.1-6.3S4.7,11.1,3.9,13.7z"/>
					
						<linearGradient id="SVGID_17_" gradientUnits="userSpaceOnUse" x1="-3183.0078" y1="-8141.8306" x2="-3187.187" y2="-8138.4307" gradientTransform="matrix(-0.7901 0.6129 0.6129 0.7901 2476.5042 8411.3174)">
						<stop  offset="0" style="stop-color:#FFFFFF;stop-opacity:0"/>
						<stop  offset="0.8999" style="stop-color:#FFFFFF;stop-opacity:0.5399"/>
						<stop  offset="1" style="stop-color:#FFFFFF;stop-opacity:0.6"/>
					</linearGradient>
					<path class="st17" d="M2.3,19.1c0,0-1.2,9,4,17.1c0,0-1.1-7.5,0.9-13.6C7.1,22.6,3.7,22.7,2.3,19.1z"/>
					
						<linearGradient id="SVGID_18_" gradientUnits="userSpaceOnUse" x1="-3208.0334" y1="-8151.6709" x2="-3209.4146" y2="-8148.2178" gradientTransform="matrix(-0.7901 0.6129 0.6129 0.7901 2476.5042 8411.3174)">
						<stop  offset="0" style="stop-color:#FFFFFF;stop-opacity:0"/>
						<stop  offset="0.8999" style="stop-color:#FFFFFF;stop-opacity:0.5399"/>
						<stop  offset="1" style="stop-color:#FFFFFF;stop-opacity:0.6"/>
					</linearGradient>
					<path class="st18" d="M23.1,2.1c0,0-7.4,1.5-13.3,6.1c0,0,3.5,0,4.9,3.4C14.8,11.5,17.9,4.8,23.1,2.1z"/>
				</g>
				<g>
					<g>
						
							<linearGradient id="SVGID_19_" gradientUnits="userSpaceOnUse" x1="219.5689" y1="-77.1423" x2="212.5566" y2="-84.2078" gradientTransform="matrix(0.999 -4.421419e-02 -4.421419e-02 -0.999 -209.7298 -24.1711)">
							<stop  offset="0" style="stop-color:#FF4F00"/>
							<stop  offset="1" style="stop-color:#AF0000"/>
						</linearGradient>
						<path class="st19" d="M5.4,52.5c2.4,1.7,5.8,1.2,7.5-1.2c1.7-2.4,1.2-5.8-1.2-7.5C9.3,42,5.9,42.5,4.2,45
							C2.4,47.4,3,50.7,5.4,52.5z"/>
						
							<linearGradient id="SVGID_20_" gradientUnits="userSpaceOnUse" x1="211.0603" y1="-68.6977" x2="204.048" y2="-75.7631" gradientTransform="matrix(0.999 -4.421419e-02 -4.421419e-02 -0.999 -209.7298 -24.1711)">
							<stop  offset="0" style="stop-color:#FF4F00"/>
							<stop  offset="1" style="stop-color:#AF0000"/>
						</linearGradient>
						<path class="st20" d="M0.3,28.8c0,0-1.3,8.9,1.9,16.9c0,0,1.3-3.8,5.8-4.2C8,41.5,1.6,35.5,0.3,28.8z"/>
						
							<linearGradient id="SVGID_21_" gradientUnits="userSpaceOnUse" x1="228.8731" y1="-86.3766" x2="221.8608" y2="-93.442" gradientTransform="matrix(0.999 -4.421419e-02 -4.421419e-02 -0.999 -209.7298 -24.1711)">
							<stop  offset="0" style="stop-color:#FF4F00"/>
							<stop  offset="1" style="stop-color:#AF0000"/>
						</linearGradient>
						<path class="st21" d="M9.3,55.2c0,0,9.1,4.8,19.8,1.4c0,0-8.1-0.5-14.2-5.7C15,50.8,13.7,54.8,9.3,55.2z"/>
					</g>
					
						<linearGradient id="SVGID_22_" gradientUnits="userSpaceOnUse" x1="-4412.8901" y1="-2723.8604" x2="-4418.1318" y2="-2716.2815" gradientTransform="matrix(0.3461 0.9382 0.9382 -0.3461 4088.6035 3249.5337)">
						<stop  offset="0" style="stop-color:#FFFFFF;stop-opacity:0"/>
						<stop  offset="0.8999" style="stop-color:#FFFFFF;stop-opacity:0.5399"/>
						<stop  offset="1" style="stop-color:#FFFFFF;stop-opacity:0.6"/>
					</linearGradient>
					<path class="st22" d="M5.7,52.1c2.2,1.6,5.3,1.1,6.9-1.1c1.6-2.2,1.1-5.3-1.1-6.9S6.1,43,4.6,45.2S3.4,50.5,5.7,52.1z"/>
					
						<linearGradient id="SVGID_23_" gradientUnits="userSpaceOnUse" x1="-4402.2856" y1="-2714.5815" x2="-4406.4644" y2="-2711.1816" gradientTransform="matrix(0.3461 0.9382 0.9382 -0.3461 4088.6035 3249.5337)">
						<stop  offset="0" style="stop-color:#FFFFFF;stop-opacity:0"/>
						<stop  offset="0.8999" style="stop-color:#FFFFFF;stop-opacity:0.5399"/>
						<stop  offset="1" style="stop-color:#FFFFFF;stop-opacity:0.6"/>
					</linearGradient>
					<path class="st23" d="M10.4,55.3c0,0,8.3,3.9,17.5,1.4c0,0-7.5-1.2-12.7-5C15.2,51.7,14.2,55,10.4,55.3z"/>
					
						<linearGradient id="SVGID_24_" gradientUnits="userSpaceOnUse" x1="-4427.3091" y1="-2724.4675" x2="-4428.6904" y2="-2721.0144" gradientTransform="matrix(0.3461 0.9382 0.9382 -0.3461 4088.6035 3249.5337)">
						<stop  offset="0" style="stop-color:#FFFFFF;stop-opacity:0"/>
						<stop  offset="0.8999" style="stop-color:#FFFFFF;stop-opacity:0.5399"/>
						<stop  offset="1" style="stop-color:#FFFFFF;stop-opacity:0.6"/>
					</linearGradient>
					<path class="st24" d="M0.4,30.3c0,0-0.8,7.5,1.8,14.5c0,0,1.1-3.3,4.8-3.7C6.9,41.1,1.4,36,0.4,30.3z"/>
				</g>
			</g>
			<g>
				
					<linearGradient id="SVGID_25_" gradientUnits="userSpaceOnUse" x1="4550.8691" y1="-4891.5547" x2="4569.1436" y2="-4890.7046" gradientTransform="matrix(8.663915e-03 -1 -1 -8.663915e-03 -4871.9414 4545.979)">
					<stop  offset="0" style="stop-color:#0089FF"/>
					<stop  offset="0.3458" style="stop-color:#006BF7"/>
					<stop  offset="1" style="stop-color:#0036E9"/>
				</linearGradient>
				<path class="st25" d="M64,30.2c-0.9-2.8-3.9-4.4-6.8-3.5c-2.8,0.9-4.4,3.9-3.5,6.8c0.9,2.8,3.9,4.4,6.8,3.5
					C63.3,36,64.9,33,64,30.2z"/>
				
					<linearGradient id="SVGID_26_" gradientUnits="userSpaceOnUse" x1="4550.8184" y1="-4890.4609" x2="4569.0928" y2="-4889.6108" gradientTransform="matrix(8.663915e-03 -1 -1 -8.663915e-03 -4871.9414 4545.979)">
					<stop  offset="0" style="stop-color:#0089FF"/>
					<stop  offset="0.3458" style="stop-color:#006BF7"/>
					<stop  offset="1" style="stop-color:#0036E9"/>
				</linearGradient>
				<path class="st26" d="M53.9,52.2c0,0,6.3-6.3,8.6-14.7c0,0-3.3,2.3-7.2-0.1C55.3,37.4,56.9,46.1,53.9,52.2z"/>
				
					<linearGradient id="SVGID_27_" gradientUnits="userSpaceOnUse" x1="4550.7085" y1="-4888.104" x2="4568.9829" y2="-4887.2539" gradientTransform="matrix(8.663915e-03 -1 -1 -8.663915e-03 -4871.9414 4545.979)">
					<stop  offset="0" style="stop-color:#0089FF"/>
					<stop  offset="0.3458" style="stop-color:#006BF7"/>
					<stop  offset="1" style="stop-color:#0036E9"/>
				</linearGradient>
				<path class="st27" d="M62.4,25.7c0,0-4.5-9.3-15-13c0,0,6.2,5.2,7.9,13.1C55.3,25.8,58.7,23.3,62.4,25.7z"/>
				
					<linearGradient id="SVGID_28_" gradientUnits="userSpaceOnUse" x1="4416.0327" y1="-3582.481" x2="4410.791" y2="-3574.9019" gradientTransform="matrix(0.2841 -0.9588 -0.9588 -0.2841 -4626.0767 3246.5925)">
					<stop  offset="0" style="stop-color:#FFFFFF;stop-opacity:0"/>
					<stop  offset="0.8999" style="stop-color:#FFFFFF;stop-opacity:0.5399"/>
					<stop  offset="1" style="stop-color:#FFFFFF;stop-opacity:0.6"/>
				</linearGradient>
				<path class="st28" d="M63.6,30.3c-0.8-2.6-3.6-4.1-6.2-3.2s-4.1,3.6-3.2,6.2c0.8,2.6,3.6,4.1,6.2,3.2
					C62.9,35.7,64.4,32.9,63.6,30.3z"/>
				
					<linearGradient id="SVGID_29_" gradientUnits="userSpaceOnUse" x1="4426.6362" y1="-3573.1938" x2="4422.457" y2="-3569.7939" gradientTransform="matrix(0.2841 -0.9588 -0.9588 -0.2841 -4626.0767 3246.5925)">
					<stop  offset="0" style="stop-color:#FFFFFF;stop-opacity:0"/>
					<stop  offset="0.8999" style="stop-color:#FFFFFF;stop-opacity:0.5399"/>
					<stop  offset="1" style="stop-color:#FFFFFF;stop-opacity:0.6"/>
				</linearGradient>
				<path class="st29" d="M61.6,24.9c0,0-4.3-8-13.2-11.6c0,0,5.3,5.4,7.2,11.6C55.7,25,58.4,22.9,61.6,24.9z"/>
				
					<linearGradient id="SVGID_30_" gradientUnits="userSpaceOnUse" x1="4401.6157" y1="-3583.0923" x2="4400.2344" y2="-3579.6394" gradientTransform="matrix(0.2841 -0.9588 -0.9588 -0.2841 -4626.0767 3246.5925)">
					<stop  offset="0" style="stop-color:#FFFFFF;stop-opacity:0"/>
					<stop  offset="0.8999" style="stop-color:#FFFFFF;stop-opacity:0.5399"/>
					<stop  offset="1" style="stop-color:#FFFFFF;stop-opacity:0.6"/>
				</linearGradient>
				<path class="st30" d="M54.7,51c0,0,5.1-5.5,7.2-12.7c0,0-2.8,2-6,0.1C55.9,38.4,57.3,45.7,54.7,51z"/>
			</g>
		</g>
		<g>
			<g>
				<path class="st0" d="M12.8,37c0-0.2,0.1-0.4,0.2-0.7c0.1-0.2,0.2-0.4,0.3-0.6h0.1c0.3,0.4,0.7,0.7,1.2,1
					c0.4,0.2,0.9,0.5,1.4,0.7c0.6,0.2,1.2,0.3,2,0.3c0.5,0,1-0.1,1.3-0.2c0.4-0.1,0.7-0.3,0.9-0.5c0.2-0.2,0.4-0.5,0.5-0.7
					c0.1-0.3,0.1-0.6,0.1-0.8c0-0.6-0.2-1-0.6-1.4c-0.4-0.4-0.9-0.7-1.4-1c-0.6-0.3-1.2-0.6-1.9-0.9s-1.3-0.6-1.9-1
					c-0.6-0.4-1.1-0.8-1.4-1.4c-0.4-0.5-0.6-1.2-0.6-2c0-0.7,0.1-1.3,0.5-1.9c0.3-0.6,0.7-1,1.2-1.4c0.5-0.4,1.1-0.7,1.7-0.8
					c0.6-0.2,1.3-0.3,2-0.3c0.3,0,0.7,0,1.2,0.1c0.5,0.1,1,0.1,1.4,0.3c0.5,0.1,0.9,0.3,1.2,0.5c0.3,0.2,0.5,0.5,0.5,0.8
					c0,0.3-0.1,0.6-0.2,0.9c-0.2,0.3-0.4,0.6-0.6,0.8h-0.1c-0.3-0.4-0.6-0.8-1-1.1c-0.3-0.3-0.7-0.6-1.2-0.8c-0.5-0.2-1-0.3-1.6-0.3
					c-0.7,0-1.3,0.2-1.8,0.7c-0.5,0.5-0.7,1-0.7,1.7c0,0.6,0.2,1,0.6,1.4c0.4,0.4,0.9,0.7,1.4,1c0.6,0.3,1.2,0.6,1.9,0.8
					c0.7,0.3,1.3,0.6,1.9,1c0.6,0.4,1.1,0.8,1.4,1.4c0.4,0.6,0.6,1.2,0.6,2.1c0,0.7-0.2,1.4-0.5,2c-0.3,0.6-0.7,1-1.3,1.4
					c-0.5,0.4-1.1,0.7-1.8,0.9c-0.7,0.2-1.3,0.3-2,0.3c-0.5,0-1,0-1.6-0.1c-0.6-0.1-1.1-0.2-1.6-0.4c-0.5-0.2-0.9-0.4-1.3-0.7
					C12.9,37.6,12.8,37.3,12.8,37z"/>
				<path class="st0" d="M25.7,38.7c0-0.2,0.1-0.5,0.1-1c0-0.4,0.1-1,0.1-1.8c0-0.8,0.1-1.8,0.1-3.2c0-0.4,0-1,0-1.6
					c0-0.6,0-1.3,0-2c0-0.7,0-1.3,0-1.9c0-0.6,0-1.1,0-1.4c0-0.5-0.1-0.9-0.1-1.2c0-0.3,0-0.5-0.1-0.7c0-0.2,0-0.3-0.1-0.4
					c0.2,0,0.4,0,0.5,0c0.2,0,0.3,0,0.5,0c0.2,0,0.4,0,0.7,0h2.7c0.9,0,1.8,0.1,2.5,0.3c0.7,0.2,1.3,0.5,1.7,0.8
					c0.5,0.4,0.8,0.8,1,1.2c0.2,0.5,0.3,1,0.3,1.5c0,0.5,0,0.9-0.1,1.3c-0.1,0.4-0.2,0.7-0.4,1c-0.2,0.3-0.4,0.6-0.6,0.8
					c-0.2,0.2-0.4,0.4-0.6,0.5c-0.5,0.4-1.1,0.6-1.7,0.7v0.1c0.7,1,1.4,2,2.1,2.8c0.3,0.4,0.6,0.7,0.9,1.1c0.3,0.4,0.6,0.7,0.9,1.1
					c0.3,0.3,0.6,0.6,0.9,0.9c0.3,0.3,0.5,0.4,0.8,0.6v0.1c-0.2,0.1-0.5,0.1-0.7,0.1c-0.2,0-0.4,0.1-0.6,0.1c-0.2,0-0.4,0-0.6,0
					c-0.6,0-1.1-0.2-1.6-0.5c-0.5-0.3-0.9-0.7-1.3-1.2c-0.4-0.5-0.8-1-1.1-1.6c-0.4-0.6-0.7-1.1-1-1.7c-0.3-0.5-0.7-1-1-1.4
					c-0.3-0.4-0.6-0.6-0.9-0.7l-0.3-0.1c0,0.1,0,0.4,0,0.8c0,0.4,0,0.9,0,1.4c0,0.5,0,1.1,0,1.7c0,0.6,0,1.2,0,1.8
					c0,0.6-0.1,1-0.4,1.2s-0.6,0.3-1,0.3c-0.2,0-0.5,0-0.7-0.1C26.3,38.8,26,38.8,25.7,38.7z M28.5,30.7c0.3,0.1,0.6,0.2,0.9,0.2
					c0.3,0,0.6,0,0.9,0c0.4,0,0.8,0,1.1-0.1c0.3-0.1,0.6-0.3,0.9-0.5c0.3-0.2,0.4-0.5,0.6-0.9c0.1-0.4,0.2-0.8,0.2-1.4
					c0-0.4-0.1-0.8-0.2-1.2c-0.1-0.4-0.4-0.7-0.7-1c-0.3-0.3-0.7-0.5-1.2-0.7c-0.5-0.2-1.1-0.3-1.8-0.3h-0.7c0,0.5,0,1,0,1.5
					s0,1,0,1.6c0,0.5,0,1,0,1.5C28.5,29.8,28.5,30.3,28.5,30.7z"/>
				<path class="st0" d="M39.3,38.7c0-0.2,0.1-0.5,0.1-1c0-0.4,0.1-1,0.1-1.8c0-0.8,0-1.8,0-3.2c0-0.2,0-0.5,0-0.9s0-0.8,0-1.2
					c0-0.4,0-0.9,0-1.4c0-0.5,0-0.9,0-1.4c0-0.4,0-0.8,0-1.2c0-0.3,0-0.6,0-0.8c0-0.5-0.1-0.9-0.1-1.2c0-0.3,0-0.5-0.1-0.7
					c0-0.2,0-0.3-0.1-0.4c0.2,0,0.4,0,0.5,0c0.2,0,0.3,0,0.5,0c0.2,0,0.4,0,0.7,0h2.7c0.9,0,1.7,0.1,2.3,0.3s1.2,0.4,1.6,0.8
					c0.4,0.3,0.7,0.7,0.9,1.1s0.3,0.9,0.3,1.3c0,0.6-0.2,1.2-0.5,1.9c-0.3,0.6-0.8,1.2-1.5,1.6v0.1c0.5,0.1,0.9,0.3,1.3,0.5
					c0.4,0.2,0.8,0.5,1.1,0.8c0.3,0.3,0.6,0.7,0.8,1.1c0.2,0.4,0.3,0.9,0.3,1.4c0,0.6-0.1,1.2-0.3,1.8c-0.2,0.6-0.6,1-1,1.5
					c-0.4,0.4-1,0.7-1.6,1c-0.6,0.2-1.3,0.4-2.1,0.4c-0.4,0-0.7,0-1,0c-0.3,0-0.7-0.1-1.1-0.1c-0.4,0-0.9-0.1-1.5-0.1
					C40.9,38.7,40.2,38.7,39.3,38.7z M42.1,36.6c0,0.2,0.1,0.4,0.2,0.5c0.2,0.1,0.4,0.3,0.6,0.3c0.2,0.1,0.5,0.1,0.7,0.2
					s0.5,0,0.7,0c0.6,0,1.2-0.1,1.6-0.3c0.4-0.2,0.7-0.4,0.9-0.7c0.2-0.3,0.3-0.6,0.4-1c0.1-0.4,0.1-0.7,0.1-1.1
					c0-0.7-0.1-1.3-0.4-1.7c-0.3-0.5-0.7-0.8-1.2-1.1c-0.5-0.3-1.1-0.4-1.7-0.6c-0.6-0.1-1.3-0.2-2-0.2c0,0.1,0,0.3,0,0.4
					c0,0.1,0,0.3,0,0.4c0,0.3,0,0.5,0,0.8c0,0.3,0,0.6,0,0.8c0,0.5,0,1,0,1.5C42.1,35.6,42.1,36.1,42.1,36.6z M42,30.1
					c0.6,0,1.2,0,1.9,0.1c0.6,0,1.2,0.1,1.8,0.2c0.2-0.4,0.4-0.8,0.5-1.2c0.1-0.4,0.2-0.8,0.2-1.3c0-0.4-0.1-0.8-0.2-1.2
					c-0.1-0.4-0.3-0.7-0.6-1s-0.7-0.5-1.1-0.7c-0.5-0.2-1.1-0.3-1.8-0.3h-0.4c0,0-0.1,0-0.1,0s-0.1,0-0.1,0h-0.1c0,0.9,0,1.7,0,2.6
					C42.1,28.2,42.1,29.1,42,30.1z"/>
			</g>
		</g>
	</g>
</g>
</svg>
